<?xml version="1.0" encoding="UTF-8"?><svg id="Camada_2" xmlns="http://www.w3.org/2000/svg" viewBox="0 0 124.29 107.84"><g id="Camada_1-2"><path d="m84.36,8.02c.1.12.18.04.26-.02.09-.07.14-.18.18-.29.44-1.25,1.15-2.31,2.15-3.19.42-.37.92-.55,1.43-.73.42-.15.7.12,1,.33.28.2.45.47.52.81.03.17.11.33.17.5.05.12.12.24.24.29.22.08.32.26.39.46.08.26.22.48.39.68.58.66.5,1.59.01,2.22-.53.69-1.27,1.08-2.06,1.38-.11.04-.22.07-.33.15.17.08.34.04.5.06.24.02.47.05.7.1.14.03.24,0,.32-.13.38-.67.8-1.31,1.29-1.91.5-.61,1.09-1.1,1.72-1.56.95-.71,2.01-1.21,3.07-1.72.91-.44,1.86-.77,2.82-1.06.59-.17,1.21-.23,1.8-.37.42-.1.82-.26,1.21-.46.07-.04.13-.07.21-.07.17,0,.24.14.14.28-.05.07-.11.13-.17.2-.48.55-.76,1.23-1.13,1.85-.53.91-.84,1.92-1.35,2.83-.54.97-1.05,1.95-1.66,2.88-.38.58-.77,1.16-1.19,1.71-.95,1.26-2,2.43-3,3.64-.95,1.15-2.01,2.21-3.02,3.31-.58.64-1.08,1.35-1.53,2.09-.41.66-.79,1.34-1.06,2.07-.14.37-.22.77-.32,1.15-.14.53-.28,1.06-.27,1.61,0,.31-.05.61-.06.92,0,.38-.06.76-.09,1.15-.01.21-.03.43-.03.64,0,.17.01.34,0,.5,0,.21.09.4.19.59.3.54.61,1.08.87,1.65.26.58.55,1.16.79,1.75.16.4.36.8.54,1.19.44.95.85,1.91,1.28,2.86.32.69.63,1.39.9,2.1.32.82.72,1.62,1.02,2.45.37,1.03.71,2.07.99,3.13.03.11.04.23.07.34,0,.02.03.03.07.07.45-2.55,1.64-4.76,2.92-6.98-.16.12-.29.22-.43.31-.48.32-.99.54-1.54.7-.28.08-.54.04-.78-.11-.4-.26-.8-.49-1.24-.67-.31-.13-.51-.38-.55-.73-.03-.27-.13-.5-.28-.7-.24-.33-.29-.71-.32-1.09-.04-.63.11-1.21.51-1.71.33-.42.75-.69,1.28-.84.8-.21,1.6-.44,2.43-.51.64-.06,1.28-.09,1.91-.18.07,0,.14,0,.2-.08-.19.02-.38,0-.57,0-.7,0-1.39,0-2.08-.05-.92-.07-1.83-.16-2.69-.52-.4-.16-.82-.26-1.18-.52-.33-.23-.5-.55-.62-.92-.12-.38-.14-.78-.2-1.17-.08-.52.2-1,.69-1.17.1-.03.17-.08.22-.17.21-.38.54-.69.7-1.11.05-.13.17-.23.3-.29.28-.13.49-.33.68-.57.59-.74,1.56-.57,2.16-.02.78.72,1.32,1.62,1.83,2.53.32.57.53,1.21.8,1.81.11.25.24.49.39.78.05-.18.03-.31-.02-.44-.2-.57-.46-1.12-.69-1.68-.24-.58-.42-1.18-.62-1.77-.39-1.16-.36-2.35-.19-3.54.06-.42.24-.83.65-1.05.39-.21.82-.23,1.24-.05.34.15.65.38,1.04.37.21,0,.42-.01.63.02.42.07.74.28.99.61.21.28.35.61.49.92.03.06.06.11.07.17.15.86.21,1.71-.1,2.57-.25.69-.54,1.35-.89,1.99-.22.4-.48.78-.71,1.18-.22.37-.44.74-.72,1.07-.03.03-.07.06-.01.1.06.04.13.04.18-.03.12-.16.24-.31.35-.47.65-.97,1.32-1.93,2.07-2.82.4-.47.85-.89,1.34-1.27.35-.27.7-.53,1.12-.67.75-.26,1.17.05,1.53.52.11.15.16.32.2.48.09.35.21.7.24,1.06.02.24.13.47.31.62.3.26.44.59.49.97.03.26.13.51.29.7.34.41.2.79-.01,1.18-.2.37-.53.59-.89.77-.66.33-1.38.42-2.09.51-.72.09-1.45.11-2.18.16-.12,0-.24-.04-.4.02.13.09.24.16.35.23.46.31.93.6,1.37.93.27.2.46.5.65.77.3.42.54.87.58,1.4.03.39-.04.77-.09,1.15,0,.03,0,.06-.01.12.27-.21.48-.45.7-.68.35-.36.71-.7,1.08-1.04.54-.52,1.09-1.03,1.68-1.49.81-.65,1.55-1.38,2.41-1.97.43-.29.89-.55,1.36-.76.9-.39,1.82-.72,2.74-1.04.76-.27,1.53-.49,2.32-.65.82-.16,1.64-.28,2.45-.46.5-.11,1-.26,1.5-.33.78-.11,1.56-.24,2.34-.38.09-.02.18-.01.24.06.06.07,0,.14-.04.2-.49.55-.88,1.18-1.32,1.77-.47.62-1,1.19-1.45,1.82-.56.78-1.28,1.41-1.96,2.07-.46.45-1,.81-1.51,1.2-.66.5-1.37.94-2.09,1.36-.8.47-1.64.82-2.52,1.08-.83.25-1.66.51-2.48.79-.24.08-.49.16-.72.26-.2.09-.21.12-.06.28.2.22.29.48.38.75.11.36.05.73-.02,1.08-.2.97-.72,1.78-1.39,2.49-.1.1-.2.21-.29.31,0,0-.01.02-.03.07.13-.06.23-.12.33-.17.67-.3,1.33-.64,2.07-.73.41-.05.82-.04,1.22.08.49.15.9.69.92,1.2,0,.24,0,.49-.05.73-.04.18,0,.33.09.48.08.12.11.25.05.39-.24.55-.21,1.12-.15,1.69.07.66-.31,1.25-.91,1.53-.67.31-1.37.29-2.08.23-.36-.03-.7-.09-1.09-.19.12.24.23.43.33.63.39.74.48,1.52.2,2.31-.15.41-.33.83-.79,1.03-.12.05-.18.17-.25.29-.1.18-.24.35-.45.42-.42.14-.84.26-1.26.38-.34.11-.7.09-1.05.08-.39-.02-.78-.01-1.17-.07-.75-.1-1.12-.53-1.28-1.22-.12-.54-.2-1.09-.2-1.65,0-.05-.01-.09-.02-.16-.11.06-.15.17-.21.25-.46.62-1.12.89-1.85,1.01-.36.06-.72,0-1.08-.05-.38-.05-.64-.29-.88-.56-.11-.12-.23-.23-.38-.29-.19-.08-.31-.22-.37-.41-.06-.18-.18-.3-.33-.4-.38-.23-.6-.58-.75-.97-.36-.91-.27-1.78.27-2.59.35-.52.86-.79,1.46-.94.95-.24,1.92-.27,2.9-.29.39,0,.78-.04,1.17-.1-.17-.05-.35-.11-.52-.15-.95-.24-1.8-.66-2.61-1.21-.28-.19-.19-.22-.46.05-.42.42-.82.84-1.16,1.32-.45.64-.89,1.3-1.27,1.99-.24.44-.46.89-.69,1.33-.2.39-.31.83-.42,1.26-.1.4-.19.82-.26,1.23-.06.35-.02.68.04,1.02.08.47.16.94.22,1.41.05.4.15.79.23,1.19.05.24.1.29.31.46.3.24.42.59.52.94.08.29.11.58.16.88.03.15.11.27.21.38.23.24.4.52.6.79.03.04.04.09.08.12.37.34.41.81.45,1.26.03.32-.11.61-.3.87-.25.34-.42.74-.74,1.03-.14.12-.27.24-.44.32-.14.07-.22.14-.22.33-.01.88-.08,1.75-.1,2.63,0,.29.09.46.26.64.56.62.82,1.37.9,2.19.02.25-.07.46-.25.66-.19.2-.29.49-.47.7-.02.02-.04.06-.01.09.13.19.22.41.35.67.26-.49.59-.86.88-1.27.05-.07.06-.14.05-.21-.07-.48.07-.95.09-1.43.05-.82.28-1.61.5-2.39.15-.53.39-1.03.62-1.54.26-.56.6-1.07.93-1.59.38-.6.73-1.23,1.2-1.77.65-.76,1.33-1.49,2.13-2.1.59-.45,1.2-.85,1.83-1.23.63-.39,1.25-.79,1.9-1.16.43-.24.86-.5,1.3-.74.34-.18.66-.39,1.01-.56.42-.2.87-.34,1.31-.49.76-.27,1.54-.5,2.31-.76,1.03-.35,2.05-.72,3.02-1.22.06-.03.12-.07.18,0,.05.06.03.1-.01.16-.48.55-.88,1.16-1.21,1.81-.21.4-.51.76-.67,1.18-.33.83-.87,1.54-1.29,2.32-.36.67-.85,1.27-1.33,1.87-.77.98-1.58,1.91-2.49,2.76-.84.78-1.72,1.5-2.65,2.16-.9.64-1.83,1.23-2.78,1.78-.97.56-1.96,1.08-2.95,1.62-.48.26-.99.48-1.46.76-.84.5-1.57,1.14-2.05,2.03-.03.05-.05.12-.1.12-.26-.01-.12.13-.08.22.21.43.43.86.56,1.32.18.65.3,1.3.31,1.97,0,.38.02.77-.03,1.2.17-.23.24-.45.34-.66.31-.67.73-1.25,1.3-1.71.75-.6,1.48-.69,2.32-.3.09.04.16.1.21.19.3.47.61.94.86,1.44.24.47.51.92.74,1.39.1.21.18.42.17.66-.02.56.08,1.12-.06,1.68-.1.38-.18.76-.4,1.1-.19.29-.46.47-.81.53.3.25.54.52.69.86.15.34.26.69.29,1.09.2-.06.32-.23.47-.34.54-.4,1.15-.68,1.76-.94.52-.22,1.06-.36,1.62-.43.89-.11,1.78-.28,2.7-.19,1.24.12,2.35.55,3.39,1.22.39.25.78.48,1.12.8.74.69,1.41,1.44,1.95,2.31.4.65.7,1.35,1.02,2.04.29.63.59,1.26,1.03,1.81.21.26.39.55.58.83.08.11.1.24.05.36-.06.12-.18.09-.29.09-.78-.06-1.57-.08-2.31-.36-.55-.2-1.06-.49-1.55-.82-.74-.49-1.42-1.07-2.19-1.51-.47-.27-1-.43-1.55-.51-1.14-.16-2.23.04-3.3.42-.64.23-1.27.47-1.89.72-.47.2-.94.41-1.41.6-.82.34-1.64.65-2.48.94-.79.28-1.58.56-2.38.8-1.19.35-2.39.61-3.63.73-.41.04-.81.17-1.22.09-.05-.01-.09.01-.12.06-.47.65-1.02,1.24-1.48,1.9-.08.11-.1.23-.1.36,0,.53-.07,1.06-.13,1.6-.07.65-.11,1.31-.2,1.95-.11.8-.26,1.59-.43,2.37-.2.96-.38,1.94-.55,2.91-.1.55-.26,1.09-.31,1.65-.02.31-.04.63-.14.94-.05.14-.09.27-.25.29-.22.03-.45.08-.63-.11-.09-.09-.06-.21-.04-.31.11-.4.21-.8.33-1.19.27-.86.49-1.74.67-2.63.12-.62.27-1.24.4-1.86.22-1.05.39-2.11.48-3.19.05-.54.14-1.07.17-1.61.04-.75-.08-1.45-.47-2.1-.28-.47-.56-.94-.81-1.43-.25-.47-.45-.96-.64-1.47-.16-.43-.35-.85-.52-1.27-.03-.08-.1-.08-.17-.08-.1,0-.21-.01-.26-.09-.3-.39-.75-.49-1.18-.61-.56-.16-1.14-.28-1.7-.43-.73-.19-1.49-.24-2.23-.43-.84-.22-1.7-.19-2.55-.24-.94-.05-1.87.1-2.81.13-.58.02-1.15.1-1.71.19-1.38.23-2.76.4-4.14.67-.83.16-1.66.28-2.48.51-.4.11-.79.24-1.19.33-.61.14-1.24.23-1.85.37-.83.2-1.66.42-2.49.65-.33.09-.64.21-.96.31-.11.04-.24.07-.32-.04-.07-.1-.01-.22.06-.32.37-.5.74-1,1.12-1.49.4-.53.73-1.12,1.12-1.66.78-1.06,1.57-2.11,2.58-2.98.57-.49,1.15-.98,1.81-1.36.81-.47,1.69-.73,2.62-.87.35-.05.69-.11,1.05-.1.09,0,.19.01.28.03.06,0,.11.04.1.11,0,.07-.06.08-.12.08-.61-.03-1.21.1-1.8.24-.99.24-1.91.6-2.76,1.29.9-.03,1.74-.11,2.59,0,.84.11,1.63.4,2.45.59-.23,0-.44-.06-.65-.11-.22-.05-.45-.1-.67-.15-.58-.15-1.16-.23-1.76-.27-.64-.04-1.27.05-1.9.05-.18,0-.33.09-.46.19-.89.75-1.69,1.57-2.4,2.49-.52.67-1,1.36-1.46,2.07-.36.56-.78,1.08-1.18,1.62,1.04-.79,2.05-1.62,3.14-2.34-1,.87-2.03,1.71-3.09,2.53.05,0,.11-.01.16-.03.06-.02.11-.05.17-.06,1.3-.35,2.57-.77,3.91-.98.71-.11,1.4-.35,2.1-.54.6-.17,1.21-.28,1.82-.37.38-.06.76-.14,1.14-.21.08-.01.12-.07.17-.13.32-.39.64-.78.97-1.17.14-.17.25-.35.42-.49-.39.58-.86,1.11-1.26,1.71.24-.03.47-.06.69-.1.7-.14,1.42-.19,2.12-.31.83-.15,1.67-.25,2.51-.29.09,0,.16-.02.2-.1.19-.41.58-.65.86-.98.04-.04.08-.08.14-.1-.29.37-.66.68-.88,1.15,3.18-.39,6.17.4,9.23,1.18-1-1.03-2.16-1.73-3.39-2.34,1.48.64,2.83,1.48,3.92,2.7,0-.14-.1-.22-.15-.32-.39-.76-.89-1.47-1.26-2.24-.03-.06-.06-.08-.12-.09-.38-.02-.68-.22-.95-.46-.21-.17-.44-.31-.63-.51-.2-.22-.3-.48-.35-.76-.08-.43-.26-.84-.23-1.29.02-.24.04-.47.12-.7.02-.05.04-.11.11-.1.08.01.09.08.07.14-.11.61.05,1.2.13,1.8.09.62.45.97.93,1.26.07.04.13.09.2.14.3.2.64.16.98.17.65.01,1.21-.26,1.77-.57.31-.18.65-.31.97-.49.45-.25.8-.61,1.21-.91.52-.39,1.03-.79,1.49-1.25.04-.04.09-.06.13-.09.02-.02.08-.04.05-.07-.18-.13-.02-.23.02-.33.16-.34,0-.57-.34-.66-.98-.27-1.99-.07-2.97-.18-.57-.06-1.14-.1-1.71-.22-.14-.03-.27-.1-.39-.18.17-.03.3.07.45.09.72.1,1.45.17,2.18.19.69.03,1.39.08,2.08.12.18,0,.28-.15.45-.2-.35-.2-.69-.42-1.01-.64-.57-.41-1.19-.75-1.7-1.24-.55-.51-1.21-.84-1.95-.97-.53-.09-1.08-.11-1.58.16-.12.06-.18.13-.16.28.05.33.05.66.1.99.07.47-.1.92-.21,1.37-.15.61-.56.95-1.12,1.14-.22.07-.38.24-.5.43-.38.64-.95.88-1.66.9-.39.01-.75-.06-1.13-.19.27.54.48,1.09.6,1.71-.12-.07-.15-.15-.18-.24-.11-.39-.23-.78-.42-1.14-.13-.25-.29-.47-.53-.62-.22-.14-.34-.38-.51-.59-.11.28-.22.55-.33.82-.13.33-.27.66-.56.88-.54.43-1.14.65-1.85.54-.3-.05-.57-.16-.84-.29-.47-.22-.95-.3-1.47-.28-1.09.05-1.69-.55-1.93-1.58-.22-.95,0-1.85.26-2.75.06-.2.11-.4.22-.59.02-.03.05-.07.02-.11-.03-.04-.08-.01-.11,0-.34.08-.68.17-1.03.19-.67.04-1.33.04-1.97-.24-.31-.14-.51-.37-.67-.65-.27-.47-.39-.97-.35-1.51,0-.11,0-.22-.03-.32-.08-.23-.07-.45.03-.67.2-.43.19-.89.22-1.35.03-.37.03-.74.04-1.11.01-.46.29-.82.74-.96.13-.04.27-.07.47-.12-.4-.14-.66-.4-.98-.57-.18-.1-.32-.24-.47-.37-.48-.41-.94-.85-1.47-1.21-.41-.28-.7-.69-1.07-1.01-.47-.41-.78-.94-1.16-1.42-.28-.36-.57-.72-.85-1.08-.84-1.06-1.41-2.25-1.86-3.51-.13-.36-.39-.66-.57-1-.1-.18-.21-.36-.31-.55-.02-.03-.03-.06,0-.09.03-.03.06-.02.09,0,.1.08.17.19.32.22.11.02.19.16.27.26.34.42.83.61,1.29.85.63.33,1.33.5,1.97.79.61.28,1.25.49,1.85.79.8.39,1.65.68,2.38,1.2.23.16.52.21.77.36.78.46,1.6.84,2.36,1.33.42.27.83.55,1.16.96.17-.23.23-.5.35-.73.34-.68,1-.88,1.65-.7.24.07.48.07.72-.03.25-.1.51-.13.77-.15.18-.01.2-.09.21-.24.07-.69-.09-1.33-.34-1.96-.19-.48-.15-.96-.02-1.43.27-.98,1.01-1.59,2.02-1.66.44-.03.88.03,1.3.13.05.01.1.04.18,0-.08-.07-.15-.14-.22-.21-.45-.4-.89-.81-1.36-1.18-.26-.21-.57-.37-.87-.51-.47-.2-.87-.51-1.33-.73-.5-.24-.96-.54-1.47-.77-.53-.24-1.07-.49-1.6-.73-.5-.23-1.03-.38-1.56-.47-.4-.07-.79-.18-1.18-.3-.53-.16-1.08-.24-1.63-.32-.43-.06-.85-.21-1.29-.24-.49-.04-.97.03-1.46.05-.2,0-.41,0-.61,0-.11,0-.2-.04-.25-.14-.05-.11.03-.18.08-.26.06-.1.16-.16.26-.22.72-.44,1.38-.94,2.08-1.41.73-.49,1.54-.79,2.39-.97.94-.2,1.89-.34,2.85-.34,1.16,0,2.27.26,3.33.76.53.25,1.09.48,1.62.73.64.29,1.24.66,1.8,1.1.43.34.8.74,1.15,1.15.35.41.75.81.88,1.41.09-.23.05-.43.1-.62.13-.47.32-.89.65-1.26.24-.27.53-.3.85-.24.39.07.77.12,1.16.13.21,0,.4-.06.58-.16.42-.24.82-.14,1.21.07.06.03.11.08.18.09.64.08.85.62,1.13,1.07.02.04.02.09.05.13.53.81.53,1.72.53,2.63,0,.5-.05,1-.13,1.49,0,.03,0,.06,0,.12.21-.21.26-.49.41-.71.23-.36.49-.69.78-1,.24-.25.46-.52.74-.75.39-.32.82-.57,1.32-.68.19-.04.21-.1.17-.29-.16-.75-.28-1.5-.37-2.26-.05-.39-.14-.78-.18-1.18-.02-.23-.19-.39-.37-.51-.47-.32-.94-.62-1.39-1.01-.04.22-.22.22-.36.24-.73.07-1.47.12-2.2.1-.52-.02-1.04-.01-1.56,0-.42,0-.81-.11-1.22-.17-1.04-.16-1.97-.64-2.95-.97-.58-.2-1.09-.56-1.62-.86-.66-.38-1.29-.81-1.88-1.29-.2-.17-.33-.39-.47-.6-.25-.4-.61-.7-.91-1.05-.07-.08-.17-.15-.12-.26.04-.1.17-.1.27-.1,1.44,0,2.89,0,4.33.12,1.1.09,2.21.2,3.26.6.79.3,1.61.53,2.32,1,.71.46,1.43.91,2.03,1.53.32.33.69.6.97.97.07.1.15.19.19.31.03.09.1.17.18.24.37.33.76.63,1.16.91.04.03.08.05.14.08-.1-.59-.2-1.16-.3-1.73-.15-.9-.29-1.8-.45-2.69-.06-.34-.11-.68-.19-1.02-.07-.27-.29-.45-.45-.67-.63-.83-1.36-1.59-1.91-2.48-.15-.24-.29-.31-.56-.31-.74,0-1.48-.11-2.21-.27-.34-.08-.61-.29-.91-.44-.05-.02-.09-.06-.14-.07-.51-.18-.97-.46-1.45-.72-.41-.22-.87-.28-1.33-.35-.99-.15-1.98-.17-2.97-.13-.4.02-.8.09-1.21.12-1.18.1-2.31.4-3.44.73-.48.14-.94.37-1.42.55-.78.3-1.47.77-2.2,1.16-.68.37-1.3.82-1.95,1.24-.72.46-1.41.98-2.2,1.32-.64.28-1.29.52-1.97.68-.61.15-1.22.29-1.83.43-.51.12-1.02.05-1.53.04-.08,0-.12-.05-.14-.12-.02-.07,0-.13.05-.18.12-.11.24-.19.38-.27.86-.51,1.62-1.17,2.37-1.83.69-.61,1.42-1.19,2.04-1.88.56-.63,1.09-1.28,1.63-1.93.57-.69,1.16-1.38,1.83-1.97.38-.33.8-.62,1.23-.89.61-.38,1.23-.75,1.86-1.11.7-.41,1.46-.7,2.22-.98.58-.21,1.16-.42,1.76-.53.52-.1,1.05-.1,1.58-.1.73,0,1.46.02,2.18.12.51.07,1,.2,1.5.32.42.1.85.18,1.24.37,1.01.5,2,1.02,2.72,1.93.25.31.56.56.82.87.23.28.39.6.63.87.41.46.76.96,1.07,1.49.1.18.23.36.27.56.11.49.42.87.7,1.26.43.61.9,1.2,1.35,1.8.02.03.04.06.08.12.04-.16.02-.26,0-.36-.2-.71-.39-1.42-.62-2.12-.23-.7-.49-1.39-.81-2.05-.35-.75-.6-1.53-.92-2.29-.2-.46-.42-.92-.63-1.38-.29-.66-.55-1.33-.86-1.99-.21-.45-.4-.9-.62-1.34-.24-.48-.45-.98-.66-1.48-.29-.67-.59-1.33-.95-1.97-.13-.23-.24-.46-.37-.69-.06-.11-.13-.15-.24-.19-.5-.18-1.04-.22-1.55-.36-.59-.16-1.19-.23-1.8-.27-.17,0-.23.06-.24.22,0,.18-.02.35-.02.53-.02.58-.36,1-.75,1.39-.14.14-.23.28-.25.48-.05.6-.5,1.08-1.11,1.29-.39.13-.78.09-1.18.03-.4-.06-.79-.18-1.15-.37-.19-.1-.34-.27-.52-.4-.31-.23-.58-.49-.84-.78.1.39.26.75.29,1.15.12,1.63-1.28,2.81-2.51,2.99-.34.05-.68.1-1.03.08-.32-.02-.61-.11-.87-.29-.17-.12-.35-.16-.56-.13-.4.05-.71-.12-.96-.42-.1-.12-.16-.12-.27-.02-.37.34-.72.7-1.1,1.02-.54.46-1.08.92-1.67,1.31-.39.26-.78.53-1.18.78-.72.47-1.49.84-2.29,1.17-.53.22-1.07.43-1.62.58-.48.14-.96.29-1.41.51-.57.27-1.13.56-1.66.93-.33.22-.67.42-1.01.63-.05.03-.1.07-.14.01-.05-.07,0-.13.03-.19.15-.3.3-.6.46-.9.37-.69.74-1.36,1.1-2.05.34-.65.66-1.3,1.03-1.93.41-.69.96-1.25,1.54-1.79.36-.34.73-.66,1.13-.95.69-.5,1.44-.9,2.19-1.31.33-.18.66-.37,1-.54.58-.29,1.2-.48,1.81-.71.37-.14.74-.26,1.11-.38.06-.02.13-.05.17-.03.2.09.21-.05.26-.18.24-.72.57-1.4,1.02-2.02.18-.26.37-.51.58-.76-.08-.03-.12.03-.17.06-.57.34-1.18.6-1.77.9-.43.22-.9.37-1.39.42-.59.06-1.15-.07-1.7-.28-.74-.28-1.25-.77-1.5-1.53-.09-.27-.25-.53-.22-.83,0-.09.02-.17.04-.26.06-.22.04-.43-.04-.64-.03-.08-.07-.17,0-.25.36-.45.35-.99.38-1.52.04-.69.4-1.16,1.02-1.42.38-.16.79-.09,1.18-.06.95.06,1.81.4,2.64.85.7.38,1.4.77,2.11,1.2-.02-.17-.15-.23-.22-.33-.56-.86-.92-1.8-1.19-2.78-.19-.7-.32-1.39-.33-2.11-.01-.62.07-1.23.23-1.82.16-.59.79-1.09,1.4-1.12.08,0,.16,0,.24.03.38.13.74.15,1.13,0,.56-.2,1.07-.02,1.55.29.34.22.55.53.69.9.13.33.27.65.31,1.02.08.81.16,1.61.09,2.42-.02.29-.06.57-.08.86.11-.16.22-.32.33-.48.56-.84,1.3-1.49,2.26-1.83.99-.36,1.84.33,1.91,1.23.03.37.06.74.37,1.01.15.13.11.35.14.54.02.11.04.21.08.31.26.63.14,1.2-.32,1.71-.57.63-1.21,1.18-1.95,1.59,0,0-.01.02-.03.06.67-.17,1.33-.12,1.99-.15.73-.04,1.39.24,2.04.53.57.26,1.08.61,1.57.99.09.07.2.12.31.19,0-.14-.08-.24-.13-.34-.31-.63-.56-1.28-.86-1.92-.27-.59-.53-1.18-.83-1.76-.28-.54-.54-1.09-.84-1.61-.27-.49-.59-.95-.91-1.41-.4-.55-.82-1.09-1.3-1.57-.25-.25-.54-.46-.83-.68-.6-.46-1.22-.89-1.82-1.34-.66-.49-1.26-1.06-1.85-1.62-.31-.3-.55-.66-.82-1-.34-.44-.77-.81-1.12-1.25-.21-.26-.42-.51-.6-.79-.14-.21-.32-.36-.54-.45-.39-.16-.72-.39-1.06-.63-.65-.45-1.29-.91-1.94-1.36-.36-.25-.72-.5-1.08-.76-.6-.44-1.12-.98-1.68-1.46-.57-.49-1.15-.98-1.7-1.49-.54-.5-1.15-.91-1.69-1.41-.66-.61-1.37-1.18-2.04-1.78-.32-.29-.59-.63-.89-.94-.25-.25-.52-.49-.79-.73-.09-.08-.13-.16-.08-.27.04-.11.14-.11.24-.12.69-.07,1.34.12,1.99.27.56.12,1.12.25,1.67.4.27.07.52.18.79.25.65.17,1.25.47,1.86.72.28.11.49.33.75.49.37.22.73.46,1.03.77.36.38.77.71,1.07,1.15.24.36.59.64.85,1,.5.68,1.02,1.35,1.47,2.06.3.47.5.99.72,1.5.18.42.37.84.55,1.26.14.32.26.64.41.95.06.13.14.25.23.35.58.66,1.13,1.34,1.73,1.99.31.33.55.71.87,1.03.34.34.67.7,1.04,1.01.41.35.87.64,1.29.98.47.37.95.71,1.44,1.04.51.34.94.76,1.32,1.25.46.59.96,1.15,1.35,1.79.33.55.67,1.1.96,1.68.2.39.42.77.6,1.17.25.54.53,1.06.8,1.59.27.53.52,1.08.8,1.62.22.42.41.86.64,1.28.02.05.03.1.12.12,0-.21,0-.41,0-.61,0-.46.02-.92.03-1.38,0-.16-.09-.3-.15-.44-.34-.8-.61-1.62-.84-2.45-.27-.99-.54-2-.63-3.03-.06-.71-.09-1.42-.07-2.14.03-1.11.24-2.17.52-3.23.11-.41.25-.81.45-1.19.01-.02.03-.05.04-.07.02-.09.19-.09.14-.19-.05-.11-.12-.22-.21-.3-.56-.55-1.02-1.17-1.33-1.89-.12-.28-.28-.53-.43-.79.07.33.22.63.35.94.3.68.4,1.4.38,2.13-.01.48,0,.96-.13,1.43-.16.56-.37,1.09-.87,1.47-.31.24-.67.23-1.02.27-.43.04-.85-.02-1.26-.13-.22-.06-.45-.04-.66.02-.39.11-.75.1-1.03-.24-.06-.07-.15-.07-.24-.08-.63-.08-.78-.24-.83-.84-.09-1.02.12-2,.46-2.96.22-.63.49-1.22.84-1.79.05-.08.11-.15.19-.22-.17.33-.35.64-.5.98-.44.98-.77,1.98-.79,3.08,0,.35-.03.7.09,1.04.1.27.23.38.51.36.27-.01.48.09.67.27.08.08.18.09.28.06.52-.14,1.02-.1,1.54.04.42.11.89.13,1.31,0,.42-.12.71-.45.89-.86.19-.44.24-.9.26-1.38.03-.66-.02-1.31-.17-1.95-.1-.44-.3-.84-.47-1.25-.11-.25-.2-.5-.23-.77-.02-.2-.08-.36-.3-.43-.26-.09-.49-.06-.71.1-.04.03-.04.06-.05.1-.07.25-.17.28-.36.11-.1.44-.23.88-.32,1.33-.03-.14,0-.27.03-.4.1-.48.22-.96.28-1.45.03-.24-.03-.28-.27-.31-.28-.04-.48.1-.68.26-.56.46-1.15.89-1.75,1.3-.42.28-.82.59-1.23.88-.86.61-1.78,1.05-2.89.86-.53-.09-1-.31-1.37-.72-.24-.26-.36-.58-.26-.92.17-.58-.02-1.09-.2-1.61-.17-.52-.35-1.04-.19-1.6.22-.77.76-1.17,1.52-1.34.66-.15,1.31-.05,1.96-.01.51.03,1.02.09,1.53.18.56.1,1.12.18,1.66.36.44.14.88.25,1.35.26.06,0,.16,0,.16.08,0,.09-.09.11-.16.12-.31.04-.61.01-.91-.07-1.18-.33-2.39-.5-3.6-.62-.48-.05-.97-.1-1.45-.08-.49.02-.98.12-1.37.43-.56.43-.7,1.02-.49,1.69.07.22.16.45.24.67.2.52.37,1.04.2,1.61-.12.4.08.69.39.94.41.33.88.41,1.38.43.99.03,1.79-.44,2.55-.99.71-.51,1.42-1.04,2.13-1.54.36-.26.69-.56,1.03-.85.24-.2.3-.46.2-.71-.06-.15-.15-.2-.33-.19-.79.04-1.56.21-2.35.27,0,0-.02-.01-.07-.04.63-.09,1.21-.24,1.82-.29.14-.01.25-.02.33-.17.07-.14.25-.17.39-.25.15-.09.28-.19.33-.36.04-.15,0-.26-.17-.27-.16,0-.27-.04-.27-.25,0-.11-.13-.16-.22-.21-.54-.3-1.08-.58-1.6-.9-.33-.2-.62-.45-.95-.65-.26-.16-.51-.35-.76-.53-.49-.36-.95-.76-1.31-1.24-.2-.26-.31-.58-.4-.9-.12-.45-.18-.9-.13-1.36.06-.48.2-.93.64-1.21.05-.03.1-.08.16-.07.38,0,.72-.16,1.1-.16.24,0,.43-.13.58-.32.44-.55,1.39-.81,2.06-.59.16.05.34.04.5.1.41.13.76.35,1.06.67.35.38.66.78.89,1.24.3.61.44,1.27.64,1.92.21.68.3,1.39.33,2.09.02.52.04,1.05-.06,1.57-.03.15,0,.35-.25.35-.11-.38,0-.75.02-1.13.04-.79,0-1.56-.18-2.33-.1-.43-.23-.84-.36-1.26-.16-.54-.35-1.07-.65-1.54-.34-.51-.71-1.01-1.31-1.25-.19-.08-.39-.11-.59-.14-.73-.12-1.39-.01-1.93.55-.16.17-.35.32-.58.35-.31.05-.63.09-.94.11-.4.03-.64.25-.77.58-.24.57-.19,1.18-.04,1.75.14.5.39.97.81,1.33.32.28.65.54,1,.79.55.4,1.09.82,1.67,1.18.47.3.98.53,1.39.9.17.16.36.2.57.21.54.02.74-.17.75-.71,0-.22.02-.43-.04-.64h0c.09.04.07.18.16.2.24.03.3.23.35.4.11.34.34.55.68.65Zm12.14,73.16c.09.01.17.08.27.03-.15-.21-.29-.42-.07-.66.03-.03.02-.07-.01-.09-.09-.06-.09-.18-.16-.28-.06.16-.1.3-.15.44q-.12.34.14.56c-.18-.06-.24.08-.21.19.05.19.15.39.36.5.05-.15.08-.29.18-.4.07-.08.01-.1-.05-.13-.1-.04-.21-.07-.28-.16Zm-.52.28c0-.15-.07-.16-.17-.07-.09.07-.16.16-.25.23-.21.15-.2.19.03.3.02.01.05.03.07.04.1.11.14.03.16-.06.04-.16.06-.32.17-.45-.01.07-.01.15-.03.22-.04.16-.11.3-.13.47,0,.05-.02.16.08.1.22-.12.45-.15.73-.18-.15-.19-.27-.36-.36-.56-.09-.18-.14-.18-.29-.04Zm-11.61-72.51s-.02.07-.04.09c-.2.19-.09.42-.07.63,0,.06.05.08.1.08.23.01.46.06.68.11.09.02.13-.01.1-.11-.06-.24.03-.46.13-.66.04-.08.03-.1-.04-.15-.14-.1-.31-.17-.42-.31-.08-.1-.14-.06-.18.02-.07.12-.15.23-.27.3.05-.2.21-.35.32-.55-.5.03-.86-.2-1.17-.56-.06.14-.12.25-.19.35-.08.11-.21.15-.32.23.14.13.27.24.39.38.1.12.25.17.38.23.11.05.24.1.36.12.11.02.11-.14.2-.18.02,0,.03-.02.05-.03Zm5.07,55.04c-.1-.04-.19-.07-.14.11.03.09.04.19.03.28-.02.19-.08.36-.2.53.24.11.34.33.37.59.01.12,0,.25-.02.38-.01.07,0,.11.07.1.25-.04.41.09.56.25.08.09.13.06.21,0,.19-.14.4-.24.64-.2.15.03.17-.05.14-.13-.07-.23.05-.39.19-.54.04-.04.07-.07.01-.11-.19-.13-.22-.35-.27-.55,0-.04,0-.08-.04-.11-.09-.05-.41.11-.44.22-.06.21-.17.29-.32.24-.17-.06-.24-.2-.13-.39.08-.13.02-.18-.07-.24-.19-.15-.42-.24-.58-.43.22.09.42.23.62.36.23.15.47.37.79.2.06-.03.16-.02.17-.12,0-.09-.09-.08-.14-.12-.29-.17-.55-.37-.71-.72-.13.32-.38.4-.68.34-.01,0-.03.04-.04.06Zm-25.29-23.66c.5-.2,1.02-.36,1.51-.59.64-.3,1.25-.63,1.87-.98.38-.22.6-.55.78-.94.34-.73.64-1.48.91-2.24.08-.21.05-.43.11-.64.02-.07.03-.15.12-.14.08.02.06.1.04.17-.26.92-.61,1.81-1.03,2.67-.1.2-.2.41-.3.61.07,0,.11-.01.14-.04.51-.34.99-.72,1.48-1.09.61-.46,1.14-1.01,1.74-1.49.06-.05.07-.1.04-.17-.22-.39-.32-.83-.45-1.25-.03-.1-.06-.13-.17-.1-.7.19-1.35.46-1.97.82-.62.36-1.23.75-1.85,1.13-.23.14-.5.26-.66.49-.15.22-.25.48-.36.72-.23.5-.46,1.01-.75,1.48-.24.4-.44.82-.79,1.15-.14.14-.32.25-.42.43-.12-.05-.07-.1,0-.15.32-.22.56-.52.74-.84.35-.61.74-1.19,1.03-1.83.12-.26.25-.52.33-.82-1.3.6-5.95,4.9-6.34,5.88.28-.2.55-.35.77-.54.55-.48,1.2-.8,1.85-1.11.51-.24,1.07-.38,1.6-.57Zm10.74,27.37c.24.32.37.7.53,1.06.24.55.44,1.13.66,1.69.13.32.27.64.5.89.55.6,1.2,1.09,1.87,1.61-.14-.27-.29-.51-.4-.77-.33-.76-.7-1.51-.78-2.35-.04-.42-.1-.84-.03-1.27.04-.21.13-.43-.15-.55-.03-.01-.05-.06-.08-.09-.09-.14-.22-.26-.35-.36-.48-.35-.99-.65-1.52-.93-.59-.31-1.16-.65-1.76-.95-.31-.15-.63-.28-.9-.49-.17-.13-.37-.23-.57-.31-.3-.11-.58-.25-.86-.41-.4-.23-.84-.38-1.26-.55-.47-.2-.91-.48-1.4-.63-.3-.1-.61-.19-.88-.34-.47-.25-.98-.44-1.43-.73.03.09.09.14.15.2.24.2.48.41.7.64.39.39.73.83,1.19,1.16.38.27.76.53,1.12.82.35.28.67.59,1.05.81.68.4,1.29.88,1.86,1.42.17.16.36.29.61.41-.32-.72-.85-1.26-1.24-1.89.39.44.8.86,1.1,1.36.38.63.78,1.25,1.37,1.71.44.34.88.66,1.25,1.08.22.25.49.46.71.66,0,0,0-.03-.01-.07-.25-.82-.53-1.64-.9-2.42-.06-.13-.14-.27-.15-.42h0Zm8.74-9.39s.09.03.13.06c.23.16.4.38.59.58.33.34.69.67.98,1.05.42.55.91,1.03,1.4,1.51.15.15.3.28.44.44.08.09.13.23.26.29.02-.05,0-.08-.02-.1-.21-.36-.44-.71-.64-1.08-.27-.48-.55-.97-.67-1.53-.11-.48-.27-.94-.36-1.43-.1-.5-.22-.99-.59-1.38-.23-.25-.46-.5-.67-.75-.65-.77-1.47-1.29-2.36-1.73-.55-.27-1.13-.49-1.69-.74-.83-.38-1.68-.66-2.59-.73-.17-.01-.34-.07-.5-.06-.56.04-1.13.06-1.69.15-.11.02-.23.03-.35.1.37.25.62.61,1,.82.16.09.3.2.39.35.24.39.57.55,1.03.63.6.1,1.15.4,1.73.62.39.15.8.28,1.14.52.36.26.74.49,1.11.73.45.29.88.62,1.29.97.24.2.5.41.64.71-.06-.05-.11-.09-.17-.14-.22-.2-.4-.44-.65-.61-.52-.34-.98-.76-1.54-1.04-.19-.09-.28-.15-.37.06,0,0-.02,0-.03,0-.02-.03-.02-.06,0-.08.13-.14.04-.22-.07-.3-.28-.19-.56-.37-.88-.49-.93-.34-1.82-.79-2.81-.94-.19-.03-.29-.01-.38.15-.04.08-.09.16-.15.21-.06.05-.08.18-.23.15.14-.14.22-.29.33-.43.1-.13.07-.18-.09-.2-.65-.08-1.29-.2-1.95-.15-.17.01-.35-.04-.52-.01-.62.11-1.25.04-1.87.11-.76.09-1.45.31-2.11.75.28.02.51,0,.75-.03.59-.08,1.16.02,1.74.15.91.2,1.84.29,2.72.6.5.18,1.05.18,1.56.36.2.08.39.19.59.25.76.25,1.45.65,2.18.96.29.12.53.35.81.49.63.3,1.24.65,1.85,1,.26.15.51.3.74.49.5.41.98.83,1.47,1.25.14.12.33.18.42.34.07.13.17.17.29.21.09.03.18.07.26.11.56.28,1.12.57,1.64.92.32.22.64.42.94.66.2.16.4.33.67.42-.04-.13-.14-.17-.22-.22-.26-.18-.56-.33-.79-.56-.47-.46-.88-1-1.37-1.45-.41-.38-.8-.81-1.12-1.29-.3-.44-.76-.76-1.1-1.18-.16-.2-.33-.41-.67-.24.25-.05.23-.17.14-.31Zm6.62-41.92c.12-.07.2-.19.25-.31.12-.27.33-.45.58-.59.13-.07.24-.18.25-.33.03-.29.21-.49.38-.7.1-.12.21-.25.27-.4.12-.27.2-.56.3-.84.03-.09.05-.18.03-.28-.06-.29-.15-.58-.31-.83-.3-.5-.81-.72-1.32-.88-.47-.15-.96-.22-1.45-.26-.58-.05-1.16-.09-1.75-.1-.38,0-.76-.05-1.13-.12-.31-.06-.64-.09-.94-.2,0,.07.01.13.07.16.14.06.19.2.31.28.06.04.09.1.04.18-.04.07-.11.08-.18.05-.05-.02-.11-.03-.15-.06-.18-.14-.39-.14-.6-.11-.24.03-.3.14-.24.38.07.28.26.5.39.75.24.44.48.89.76,1.3.27.4.58.78.94,1.1.31.28.45.69.74.98.44.45.92.86,1.55,1.02.42.11.83.07,1.19-.22h0Zm0,45.75c.19.42.27.86.25,1.31,0,.11,0,.2.09.27.09.07.17.15.26.22.03.03.06.09.12.04.04-.04.07-.08.05-.14-.03-.1-.02-.19.03-.27.19-.31.31-.65.42-.99.39-1.19.7-2.39.65-3.65-.03-.66-.03-1.34-.43-1.92-.19-.28-.23-.64-.51-.88-.17-.16-.31-.33-.56-.33-.12,0-.22-.06-.32-.12-.29-.19-.58-.2-.88-.05-.33.17-.68.24-1.05.18-.27-.05-.28-.02-.23.26.02.12.05.24.07.36.06.39.18.77.27,1.16-.03-.02-.05-.05-.06-.08-.16-.52-.37-1.03-.45-1.57-.02-.12-.07-.16-.18-.18-.07-.01-.14-.05-.21-.06-.24-.03-.48-.11-.69.08-.39.34-.57.78-.63,1.27-.05.36-.02.73-.01,1.09.02.89.23,1.72.67,2.49.34.6.69,1.2,1.06,1.79.1.17.23.34.41.44.21.12.4.27.53.46.18.26.43.3.7.33.12.01.22-.01.29-.14.05-.09.12-.15.24-.16.17-.01.26-.16.24-.33-.04-.3-.07-.6-.11-.9h0Zm22.92,25.21c.05,0,.07.05.1.09.13.15.24.34.41.44.42.23.78.56,1.17.82.66.44,1.28.93,1.98,1.3.6.31,1.22.5,1.9.52,0-.02,0-.05-.02-.06-.35-.38-.56-.84-.78-1.29-.41-.83-.94-1.55-1.62-2.17-.47-.43-1.03-.71-1.59-.99-.79-.38-1.61-.65-2.47-.82-.82-.16-1.64-.23-2.47-.22-.59,0-1.19,0-1.77.08-.79.11-1.58.24-2.36.45-.75.2-1.49.43-2.17.81-.13.07-.14.16-.16.27-.05.28-.15.54-.38.73-.4.33-.81.65-1.31.84-.63.24-1.26.26-1.87-.08-.4-.22-.82-.4-1.09-.8-.03.03-.04.03-.05.04-.01.03-.02.06-.03.1-.12.89-.61,1.49-1.43,1.84-.19.08-.33.21-.42.39-.27.52-.46,1.08-.69,1.62-.04.1-.11.2-.08.36.16-.18.31-.33.44-.49.7-.89,1.49-1.69,2.37-2.4.24-.19.47-.41.76-.54.07-.03.18-.11.23-.01.04.07-.07.14-.14.16-.28.12-.51.31-.74.5-.47.39-.87.86-1.35,1.24-.03.02-.04.05-.07.08-.29.31-.56.65-.86.97-.19.19-.39.38-.54.65.31-.04.6-.09.88-.12,1.06-.13,2.11-.31,3.14-.61,1.04-.31,2.05-.67,3.07-1.03.76-.26,1.5-.57,2.25-.86.54-.21,1.07-.45,1.6-.68.52-.22,1.03-.43,1.55-.64.12-.05.12-.09.02-.16-.06-.04-.14-.08-.15-.18.11.03.19.08.23.15.07.13.16.11.27.07.49-.16.99-.27,1.5-.33.67-.08,1.34-.1,2.01.07.29.07.57.21.88.24-.01-.15-.19-.2-.19-.35h0Zm-24.29-66.25h0c-.02-.09.06-.1.12-.14.43-.31.92-.54,1.33-.88.25-.21.57-.33.79-.59.72-.8,1.44-1.59,2.16-2.39.72-.79,1.37-1.64,2.08-2.44.53-.6,1-1.25,1.49-1.89.44-.58.86-1.18,1.22-1.81.29-.5.57-1,.87-1.49.44-.72.83-1.47,1.16-2.25.36-.85.78-1.68,1.27-2.47.12-.2.23-.4.35-.62-.09.01-.14.03-.18.07-.8.76-1.71,1.35-2.63,1.95-.71.46-1.44.88-2.09,1.42-.06.05-.12.08-.19.11.42-.39.85-.76,1.33-1.07.88-.56,1.77-1.12,2.61-1.73.24-.17.46-.38.69-.57,0-.02-.02-.03-.02-.05-.55.17-1.13.19-1.68.34-1.36.37-2.66.88-3.92,1.53-.68.35-1.36.69-1.99,1.12-.76.51-1.42,1.14-2.03,1.83-.47.54-.83,1.14-1.22,1.76.41.05.76.21,1.1.39.53.26.82.72,1.02,1.25.14.36.13.71-.01,1.08-.18.45-.3.93-.66,1.28-.09.09-.14.2-.15.32-.03.31-.21.5-.48.62-.2.09-.34.25-.41.45-.04.13-.11.23-.21.32-.4.36-.87.53-1.4.41-.21-.05-.29.04-.36.18-.31.73-.75,1.4-1,2.16-.16.51-.3,1.02-.34,1.56,0,.12,0,.26-.1.37.03-.28-.02-.55.04-.83.17-.73.35-1.46.65-2.15.18-.41.41-.81.62-1.21.07-.13.06-.23-.1-.27-.15-.04-.3-.11-.42-.2-.41-.33-.84-.63-1.14-1.08-.06-.09-.12-.09-.17.02-.09.17-.19.35-.24.54-.15.55-.26,1.1-.39,1.65-.21.89-.27,1.8-.27,2.7,0,.85.09,1.7.28,2.53.19.81.39,1.62.62,2.41.06.2.15.39.23.59.09-1.02.22-2.02.19-3.03.08.24.05.49.07.74.07.78-.06,1.56-.04,2.34,0,.11-.13.12-.11.21.05.2.09.41.22.65.28-2.58,1.41-4.71,2.98-6.65-.09.04-.16.08-.23.13-.42.3-.88.52-1.33.75Zm30.4,10.72c.14-.2,0-.16-.08-.15-.49.09-.98.18-1.47.27-.85.14-1.66.44-2.46.72-.45.15-.88.34-1.33.5-.82.28-1.61.64-2.32,1.13-.62.42-1.19.9-1.76,1.4-.89.77-1.79,1.52-2.65,2.32-.57.52-1.11,1.07-1.7,1.56-.12.1-.2.23-.26.38-.05.15-.1.32-.24.42-.19.14-.26.27,0,.41.03.01.04.05.06.08.15.2.27.42.38.69.07-.24.21-.41.27-.6.06-.2.14-.39.25-.57.17-.25.35-.47.6-.65.38-.27,1.03-.29,1.41.19.04.05.07.05.12.03.07-.04.14-.08.21-.12.51-.33,1.02-.67,1.57-.95.21-.11.44-.23.49-.52.01-.08.08-.15.14-.25.05.17-.08.27-.05.42.06-.03.11-.05.16-.07.91-.49,1.81-.97,2.71-1.48,1.04-.59,2.04-1.26,3.07-1.88.39-.23.74-.51,1.12-.75.61-.4,1.31-.64,1.89-1.1.09-.07.19-.17.36-.15-.28.2-.54.38-.81.55-.47.31-1.01.51-1.47.85-.19.13-.36.28-.55.41-.39.27-.81.5-1.21.77-.88.61-1.79,1.15-2.72,1.68-.82.47-1.66.89-2.49,1.33-.77.41-1.52.87-2.28,1.31-.12.07-.1.11,0,.18.18.13.38.22.53.4.13.16.31.18.5.18.16,0,.33,0,.45.13.07.06.14.04.21,0,.52-.22,1.07-.39,1.6-.57.25-.09.5-.17.75-.25-1.08-.04-2.14,0-3.21-.05.03-.03.06-.04.09-.04.39.03.77,0,1.15-.02.51-.03,1.01.05,1.52,0,.61-.06,1.22-.12,1.81-.29.51-.14.98-.38,1.46-.6.36-.16.68-.38,1.01-.59-.43.03-.86.05-1.3.08,0-.02,0-.03,0-.05.29-.04.58-.07.87-.11.47-.06.93-.13,1.33-.44.29-.23.61-.43.91-.65.52-.38,1.05-.74,1.5-1.2.3-.3.62-.58.94-.87.21-.19.38-.42.61-.68-.31.05-.57.1-.82.13-.25.04-.49.08-.74.11-.25.03-.51.05-.76.07-.25.02-.5.02-.75.05-.25.03-.5-.02-.74-.04.26-.02.51-.04.77-.05.99-.05,1.96-.18,2.93-.36.13-.02.24-.08.32-.19.24-.33.49-.66.77-.97.59-.66,1.08-1.38,1.59-2.1.07-.1.18-.18.23-.31-.16,0-.31,0-.46.03-.84.15-1.69.19-2.51.43-.49.14-1.03.13-1.51.49Zm-43.86-5.08c.12-.14.26-.25.35-.4.29-.42.56-.85.75-1.34.35-.9.59-1.82.69-2.78.08-.81.02-1.62-.08-2.43-.06-.49-.24-.93-.51-1.33-.24-.36-.63-.52-1.05-.63-.27-.07-.51-.06-.76.06-.26.13-.56.15-.85.07-.68-.19-1.32.13-1.56.8-.26.73-.32,1.5-.27,2.26.07,1.15.39,2.24.94,3.26.23.43.46.85.74,1.25.16.23.3.47.44.7.03.05.08.11,0,.16-.07.05-.12,0-.17-.05-.13-.15-.25-.29-.45-.35-.33-.1-.6-.3-.9-.46-.53-.29-1.06-.58-1.61-.85-.34-.16-.69-.3-1.05-.43-.48-.17-.99-.22-1.49-.25-.39-.02-.77-.06-1.1.2-.38.3-.55.68-.54,1.16.02.51.04,1.02-.37,1.43-.04.04-.04.08-.02.13.09.23.12.47.05.7-.19.62.1,1.13.39,1.62.38.61,1.04.81,1.7.95.75.15,1.46-.02,2.14-.34.34-.16.63-.4.97-.55.68-.29,1.29-.68,1.84-1.17.07-.06.14-.11.23-.13.05-.01.14,0,.13-.09,0-.06-.05-.11-.12-.13-.08-.03-.16-.07-.26-.05-.13.03-.24.01-.27-.13-.03-.16.11-.16.21-.18.02,0,.04,0,.06-.01.29-.07.35-.16.35-.45,0-.2-.08-.32-.28-.36-.06-.01-.13-.03-.13-.1,0-.08.08-.11.14-.13.13-.04.24,0,.35.07.36.21.81-.04.81-.45,0-.53-.01-1.07-.01-1.6,0-.4,0-.8,0-1.2.05.02.05.05.06.07.09.76.13,1.52.15,2.28,0,.06-.02.13.02.18.18.17.23.39.23.63,0,.13.02.27.11.4Zm8.88,44.31c.09-.02.13-.07.17-.11.6-.58,1.31-.95,2.14-1.07.49-.07,1.24.24,1.32.9.01.12.03.24.06.36.07.35.16.71.43.96.34.31.57.68.68,1.12.01.04,0,.11.07.11.03,0,.06-.04.09-.07.36-.45.68-.92.89-1.46.37-.92.5-1.89.45-2.86-.04-.7,0-1.41-.09-2.1,0-.06-.03-.17.07-.18.08,0,.08.09.1.15.1.35.09.71.11,1.07.03.45.13.9.11,1.35-.01.27,0,.52.09.78.26.83.48,1.67.89,2.45.3.57.7.86,1.34.85.24,0,.49-.02.69-.19.18-.16.35-.31.54-.46.1-.08.21-.18.36-.16.68.05,1.2-.32,1.73-.64.43-.27.67-.73.95-1.14.07-.1.11-.2.1-.32-.03-.55-.18-1.07-.44-1.55-.17-.32-.42-.58-.69-.82-.57-.52-1.14-1.05-1.83-1.42-.5-.26-.98-.56-1.52-.74-.42-.14-.84-.28-1.26-.42-.04-.01-.06,0-.09,0-.26.13-.41.31-.36.62.04.26-.11.38-.35.3-.23-.07-.42.01-.59.13-.24.17-.36.16-.54-.09-.08-.11-.16-.23-.31-.23-.18,0-.36,0-.54.08-.53.24-1.06.47-1.59.71-.81.37-1.56.83-2.22,1.43-.8.71-1.01,1.64-.96,2.68Zm-.86-28.88c.47,0,.92.1,1.38.14.5.04,1,.1,1.46.3.55.24,1.1.49,1.62.79.83.47,1.71.66,2.65.71.24.01.48.05.72.07.05,0,.11.06.15,0,.04-.07-.04-.1-.08-.14-.42-.33-.86-.65-1.26-1.01-.51-.45-1.05-.86-1.52-1.36-.43-.45-.97-.79-1.48-1.15-.37-.26-.79-.4-1.19-.6-.31-.16-.63-.31-.96-.44-1.16-.43-2.36-.6-3.6-.51-.85.06-1.67.26-2.47.5-.8.25-1.55.63-2.3.99-.65.32-1.25.71-1.86,1.1-.43.28-.87.54-1.27.87-.5.41-.99.84-1.51,1.22-.69.5-1.32,1.06-1.98,1.6-.42.34-.83.68-1.25,1.03-.37.31-.78.57-1.2.83-.64.39-1.27.79-1.97,1.07-.2.08-.43.11-.62.28.21.02.4.04.58,0,.71-.16,1.42-.33,2.13-.5.53-.13,1.04-.34,1.55-.54.83-.33,1.57-.82,2.3-1.31.51-.35,1.02-.68,1.53-1.02.38-.25.79-.45,1.17-.68.91-.55,1.88-.99,2.88-1.33.98-.32,1.98-.56,3.01-.7.77-.1,1.54-.24,2.32-.2.76.04,1.39-.22,2.01-.59.11-.07.18-.19.35-.21-.37.39-.86.53-1.28.78Zm32.51,12.57s-.02-.02-.02-.03c-.21.14-.43.27-.63.42-.57.43-1.17.83-1.78,1.2-.68.41-1.27.96-1.97,1.35-.26.15-.46.38-.7.54-.85.57-1.65,1.21-2.47,1.82-.86.64-1.66,1.35-2.46,2.05-.67.59-1.25,1.26-1.84,1.92-.57.63-1.1,1.29-1.62,1.96-.29.38-.6.76-.87,1.16-.35.53-.72,1.04-1.1,1.55-.37.5-.77.99-1.15,1.49-.08.11-.2.21-.23.35,2.41-1.38,4.93-2.54,7.19-4.16-.29.13-.6.21-.91.26-.3.05-.61.11-.91.15-.3.04-.61.06-.91.1,0-.02,0-.03,0-.05.03,0,.06,0,.1-.01.52-.07,1.05-.1,1.56-.22.94-.22,1.79-.65,2.55-1.26.6-.47,1.17-.98,1.74-1.48.12-.1.26-.2.35-.41-.65.29-1.31.41-1.95.6-.68.2-1.68.23-1.97.09.53.03,1.04-.02,1.55-.11.66-.12,1.28-.36,1.93-.53.41-.11.79-.27,1.08-.6.43-.5.87-.99,1.29-1.51.87-1.08,1.63-2.24,2.32-3.44.46-.8.87-1.63,1.37-2.41.16-.25.31-.52.46-.77Zm-14.31,11.98c.07-.08.13-.14.18-.2.39-.49.77-.99,1.17-1.48.4-.5.85-.96,1.27-1.45.8-.93,1.74-1.71,2.63-2.54.31-.29.65-.54.99-.8.82-.62,1.65-1.24,2.48-1.84.27-.19.51-.44.79-.59.79-.45,1.48-1.05,2.26-1.52.88-.53,1.71-1.14,2.56-1.73.08-.06.19-.09.24-.22-.5.2-.97.39-1.45.57-1.17.45-2.37.82-3.56,1.21-.66.22-1.31.5-1.89.86-.79.5-1.62.93-2.41,1.45-.67.44-1.36.85-2.03,1.3-.72.49-1.38,1.06-1.99,1.68-.42.43-.83.86-1.18,1.34-.44.61-.82,1.26-1.2,1.92-.59,1.01-1.08,2.06-1.3,3.21-.07.39-.22.76-.25,1.16-.03.36-.04.71-.1,1.07-.03.15-.09.33,0,.49.06,0,.08-.04.1-.07.3-.42.6-.85.91-1.26.54-.72,1.03-1.48,1.56-2.21.13-.18.15-.37.12-.57-.06-.38.03-.76,0-1.15,0-.02.02-.04.05-.1.08.5-.04.97.06,1.46Zm-4.61,13.89c.13-.1.16-.21.2-.3.18-.42.48-.77.64-1.19.12-.33.18-.68.26-1.02.16-.75.2-1.5.13-2.25-.13-1.36-.64-2.6-1.22-3.81-.04-.08-.07-.12-.16-.04-.34.32-.79.46-1.19.68-.15.08-.33.16-.5.14-.37-.06-.61.13-.85.36-.02.02-.04.04-.06.06-.17.13-.32.31-.54.34-.71.11-1.38.1-1.85-.58-.04-.06-.1-.11-.16-.17-.14.52-.22,1.02-.19,1.54.03.62.26,1.21.42,1.81.1.38.21.75.44,1.08.19.26.37.53.57.78.29.36.53.75.8,1.12.32.43.76.73,1.11,1.12.05.06.09.14.19.15.01-.05.04-.11.04-.16,0-.08-.02-.16-.03-.24-.05-.39-.05-.39.3-.25.12.05.24.11.22-.13.03.15.11.19.24.18.3-.02.48-.27.75-.34.04,0,.02-.06.01-.09-.05-.43-.07-.86-.15-1.28-.02-.12-.04-.24-.05-.36,0-.12-.08-.23,0-.4.13.7.29,1.35.35,2.02.01.11.02.21-.09.29.17.07.16.07.13.25-.03.17-.09.37.13.46.13.05.16.12.11.28Zm5.61-41s.03,0,.04,0c.13.46.28.91.39,1.38.04.15.09.15.2.1.48-.19.9-.48,1.33-.76.08-.05.18-.1.24-.19.5-.76.58-1.59.37-2.46-.08-.33-.25-.6-.43-.86-.28-.39-.58-.77-1.02-1.02-.27-.15-.53-.32-.77-.52-.36-.28-.75-.51-1.18-.66-.29-.1-.6-.15-.89-.26-.08-.03-.18-.06-.25,0-.11.11-.24.22-.31.37-.07.15-.15.31.04.44.05.04.08.1.04.16-.05.07-.12.07-.18.03-.11-.06-.22-.13-.33-.19-.19-.1-.59-.03-.67.16-.12.3-.33.56-.39.89-.11.58-.13,1.16-.22,1.74-.11.74-.18,1.48-.08,2.22.09.64.33,1.22.96,1.53.32.16.67.25,1.04.18.59-.1,1.2-.15,1.7-.52.19-.14.38-.25.63-.24.11,0,.16-.02.11-.15-.11-.33-.17-.68-.3-1.01-.05-.12-.05-.26-.07-.39Zm-19.62,21.66c-.14,0-.28,0-.42.03-.13.02-.25.06-.36.12-1,.46-1.19.96-1.26,1.91-.03.44.17.83.31,1.23.11.32.22.63.2.96-.03.36-.06.71.12,1.05.21.4.43.76.94.83.47.06.94.12,1.43.1.81-.04,1.58-.22,2.33-.5.6-.22,1.21-.41,1.78-.7.3-.16.63-.29.94-.43.13-.06.22-.15.23-.3.02-.3-.15-.47-.46-.41-.09.02-.17.02-.22-.05-.03-.04,0-.14.05-.16.24-.08.29-.33.46-.47.15-.11.06-.46-.12-.52-.29-.09-.57-.2-.84-.36-.15-.09-.26-.21-.38-.32-.32-.27-.67-.48-1.01-.7-.5-.31-1.01-.63-1.56-.85-.24-.1-.5-.15-.75-.23-.45-.15-.91-.24-1.39-.24Zm-3.19,15.91c-.25,0-.25,0-.16-.23.04-.09.03-.18,0-.29-.21.17-.37.36-.58.5-.28.2-.55.41-.84.61-.49.34-.94.73-1.55.84-.09.02-.11.08-.15.15-.15.27-.21.57-.28.86-.19.77-.3,1.54-.16,2.33.06.33.17.65.36.92.3.42.74.57,1.24.55.58-.03,1.16,0,1.67.3.54.3,1.09.38,1.67.21.27-.08.52-.21.71-.41.4-.42.59-.95.76-1.48.16-.48.16-.98.13-1.48-.03-.48-.16-.93-.36-1.36-.36-.79-.71-1.6-1.32-2.3,0,.08,0,.11,0,.14,0,.09,0,.18-.11.22-.11.04-.18,0-.25-.09-.04-.05-.08-.09-.13-.13-.17-.14-.46-.07-.52.14-.1.32-.22.64-.25.98,0,.04,0,.1-.07.13,0-.38.12-.73.18-1.09Zm4.71-.18c.95-.03,1.86-.22,2.74-.57.57-.23,1.07-.55,1.38-1.1.1-.18.19-.37.21-.58.05-.48-.04-.94-.13-1.41-.08-.4-.3-.7-.59-.96-.08-.07-.15-.15-.2-.25-.21-.38-.32-.79-.33-1.22,0-.52-.47-.74-.81-.72-.85.05-1.55.45-2.15,1.02-.7.68-1.36,1.41-1.94,2.2-.43.59-.94,1.1-1.57,1.46-.08.05-.11.08-.04.16.06.07.02.14,0,.21-.12.37-.01.66.33.83.17.08.33.17.49.26.46.25.97.37,1.47.5.37.1.75.19,1.14.16Zm29.09,5.89c-.03-.1-.08-.13-.15-.16-.39-.18-.78-.39-1.19-.52-1.01-.33-2.06-.43-3.12-.28-.31.04-.62.07-.92.12-.04,0-.12,0-.1.08.02.11-.07.14-.14.17-.26.1-.51.2-.75.34-.27.16-.55.31-.76.55-.14.16-.24.35-.35.54-.25.45-.56.87-.95,1.22-.05.05-.11.08-.17.12,0-.04.02-.07.05-.09.44-.42.8-.91,1.07-1.45.18-.35.47-.58.79-.78.34-.21.66-.45,1.01-.64-.41.09-.83.15-1.22.3-.76.28-1.5.6-2.17,1.07-.22.16-.41.32-.37.63.01.09-.05.19-.07.29-.09.49-.22.96-.61,1.31-.17.15-.15.35-.12.55.18-.1.33-.2.5-.27,1.16-.49,2.36-.81,3.6-.99,1.11-.16,2.23-.16,3.35-.1,1.08.05,2.13.27,3.14.65.24.09.47.26.8.11-.06.09-.16.05-.15.15.06.03.11.06.18.09.59.25,1.14.56,1.62,1.01.44.41.85.85,1.17,1.36.31.5.59,1.03.87,1.55.16.3.3.61.69.68.09.02.15.15.28.1-.24-.35-.48-.68-.71-1.02-.3-.44-.54-.91-.75-1.38-.3-.67-.54-1.37-.95-1.98-.26-.39-.47-.82-.79-1.18-.43-.49-.86-.99-1.38-1.39-.41-.32-.81-.71-1.4-.64-.01,0-.03,0-.04,0-.45-.07-.89,0-1.32.15-.61.21-1.1.61-1.6,1.01-.27.21-.55.39-.86.54.43-.32.85-.66,1.27-.99.66-.53,1.4-.87,2.27-.81.15,0,.29,0,.45,0Zm-33.31-35.01c.04.05.07.12.11.16.32.33.6.69.87,1.06.14.2.29.39.48.54.28.22.6.4.88.61.52.38,1.08.69,1.64.99.47.25.97.44,1.47.62.63.22,1.23.53,1.9.62.44.06.87.19,1.32.21.4.02.81-.03,1.21,0,.88.06,1.76,0,2.63-.08.11-.01.3.05.31-.1.01-.13-.17-.14-.28-.18-.38-.14-.78-.22-1.16-.37-.55-.22-1.1-.42-1.67-.58-.47-.14-.94-.25-1.4-.4-.33-.11-.33-.11-.56.15-.2.23-.45.4-.74.52,0-.07.04-.09.07-.11.26-.13.48-.33.67-.55.04-.04.09-.07.08-.13-.02-.06-.08-.06-.13-.07-.06-.02-.14-.02-.19-.08.08-.04.17.05.22-.02.05-.06-.06-.11-.05-.22.13.2.26.32.47.38.77.21,1.54.44,2.3.67.42.13.84.29,1.26.45.34.13.7.22,1.1.34-.14-.24-.25-.45-.43-.6-.56-.51-1.09-1.06-1.72-1.49-.62-.42-1.23-.83-1.93-1.1-.94-.37-1.87-.77-2.89-.89-.72-.08-1.43-.22-2.15-.26-.77-.04-1.55-.06-2.32-.08-.45-.01-.91,0-1.38,0Zm-5.63,30.78c.57.03,1.09-.13,1.63-.28.31-.08.64-.12.91-.31.55-.38,1.09-.77,1.64-1.15.2-.14.36-.32.54-.48.04-.03.14-.02.1-.11-.02-.06-.08-.11-.16-.11-.1,0-.2.01-.3.04-.14.04-.24-.06-.3-.14-.07-.09.05-.15.12-.2.06-.05.13-.1.19-.15.2-.19.18-.42-.05-.58-.03-.02-.06-.03-.09-.05-.07-.05-.12-.12-.1-.2.02-.09.1-.1.17-.11.13-.02.27-.03.4-.05.08-.01.12-.05.04-.11-.13-.11-.26-.21-.4-.31-.27-.18-.55-.34-.81-.52-.45-.32-.93-.6-1.43-.83-.66-.3-1.35-.52-2.08-.58-.38-.03-.76-.13-1.15-.05-.31.06-.62.17-.71.51-.06.23-.07.48-.07.72,0,.74.02,1.49-.32,2.18-.04.07-.04.16-.01.24.08.25.1.51.08.76-.04.51.16.94.44,1.33.07.1.16.18.26.25.44.29.95.28,1.44.31Zm-.7-48.4c0-.07-.02-.1-.02-.13.07-.36.14-.72.21-1.07.01-.06.11-.13.01-.2-.08-.06-.17-.04-.25,0-.13.06-.24.15-.39.14-.03,0-.06.05-.09.07-.41.44-.77.92-1.06,1.45-.48.83-.83,1.71-.96,2.67-.13.92.13,1.73.64,2.48.19.28.45.38.79.35.22-.02.46-.04.64.11.27.22.57.31.92.32.53.01,1.06-.05,1.53-.29.52-.26.96-.63,1.26-1.15.22-.38.39-.8.32-1.25-.12-.87-.48-1.65-.91-2.4-.1-.18-.18-.38-.29-.55-.23-.37-.49-.73-.72-1.09-.07-.11-.15-.22-.13-.35.03-.2-.05-.23-.22-.17-.06.02-.13.02-.2.05-.13.05-.29.07-.2.28.02.05-.02.12-.03.18-.02.09-.03.2-.15.18-.1-.02-.12-.11-.09-.21.04-.17,0-.34-.09-.49-.02-.03-.04-.08-.08-.08-.05,0-.06.06-.07.09-.07.23-.12.46-.19.68-.04.12-.03.27-.17.4Zm17.15,33.81c.06.06.15-.02.19.07.04.1.08.08.14.02.49-.42,1.04-.76,1.6-1.09.15-.09.31-.18.46-.27.01.02.02.03.03.05-.3.18-.57.4-.86.6-.41.28-.83.55-1.22.87-.19.15-.21.52-.05.69.03.03.06.06.1.03.27-.18.57-.1.85-.09.59.03,1.19.02,1.78,0,.63-.03,1.24-.17,1.85-.31.58-.14,1.11-.36,1.49-.84.15-.18.26-.4.39-.59.28-.43.44-.87.25-1.39-.06-.15-.05-.33-.18-.45-.2-.2-.33-.44-.49-.67-.1-.14-.16-.34-.44-.15q.15-.18.05-.32c-.14-.2-.23-.43-.24-.68-.02-.4-.13-.77-.29-1.13-.11-.26-.32-.39-.61-.39-.8,0-1.46.35-2,.89-.54.54-1.08,1.09-1.44,1.79-.13.25-.35.45-.42.73-.22.91-.5,1.8-.95,2.63Zm-11.84,3.29c-.1-.16-.14-.34-.11-.52.02-.15-.05-.18-.16-.18-.37,0-.68.11-.89.43-.24.35-.41.73-.53,1.13-.24.77-.12,1.54.08,2.3.12.45.33.87.51,1.3.23.54.49,1.05.89,1.48.27.29.54.59.7.96.02.04.02.08.07.08.05,0,.06-.05.07-.09.03-.15.09-.28.2-.38.04-.03.06-.08.11-.06.06.03.04.08.04.12-.02.19,0,.38.06.56.06.2.2.32.4.35.08.01.15,0,.2-.1.07-.14.15-.27.24-.4.4-.6.91-1.12,1.18-1.81.26-.67.53-1.33.62-2.04.12-.89.01-1.76-.28-2.62-.05-.15-.11-.21-.27-.24-.39-.07-.72-.22-.88-.63-.03-.09-.1-.16-.14-.25-.07-.13-.18-.19-.33-.18-.29.03-.58.04-.86.13-.26.09-.53.1-.79,0-.15-.06-.18.02-.17.14.01.16.03.32.04.48Zm16.21-14.06c.06-.03.05-.06.06-.1.14-1.09.53-2.1,1.05-3.07.15-.27.3-.54.46-.81.23-.37.46-.75.71-1.11.44-.63.95-1.19,1.48-1.74.24-.25.23-.25-.04-.47-.36-.28-.61-.64-.78-1.06-.18-.45-.24-.93-.29-1.4-.04-.36-.07-.73.15-1.06.18-.27.35-.54.54-.81.07-.1.07-.16,0-.26-.2-.3-.36-.62-.42-.98-.12-.66-.08-1.32-.03-1.98.02-.18.09-.36.06-.55-.07.04-.09.11-.11.16-.24.61-.58,1.17-.9,1.73-.46.81-.96,1.61-1.35,2.46-.25.57-.55,1.11-.77,1.69-.35.9-.61,1.83-.87,2.75-.03.11-.04.21-.01.32.13.66.26,1.32.37,1.99.17,1,.38,1.99.49,3,.05.43.12.85.21,1.27Zm8.71,25.43c0-.2,0-.39,0-.59,0-.21-.1-.38-.18-.55-.09-.19-.21-.38-.32-.57-.36-.68-.73-1.36-1.16-1.99-.06-.09-.12-.16-.21-.21-.54-.27-1.08-.28-1.61,0-.45.23-.81.57-1.11.99-.51.71-.88,1.48-1.08,2.33-.25,1.04-.59,2.03-1.33,2.85-.06.06-.09.11-.02.19.06.06.07.16.19.12.06-.02.13-.02.2-.02.95,0,1.91-.01,2.86.01.81.02,1.62-.03,2.43-.07.56-.02.91-.31,1.11-.85.2-.53.25-1.07.23-1.63Zm-.12-44.4c.38-.03.97-.06,1.55-.15.58-.08,1.13-.23,1.65-.51.42-.23.69-.55.79-1.02.02-.12,0-.22-.06-.33-.15-.26-.3-.53-.37-.83-.08-.32-.11-.67-.38-.92-.25-.23-.34-.53-.41-.84-.09-.41-.11-.83-.29-1.22-.15-.32-.35-.6-.71-.69-.27-.07-.55-.02-.8.11-.27.13-.53.27-.76.46-.21.16-.44.3-.63.48-.79.74-1.46,1.58-2.1,2.46-.29.4-.52.84-.87,1.19-.12.12-.22.25-.34.38-.03.03-.07.06-.03.1.02.02.06.02.09.02.08,0,.13-.06.2-.09.08-.04.2-.11.27,0,.08.14-.07.16-.15.21-.07.04-.15.05-.18.15-.06.2-.06.4,0,.6.04.11.09.19.24.15.11-.03.21.02.31.06.36.13.73.22,1.12.27.55.06,1.09,0,1.84-.03Zm-6.21,47.22s0,0,0-.01c-.08,0-.16,0-.24,0-.08,0-.16,0-.24-.01-.27-.02-.46.13-.4.4.05.21.07.43.18.62.36.67.79,1.3,1.01,2.04.18.63.4,1.25.43,1.91.02.32.12.55.36.77.24.21.52.36.8.51.48.27.98.3,1.51.16.35-.09.63-.27.92-.46.51-.32.84-.74.86-1.38,0-.21.03-.45.2-.6.25-.23.36-.53.45-.84.15-.51.23-1.03.09-1.56-.12-.44-.21-.89-.61-1.18-.07-.05-.14-.14-.14-.22,0-.18-.11-.14-.22-.14-.75.02-1.5.05-2.24.04-.9,0-1.81-.04-2.71-.06Zm4.9-37.89s-.05-.03-.07-.06c-.27-.5-.56-.98-.76-1.52-.03-.08-.05-.15-.17-.12-.22.06-.45.09-.67.14-.65.15-1.27.09-1.84-.29-.09-.06-.14-.06-.19.03-.13.21-.26.43-.4.63-.2.29-.29.6-.21.95.06.25.09.5.14.75.08.39.16.79.41,1.11.46.6,1.07,1.03,1.71,1.4.56.33,1.15.63,1.78.82.34.1.68.2,1.02.3.02-.02.03-.04.05-.05-.66-.84-1.37-1.64-2.05-2.47.26.3.61.51.83.85.3.45.78.74,1.06,1.21,0,.02.03.03.04.04.13.12.28.23.33.43.02.09.11.14.21.08.07-.05-.03-.49-.12-.53-.1-.04-.18-.09-.16-.2.02-.13.14-.09.23-.1.58-.03.73-.16.79-.71,0-.05,0-.1.06-.12.14-.05.11-.18.11-.28,0-.3-.03-.61-.04-.91-.05-1.02.12-2.01.41-2.97.04-.12.04-.24.02-.38-.05-.3-.22-.53-.39-.77-.21-.3-.27-.3-.58-.11-.37.23-.73.52-1.18.55-.32.02-.56.12-.78.31-.06.05-.13.1-.21.13-.17.06-.15.17-.09.3.25.48.42.99.72,1.45.02.03.04.06.01.1Zm-26.9-14.26c.12.24.21.46.34.65.33.5.6,1.03.89,1.56.08.16.11.36.26.47.15.1.27.23.38.36.33.36.72.65,1.12.92.55.37,1.18.51,1.85.46.64-.05,1.2-.45,1.3-1.09.04-.32.21-.52.45-.71.29-.23.52-.53.59-.89.06-.3.06-.62.06-.93,0-.33-.06-.64-.29-.92-.22-.26-.4-.54-.71-.69-.07-.04-.14-.08-.21-.13-.63-.51-1.35-.75-2.15-.78-.3-.01-.62-.07-.9,0-.75.19-1.5.26-2.27.26-.14,0-.28.03-.45.04.08.1.15.15.24.14.08,0,.15.01.16.11,0,.1-.07.11-.14.14-.5.19-.54.47-.3.83.06.09.09.18.02.26-.07.08-.15,0-.25-.04Zm17.58-.39c-.18-.03-.29-.16-.41-.27-.1-.08-.15-.08-.22.03-.15.24-.32.46-.48.7-.09.14-.22.21-.37.27-.35.12-.56.42-.55.78,0,.44.04.88.19,1.29.09.25.22.48.45.65.41.3.88.46,1.34.62.87.3,1.79.4,2.71.47.56.05,1.13.01,1.69.11.04,0,.12.03.12-.03,0-.13.08-.06.12-.05.06.02.12.06.18.09.09.03.22.1.26.03.06-.1-.05-.21-.12-.3-.03-.03-.1-.02-.15-.04-.15-.03-.22-.14-.15-.27.06-.12.01-.16-.06-.21-.11-.08-.23-.14-.31-.26.15.08.3.17.44.27.14.1.34.07.52-.06.15-.11.08-.22.03-.34-.13-.29-.27-.57-.41-.86-.3-.63-.52-1.29-.86-1.9-.43-.75-.85-1.5-1.47-2.12-.57-.57-1.41-.76-2.02-.06-.18.21-.36.42-.63.52-.14.05-.23.18-.3.32-.04.09-.04.16.05.23.15.11.29.24.43.36Zm16.11,24.29c0-.27-.03-.51-.08-.74-.09-.37-.29-.7-.44-1.04-.06-.14-.14-.32-.32-.38-.84-.28-1.57-.78-2.32-1.22-.2-.12-.36-.29-.51-.46-.05-.06-.06-.19-.15-.17-.09.02-.12.13-.15.23,0,.04-.01.08-.02.12-.05.16-.14.18-.28.09-.1-.07-.16-.19-.29-.2-.22,0-.43.08-.62.17-.11.06-.12.22-.16.34-.04.13-.09.26-.14.38-.37.95-.61,1.92-.56,2.96.03.64.07,1.28.26,1.9.13.41.37.73.84.8.49.07.98.08,1.47.09.62,0,1.19-.24,1.78-.38.29-.07.49-.24.61-.51.06-.14.16-.23.3-.27.13-.04.24-.14.31-.25.31-.45.51-.93.46-1.46Zm-5.89-5.01c-.54.02-1.07.05-1.6.05-.95,0-1.9.03-2.84.24-.81.18-1.39.63-1.66,1.41-.17.5-.2,1.03-.02,1.55.17.47.38.89.84,1.14.13.07.23.2.28.36.04.14.11.28.24.33.23.1.39.28.52.46.22.29.5.43.84.5.99.19,1.83-.12,2.55-.77.16-.15.36-.33.37-.58.02-.53.11-1.05.23-1.56.17-.72.44-1.42.72-2.1.08-.19-.02-.55-.2-.59-.14-.03-.23-.17-.39-.12-.05.01-.09-.05-.11-.1-.01-.06.03-.09.07-.11.05-.03.11-.05.15-.11Zm2.36.8c.13.23.3.38.49.5.38.24.76.48,1.15.71.86.51,1.77.9,2.79.95.53.03,1.06,0,1.58-.19.61-.23,1.05-.83.92-1.53-.07-.41-.03-.82.09-1.22.09-.28.14-.53-.03-.81-.09-.16-.15-.18-.3-.14-.33.09-.66.13-1.01.07.02-.07.07-.06.11-.06.31,0,.6-.06.91-.1.18-.03.27-.1.26-.29,0-.11.04-.23.04-.34.03-.58-.26-1.04-.8-1.18-.65-.17-1.29-.09-1.91.14-.63.23-1.25.51-1.84.84-.74.41-1.48.84-2.26,1.18-.06.02-.11.05-.15.1-.19.28-.12.77.15.99.08.07.12.14.09.25-.03.1-.11.1-.19.11-.03,0-.05,0-.1.02Zm-6.38-17.71c.08.07.05.14.05.2-.04.35.04.7-.02,1.05,0,.05.02.11.07.13.06.03.08-.03.11-.07.27-.39.59-.76.84-1.17.48-.77.99-1.51,1.32-2.37.27-.7.52-1.4.45-2.16-.04-.43-.06-.86-.28-1.25-.17-.31-.4-.57-.63-.84-.05-.05-.11-.12-.19-.09-.08.03-.05.12-.06.18-.05.34-.07.68-.07,1.03,0,.04,0,.09-.07.13,0-.43-.02-.85.04-1.26.01-.1.04-.21-.1-.25-.16-.04-.32-.11-.5-.09-.48.07-.89-.1-1.27-.36-.35-.23-.72-.22-1.09-.1-.41.13-.56.49-.63.85-.2,1.03-.21,2.06.03,3.09.18.77.58,1.47.75,2.24,0,.04.06.08.07.12.16.4.39.77.46,1.21.01.08.04.12.11.15.17.08.28.19.32.39.02.12.05.26.18.38-.02-.4.04-.77.11-1.14Zm-8.37,12.4c-.07-.28-.21-.49-.35-.7-.26-.38-.45-.82-.78-1.15-.54-.54-.93-1.2-1.44-1.77-.69-.76-1.49-1.36-2.37-1.86-.41-.23-.86-.35-1.3-.49-.65-.2-1.31-.34-1.98-.43-.9-.12-1.8-.12-2.71-.09-.55.02-1.09.11-1.61.28-1.17.38-2.3.86-3.38,1.47-1.32.74-2.58,1.56-3.62,2.67-.11.11-.22.23-.3.39.49-.22.95-.43,1.42-.63.59-.25,1.21-.36,1.86-.37.22,0,.46.03.65-.11.53-.36,1.11-.63,1.69-.91,1.05-.52,2.14-.92,3.3-1.12.74-.13,1.47-.19,2.21-.14,1.06.08,2.07.37,3.04.81.1.05.22.16.31.1.08-.05,0-.2-.01-.3,0,0,.02-.01.03-.02.02.08.05.15.05.22,0,.15.07.22.21.28.73.31,1.4.74,2,1.25.67.57,1.3,1.2,1.98,1.75.36.29.7.61,1.12.86Zm7.05-9.61c-.43.04-.81.1-1.2.11-1.16.04-2.28.26-3.37.63-.66.22-1.04.73-1.27,1.37-.09.26-.07.53-.07.8,0,.41.11.79.35,1.12.13.17.22.34.23.55.03.34.17.59.51.73.32.13.61.32.89.52.19.13.39.29.64.25.54-.07,1.01-.32,1.47-.6.59-.35,1.02-.86,1.34-1.46.21-.39.47-.75.62-1.18.15-.43.25-.87.34-1.31.04-.2.17-.38.15-.6-.02-.22-.17-.33-.33-.43-.15-.09-.23.04-.33.12-.18.16-.37.3-.61.37.14-.12.27-.23.41-.36-.07-.04-.17,0-.18-.11,0-.09.02-.17.11-.22.11-.06.19-.16.28-.31Zm-2.63,50.04c-.08-.44-.03-.87-.01-1.31,0-.06.05-.14-.02-.16-.13-.05-.09-.13-.07-.21.02-.08.05-.17.03-.26-.03-.11-.08-.23-.21-.24-.13-.01-.11.12-.15.18-.02.02-.02.05-.04.07-.52.73-.99,1.5-1.42,2.29-.47.87-.91,1.75-1.01,2.75-.04.41-.09.82.11,1.21.11.23.33.38.57.36.31-.02.62,0,.88.17.29.19.58.18.89.18.17,0,.34-.02.51,0,.55.04,1.03-.18,1.5-.41.72-.34.94-1.02,1.04-1.75.06-.46-.07-.9-.17-1.34-.19-.86-.53-1.65-.97-2.41-.18-.32-.45-.59-.51-.97,0-.03-.03-.06-.06-.07-.22-.1-.67.11-.74.34-.06.2-.04.41-.07.62-.04.32,0,.64-.08.96Zm-10.86-1.42c.16-.01.31,0,.46-.04.32-.07.64-.14.85-.42.12-.16.26-.31.38-.47.13-.17.29-.29.5-.36.33-.12.64-.28.79-.62.14-.31.19-.66.27-.99.14-.58.05-1.17,0-1.75-.03-.28-.12-.52-.34-.71-.15-.13-.28-.28-.45-.38-.13-.08-.27-.26-.44-.18-.32.14-.65.19-.98.26-.72.16-1.46.28-2.18.12-.78-.17-1.58-.3-2.25-.8-.1-.08-.23.02-.29.11-.07.11.07.09.11.13.12.11.27.19.35.33.16.29.28.59.43.89.2.39.45.77.6,1.19.25.71.42,1.44.29,2.21-.08.49.22.82.55,1.07.38.29.86.42,1.35.42Zm25.45-39.99c0-.79-.19-1.29-.71-1.62-.03-.02-.05-.05-.04-.09,0-.14-.09-.16-.2-.18-.14-.02-.28,0-.42-.04-.26-.08-.43-.3-.66-.41-.2-.1-.37-.25-.49-.44-.18-.29-.7-.46-1.05-.19-.36.28-.61.62-.8,1.03-.25.53-.4,1.08-.54,1.65-.11.44-.2.88-.21,1.34-.02.63-.04,1.25-.06,1.88,0,.27-.06.53-.04.8.02.25.44.85.69.93.04.01.08,0,.11-.02.23-.21.53-.29.81-.4,1.3-.54,2.3-1.42,3.04-2.6.35-.55.55-1.17.56-1.63Zm-24.82-32.39c.2-.03.39-.01.58.03.63.15,1.27.13,1.89.03.81-.13,1.54-.5,2.21-.96.5-.33.87-.77.98-1.38.05-.25,0-.48-.08-.71-.06-.17-.16-.16-.29-.09-.08.04-.13.15-.28.14.1-.08.17-.14.25-.19.12-.07.13-.15.04-.26-.08-.11-.15-.22-.22-.34-.16-.3-.29-.61-.61-.82-.3-.2-.34-.59-.41-.92-.08-.34-.29-.54-.54-.72-.18-.13-.38-.16-.6-.1-.66.19-1.23.54-1.71,1.03-.69.7-1.2,1.52-1.63,2.4-.04.07-.07.15-.04.23.05.11.04.23.02.34-.06.26.13.35.29.48.16.12.25,0,.36-.07.44-.28.88-.57,1.32-.86.06-.04.12-.08.25-.09-.07.05-.09.07-.12.09-.38.31-.82.51-1.22.79-.08.05-.19.08-.08.22.06.08,0,.18-.06.25-.15.16-.25.35-.31.56-.05.2.02.27.22.27.14,0,.29-.03.38.12.03.05.07.09.03.15-.04.05-.09.1-.15.08-.27-.1-.35.13-.49.28Zm-4.67,11.26s-.03-.02-.04-.03c.04-.07.1-.13.13-.2.04-.13.27-.22.16-.36-.08-.12-.28-.12-.43-.14-.05,0-.09,0-.14,0-.65.07-1.18.39-1.67.78-.51.4-.91.92-1.26,1.47-.14.22-.33.41-.39.68-.24,1.1-.75,2.07-1.38,3-.03.04-.12.08-.06.15.05.07.13.12.23.1.06,0,.11-.05.16-.08.31-.19.57-.45.89-.62.29-.16.58-.34.87-.51.01.07-.03.08-.06.11-.33.29-.7.51-1.04.77-.26.2-.59.29-.74.63-.05.12-.03.13.09.13.4,0,.8,0,1.19-.01.91-.02,1.78-.25,2.61-.61.87-.38,1.56-1.01,2.13-1.76.21-.28.29-.62.16-.98-.1-.27-.19-.53-.19-.83,0-.06-.03-.12-.07-.16-.28-.28-.35-.63-.36-1,0-.29-.04-.58-.22-.82-.12-.16-.18-.16-.3-.01-.09.11-.18.22-.26.32Zm-7.98,46.42c-.2-.2-.45-.33-.66-.5-.42-.36-.83-.74-1.27-1.07-.54-.4-1.13-.73-1.63-1.2-.44-.41-.96-.72-1.41-1.12-.63-.56-1.14-1.24-1.77-1.8-.16-.14-.29-.3-.44-.45.05.12.12.22.19.33.36.58.58,1.23.86,1.85.35.77.87,1.42,1.35,2.1.31.43.68.82.97,1.26.35.53.82.95,1.23,1.41.42.47,1,.74,1.42,1.2.22.24.5.42.72.64.33.33.73.54,1.12.78.18.11.42.14.55.29.15.17.31.19.49.22.6.1,1.2.16,1.78.4.44.18.87.36,1.28.59.7.39,1.33.87,1.98,1.37-.11-.16-.19-.32-.31-.45-.11-.13-.28-.22-.39-.34-.42-.47-.92-.86-1.41-1.24-.8-.61-1.44-1.38-2.18-2.05-.33-.3-.59-.67-.97-.92-.26-.18-.54-.34-.75-.59-.31-.36-.72-.6-1.13-.76-.56-.22-1.14-.42-1.74-.54-.16-.03-.33-.05-.47-.16.87.17,1.71.42,2.56.72Zm.65-55.9c-.04-.1-.07-.17-.1-.24-.25-.56-.51-1.11-.75-1.68-.36-.86-.89-1.6-1.45-2.32-.38-.49-.75-.98-1.16-1.45-.61-.71-1.22-1.42-2.01-1.95-.3-.2-.57-.44-.88-.6-.62-.32-1.24-.62-1.92-.81-.12-.03-.22-.17-.39-.11.24.35.58.62.74,1.02-.27-.29-.52-.59-.79-.89-.17-.18-.33-.29-.58-.34-.81-.19-1.63-.37-2.46-.47-.1-.01-.2-.07-.33,0,.15.14.35.16.51.25.49.3.98.59,1.48.88.36.21.66.52,1.02.74.61.37,1.16.84,1.72,1.27.84.64,1.63,1.35,2.43,2.04.42.36.85.7,1.24,1.1.48.48.97.96,1.46,1.43.35.34.71.66,1.06,1,.26.26.51.54.76.81.11.11.21.24.39.34Zm17.35,58.06c-.02.08-.04.16-.05.24-.15,1.21-.73,2.23-1.45,3.19-.1.14-.15.25-.14.41.02.63-.17,1.19-.55,1.7-.29.38-.67.64-1.12.81-.13.05-.22.11-.04.23.09.06.16.15.24.22.24.19.44.4.55.69.04.1.09.08.16.05.14-.06.29-.12.43-.17.42-.14.86-.08,1.28-.03.64.08,1.17.39,1.69.76.3.22.52.51.82.71.59.41,1.14.88,1.76,1.26.09.05.16.15.33.14-.11-.12-.19-.23-.3-.29-.46-.23-.76-.63-1.04-1.02-.28-.38-.53-.78-.82-1.15-.29-.38-.56-.75-.74-1.2-.13-.31-.21-.63-.31-.94-.18-.57-.36-1.13-.34-1.74.01-.41.07-.82.19-1.22.06-.21.16-.43.08-.67-.14-.41-.29-.81-.43-1.22-.08-.24-.07-.5-.19-.75Zm3.52,12.87c-.33.26-.65.52-.98.78-.46.37-.9.75-1.45.99-.28.13-.56.27-.83.42-.42.23-.85.44-1.35.44-.19,0-.18.07-.11.2.32.56.61,1.13.95,1.67.4.62.7,1.29.98,1.97.3.74.59,1.49.96,2.21.28.54.65,1.04.86,1.63.01.04.04.09.11.1,0-.12,0-.24.02-.36.14-1.26.18-2.52.23-3.78,0-.13-.03-.16-.16-.17-.69-.04-1.04-.46-1.07-1.13-.04-.92.19-1.8.6-2.62.39-.79.77-1.58,1.24-2.33Zm-31.63-45.46c.11.02.18-.03.25-.06.47-.2.93-.42,1.42-.58.37-.12.75-.22,1.13-.33.17-.05.33-.14.5-.14.17,0,.29-.06.39-.19.01-.02.03-.03.05-.04.45-.19.83-.5,1.24-.75.97-.58,1.94-1.14,3.01-1.52.33-.12.32-.12.34-.48,0-.03.01-.05.01-.08.02-.39.09-.77.2-1.19-.58.3-1.18.45-1.73.7-.52.25-1.09.39-1.6.69-.36.21-.73.41-1.09.62-1.06.6-2.1,1.22-2.97,2.08-.4.4-.81.79-1.15,1.27Zm-1.34-35.17c.17.15.37.28.51.45.3.36.61.7.95,1.02.31.29.67.55.99.84.49.45.98.89,1.48,1.32.07.06.13.13.2.17.35.22.64.5.94.77.37.34.75.68,1.13,1.01.33.29.7.54.99.86.7.76,1.55,1.34,2.39,1.94.63.45,1.26.9,1.89,1.36.26.19.5.43.83.52.02-.05-.02-.07-.04-.09-.46-.51-.93-1.02-1.41-1.5-.55-.55-1.07-1.15-1.78-1.54.05,0,.12,0,.12-.01.02-.08-.05-.12-.09-.16-.3-.27-.59-.56-.89-.83-.56-.51-1.15-.98-1.7-1.49-.57-.53-1.15-1.04-1.77-1.51-.65-.49-1.27-1.02-1.96-1.46-.4-.26-.77-.56-1.19-.81-.51-.31-1.03-.61-1.58-.85Zm13.6,38.75s-.02-.04-.02-.06c-.44.07-.9.06-1.34.17-.53.14-1.03.35-1.53.57-.55.25-1.05.55-1.42,1.06-.41.56-.89,1.06-1.35,1.59-.38.45-.8.85-1.26,1.23-.38.32-.76.65-1.13.99-.44.4-.9.77-1.35,1.14.27-.1.54-.21.79-.34.75-.41,1.45-.89,2.14-1.39.47-.34.91-.73,1.36-1.1.74-.61,1.49-1.2,2.25-1.78.71-.55,1.4-1.14,2.16-1.63.23-.15.46-.29.7-.43Zm11.92-10.78c-.16-.29-.24-.59-.44-.83-.33-.41-.78-.68-1.2-.99-.44-.33-.91-.63-1.43-.84-.35-.15-.71-.29-1.08-.38-.38-.09-.77,0-1.15,0-.33,0-.66-.06-1.01.03.19.09.38.13.55.21.39.18.72.45,1.08.66.56.31.87.81,1.08,1.39.04.1.08.13.17.13.39,0,.78.06,1.16.12.75.13,1.48.33,2.26.51Zm-.8,36.96c-.53.15-1.05.28-1.6.31-.54.03-1.08.1-1.63-.01.15.36.25.69.32,1.03.21,1.01.1,1.99-.29,2.95-.29.71-.54,1.44-1,2.07-.11.15-.24.3-.33.54.49-.48.83-1,1.2-1.49.35-.47.66-.97,1.13-1.34.07-.06.08-.12.08-.21,0-.53.02-1.05.15-1.57.18-.71.61-1.24,1.15-1.7.26-.22.54-.4.82-.58Zm-14.85-12.8c.5-.21,1.04-.2,1.56-.23.84-.05,1.69-.05,2.53-.05.46,0,.93.06,1.38.18.05.01.09.03.13-.01.02-.02.01-.06,0-.07-.21-.16-.32-.43-.54-.57-.25-.16-.46-.36-.67-.57-.18-.17-.36-.38-.67-.34-.61.08-1.18.27-1.75.47-.73.26-1.33.73-1.95,1.18Zm22.84,38.72c.12-.16.22-.29.32-.42.29-.39.54-.8.91-1.14.09-.08.18-.19.23-.31.25-.61.51-1.22.77-1.82.06-.13,0-.13-.1-.12-.44.02-.89.03-1.33.04-.14,0-.27-.02-.38-.1-.06-.04-.12-.09-.18-.05-.05.04-.02.12,0,.17.07.43.05.87.02,1.31-.05.67-.15,1.33-.22,1.99-.01.14-.05.27-.01.45Zm-33.67-51.71c1.65-1.88,3.48-3.56,5.54-4.97-.46.12-.9.25-1.34.4-.64.22-1.27.45-1.9.68-.07.03-.13.08-.17.14-.08.12-.16.24-.23.36-.29.46-.51.96-.79,1.44-.38.65-.72,1.31-1.11,1.96Zm32.3,23.63c.12.08.23.12.34.16.28.11.56.18.83.32.77.41,1.55.82,2.19,1.44.09.09.11,0,.13-.06.05-.23.04-.47.05-.71.02-.49-.04-.99.02-1.48.01-.11-.04-.09-.1-.08-.15.03-.31.05-.45.1-.97.29-1.97.29-2.99.3Zm12.66-15.96c.09-.14.15-.25.26-.33.1-.08.08-.13-.02-.19-.12-.07-.25-.12-.38-.25.26.05.43.21.64.27,0-.11-.09-.15-.11-.24-.02-.09-.03-.18-.07-.25-.04-.08.03-.22-.09-.23-.09,0-.18.07-.28.12-.08.04-.07.13-.1.19-.13.25-.37.29-.53.06-.05-.06-.11-.02-.15-.08.19-.13.23-.34.13-.55.12.21.38.1.52.27.04.05.09.03.13.01.1-.05.21-.1.3-.17.13-.09.11-.19-.04-.26-.11-.05-.2-.13-.29-.21-.18-.18-.32-.38-.48-.61-.12.25-.29.42-.55.45-.15.02-.17.08-.14.21.08.32.11.63-.16.88-.04.03-.1.11,0,.15.34.12.39.42.48.7.03.08.13.14.21.11.19-.07.37-.08.57.01.01-.24-.07-.46-.07-.68.05.2.13.38.22.61Zm-5.11-15.07c-.19-.02-.34-.16-.52-.2-.05,0-.09-.03-.13,0-.04.04-.01.08,0,.13.09.21.26.38.38.58.05.08.09.02.11-.03.07-.14.15-.28.27-.37.09-.07.08-.12.02-.21-.09-.15-.12-.33-.11-.51,0-.04.02-.09,0-.12-.05-.1-.05-.1.01-.18.03-.04.08-.07.06-.12-.02-.05-.08-.04-.12-.04-.25-.03-.45-.14-.64-.31-.14-.13-.21-.33-.41-.42-.01.12-.02.22-.06.32-.1.24-.28.39-.5.51-.04.02-.13.03-.07.12.18.28.24.57.06.89.2-.07.38-.16.56-.25.07-.03.07-.1.06-.16-.02-.14.03-.26.16-.29.15-.03.25.08.28.21.02.09.06.12.14.15.17.06.3.17.43.29Zm-20.85,41.73c.23.14.37.34.44.59.05.19.15.21.31.17.09-.02.19-.04.28,0,.17.11.25.04.33-.13.08-.18.19-.35.38-.48-.28-.11-.32-.36-.35-.61,0-.06,0-.15-.09-.09-.08.06-.2.09-.18.25.02.22-.24.46-.38.36-.24-.18-.48-.03-.72-.08Zm-.16-.87q.17.33.06.69c-.02.06-.02.1.05.09.18,0,.36.02.52-.03.1-.02.01-.19.08-.27.01-.02.01-.04.03-.05.17-.11.11-.28.12-.43,0-.05-.04-.1.02-.16.05.09.05.18.06.27.01.08,0,.17.11.22.11.05.18,0,.26-.05.06-.05.13-.1.2-.15.04-.03.07-.07.05-.12-.02-.05-.07-.03-.1-.04-.16-.03-.3-.1-.41-.23-.1-.12-.26-.19-.22-.4-.18.35-.43.58-.81.66Zm3.43-64.9c.23-.15.42-.28.6-.41.1-.08.09-.3-.02-.37-.05-.03-.11-.04-.17-.06.06-.01.11,0,.16,0,.16.03.19-.13.27-.21.08-.09-.04-.13-.08-.17-.16-.14-.33-.28-.49-.42-.03-.03-.06-.06-.1-.05-.05.02-.04.08-.04.12,0,.17-.04.32-.16.45-.03.04-.08.09-.06.16.13.02.26,0,.38.09-.13-.02-.23.06-.35.07-.12,0-.12.08-.07.15.12.18.15.38.14.65Zm1.56-.41c-.1-.01-.14.06-.19.12-.04.05,0,.09.04.11.28.18.55.38.8.61.06.06.17.09.16-.08-.01-.17.04-.32.16-.44.09-.09.08-.15-.05-.18-.3-.05-.61-.1-.92-.15Zm-.88,1.21c.27-.16.5-.09.74-.05.13.03.19,0,.14-.15-.07-.24-.2-.46-.28-.69-.02-.07-.07-.1-.14-.08-.07.02-.14,0-.18.1-.1.26-.2.53-.28.87Zm-.79-.51c.41-.09.58.14.67.54.12-.36.23-.65.33-.95.03-.1-.07-.14-.11-.2-.05-.06-.1-.02-.14.01-.2.16-.4.31-.63.43-.05.03-.09.07-.11.17Zm-7.75,18.58c.26-.08.5-.19.76-.19.12,0,.06-.1.03-.13-.17-.2-.3-.41-.5-.58-.08-.07-.11-.06-.13.04-.05.28-.11.56-.17.86Zm20.45,50.92c.01.12.03.23.03.34,0,.12-.03.23-.09.33-.04.06,0,.08.05.09.21.04.42.07.64.11.03,0,.08,0,.09-.01.03-.04,0-.07-.03-.11-.12-.18-.25-.37-.37-.55-.07-.12-.17-.18-.33-.19Zm1.27-.21c-.25.14-.5.25-.78.26-.05,0-.15.02-.09.1.13.19.23.4.44.55.07-.17.12-.32.19-.47.07-.15.13-.31.25-.44Zm-21.89-50.74c.09-.31.13-.58.16-.86.01-.1-.03-.13-.12-.07-.16.12-.32.24-.48.37-.06.04-.11.11,0,.15.19.07.31.21.44.41Zm20.7,52.62c.15-.15.27-.28.39-.41.06-.07.13-.19.02-.24-.22-.09-.46-.14-.71-.14-.06,0-.09.06-.02.11.22.15.27.39.32.68Zm-21.37-54.13s-.02.04-.02.05c.24.17.32.42.31.71.09-.03.14-.07.18-.11.19-.17.23-.32.15-.55-.01-.04-.03-.06-.07-.06-.18-.01-.37-.03-.55-.04Zm.94-.21c.04-.33.08-.63.13-.98-.19.22-.37.33-.6.37-.08.01-.06.07-.02.1.18.14.28.36.49.51Zm23.69,7.08c.28.1.45.25.59.48.09-.26.13-.49.15-.73,0-.1-.05-.08-.11-.05-.19.09-.38.19-.63.31Zm-14.5-24.29c.09.24.12.47.19.7.05.17.1.17.2.04.05-.07.12-.12.2-.13.19-.04.1-.12.02-.18-.2-.14-.4-.28-.61-.42Zm-8.96,16.64c-.05.14-.04.25-.06.35-.04.18.04.3.18.39.13.09.21-.06.32-.1.1-.03.11-.07.02-.15-.17-.13-.33-.27-.46-.49Zm24.16,8.21c.18-.04.33-.15.5-.09.04.01.08.03.11,0,.03-.05-.02-.09-.05-.12-.1-.13-.21-.25-.3-.37-.09-.12-.12-.04-.14.04-.05.18-.08.36-.12.56Zm-24.6-7.58c-.12-.25-.27-.47-.55-.61,0,.2.05.38-.02.56-.03.07.04.08.08.08.16-.01.32.03.49-.02Zm.97.13c-.13.06-.24.1-.35.16-.07.03-.09.1-.08.17,0,.07.07.07.12.09.13.05.26.09.41.14-.06-.18-.1-.34-.1-.56Zm-.34.53c.03.15.13.23.2.33.12.19.12.19.27.02.07-.08.05-.11-.02-.16-.13-.09-.27-.15-.44-.18Z"/><path d="m73.44,84.93c-.05.1-.15.12-.23.16-.82.5-1.49,1.16-2.03,1.94-.21.3-.36.63-.55.94-.03.04-.04.15-.11.12-.09-.05-.02-.13.01-.19.25-.41.46-.84.75-1.22.54-.69,1.22-1.23,1.97-1.68.06-.03.1-.09.19-.07Z"/><path d="m86.51,85.62c-.96-.28-1.82-.83-2.82-1.01,1.02.12,1.89.63,2.82,1.01Z"/><path d="m83.97,16.72c.12.19.09.36.1.52.01.16,0,.32.01.48,0,.05,0,.1-.06.11-.05,0-.1-.03-.1-.07-.04-.34-.05-.67.04-1.04Z"/><path d="m81.18,10.7c.26-.18.52-.31.78-.42.07-.03.16-.06.2.01.04.09-.06.13-.12.15-.27.09-.52.27-.85.26Z"/><path d="m76.91,9.98c.57-.05,1.14-.02,1.71-.07-.57.08-1.13.18-1.71.07Z"/><path d="m94.14,81.94c.27-.08.52-.21.74-.39.05-.04.1-.04.14.01.05.07,0,.1-.06.14-.24.18-.51.27-.82.24Z"/><path d="m88.75,82.86c.46-.02.92-.04,1.38-.06-.46.08-.91.13-1.38.06Z"/><path d="m84.06,15.67c.04-.36,0-.72.07-1.07v1.08s-.04,0-.07,0Z"/><path d="m95.08,14.53c-.68.55-1.51.85-2.29,1.22.36-.25.76-.41,1.15-.61.38-.2.75-.42,1.14-.61Z"/><path d="m87.4,21.44c.02.2.01.39-.05.58-.03-.2-.02-.39.05-.58Z"/><path d="m88.87,21.1c-.14.15-.31.26-.49.37h0c0-.15.13-.17.21-.24.08-.07.17-.11.27-.12,0,0,0,0,0,0Z"/><path d="m87.09,19.49c.14.22.14.42.18.61-.1-.17-.14-.36-.18-.61Z"/><path d="m87.31,22.71c-.04-.16-.02-.33.01-.49.05.16.03.32-.01.49Z"/><path d="m88.39,21.47c-.12.11-.24.22-.36.33.1-.14.16-.33.36-.33,0,0,0,0,0,0Z"/><path d="m117.37,36.79c-.73.12-1.47.19-2.21.21.73-.13,1.48-.11,2.21-.21Z"/><path d="m119.94,32.84c.2-.12.4-.25.6-.37,0,.01.02.03.03.04-.19.14-.38.28-.6.38-.01-.02-.02-.04-.03-.05Z"/><path d="m117.46,36.77c.18-.07.36-.14.62-.1-.24.08-.43.09-.62.1Z"/><path d="m120.76,32.39c.08-.1.18-.2.34-.21-.1.12-.22.15-.34.21Z"/><path d="m71.8,26.6c.6-.07,1.15.23,1.74.21.04,0,.08.02.12.03.06.02.13.05.1.12-.02.07-.09.07-.15.06-.62-.09-1.19-.37-1.81-.42Z"/><path d="m75.89,23.89c-.04-.32.02-.62.11-.91-.07.3-.01.62-.11.91Z"/><path d="m75.8,24.62c-.02-.2.02-.4.07-.59.02.2,0,.4-.07.59Z"/><path d="m88.18,68.59c.5-.77,1-1.53,1.49-2.3.02.01.05.03.07.04-.38.84-.92,1.58-1.5,2.29-.02-.01-.04-.03-.06-.04Z"/><path d="m90.33,68.11c-.13.39-.34.74-.52,1.11-.02,0-.03-.01-.05-.02.17-.37.35-.74.52-1.1.02,0,.03.01.05.02Z"/><path d="m94.89,69.71c-.24-.16-.29-.43-.42-.66.16.21.32.42.42.66h0Z"/><path d="m94.88,69.71c.14.17.24.36.32.57-.1-.19-.3-.33-.31-.57,0,0,0,0,0,0Z"/><path d="m91.43,66.63c.11.1.14.23.13.37-.04-.12-.09-.25-.13-.37Z"/><path d="m113.16,87.35c-.2-.08-.28-.28-.42-.42-.47-.53-1.03-.95-1.66-1.27-.17-.09-.35-.18-.54-.27.09-.02.15.01.21.04.94.41,1.75.98,2.36,1.82.02.03.06.06.05.11,0,0,0,0,0,0Z"/><path d="m116.83,89.68c-.16-.15-.36-.26-.44-.48.15.15.36.26.44.48Z"/><path d="m85.44,40.63l-.28.36c.03-.17.15-.27.28-.36Z"/><path d="m77.78,42.5c.05-.13.15-.23.26-.31-.05.13-.14.23-.26.31Z"/><path d="m107.79,61.05c1.81.12,3.44-.38,4.95-1.35-.08.19-.24.3-.4.39-1.11.63-2.29,1.03-3.58,1.06-.32,0-.63-.03-.95-.04,0-.02-.01-.03-.02-.05Z"/><path d="m113.59,57.64c-.11.13-.28.12-.42.17-.33.11-.67.17-1.03.15.49-.06.97-.2,1.45-.32h0Z"/><path d="m113.6,57.65c.24-.1.48-.2.69-.37.03-.02.07-.05.1,0,.02.03,0,.07-.02.09-.24.14-.46.32-.77.28,0,0,0,0,0,0Z"/><path d="m83.18,6.77c-.24-.43-.32-.92-.5-1.38.09.06.13.15.16.24.08.31.19.6.31.9.03.07.05.16.03.24,0,0,0,0,0,0Z"/><path d="m103.87,63.66c-.08-.3.04-.98.2-1.24-.05.42-.21.81-.2,1.24Z"/><path d="m107,60.42c.01-.19.11-.34.21-.48-.02.18-.12.33-.21.48Z"/><path d="m94.57,76.05c-.19-.24-.31-.52-.44-.79-.07-.15-.16-.3-.19-.47,0-.05-.03-.1.01-.13.02-.01.05-.02.07-.01.05.03.03.08.04.13.06.29.19.55.33.82.07.14.16.28.18.45Z"/><path d="m94.65,76.24c.12.12.15.28.21.44-.12-.12-.15-.29-.21-.44Z"/><path d="m100.87,39.12c.14.17.21.38.28.59.07.2.07.42.11.63-.14-.4-.21-.83-.39-1.22Z"/><path d="m100.06,36.35c.08.13.1.28.12.43-.09-.13-.1-.28-.12-.43Z"/><path d="m99.92,35.71c.03.11.06.22.09.33-.02,0-.04.01-.05.02-.03-.11-.09-.22-.04-.35Z"/><path d="m90.24,62.13c-.19-.85-.56-2.72-.35-3.09.04.86.22,1.68.32,2.51.02.19.06.39.03.58,0,0,0,0,0,0Z"/><path d="m89.63,63c-.12-.22-.36-1.36-.34-1.66.17.57.23,1.12.34,1.66Z"/><path d="m80.3,83.5c-.05-.32.08-.6.17-.89-.01.31.01.62-.17.89Z"/><path d="m79.61,78.68c.03.12,0,.23-.05.37-.05-.15,0-.26.05-.37Z"/><path d="m81.97,75.01c-.2.13-.4.25-.64.23.21-.08.43-.15.64-.23Z"/><path d="m116.84,86.18c-.25-.11-.4-.35-.66-.45.27.07.5.21.66.45Z"/><path d="m115.71,85.62c-.13,0-.27.02-.4.02.13-.07.26-.08.4-.02Z"/><path d="m87.69,50.68c-.47-.13-.94-.26-1.41-.39-.21-.06-.43-.13-.64-.19-.08-.03-.16,0-.24.03-.25.09-.51.08-.78.11.14-.03.29-.07.43-.1.08-.01.19-.03.2-.1.02-.1-.13-.06-.22-.17.18.12.34.01.47.1.14.09.3.11.46.16.48.14.96.27,1.44.41.1.03.2.07.3.11,0,.01,0,.03-.01.04Z"/><path d="m80.66,47.91c.28.12.49.31.73.48-.17,0-.68-.33-.73-.48Z"/><path d="m73.18,34.78c.07-.66.17-1.32.32-2,.05.17-.21,1.75-.32,2Z"/><path d="m74.93,35.66c-.01.12.02.22.02.33,0,.05-.02.1-.08.09-.05-.01-.07-.07-.05-.11.05-.1.07-.21.11-.31Z"/><path d="m73.17,34.93c.02.15,0,.28-.07.41-.02-.15.01-.28.07-.41Z"/><path d="m92.6,64.52c-.2.17-.44.25-.68.34-.04.01-.08.02-.1-.03-.01-.03.02-.05.04-.06.26-.05.48-.21.74-.25h0Z"/><path d="m92.6,64.52c.15-.19.4-.2.6-.28-.2.1-.36.28-.6.28,0,0,0,0,0,0Z"/><path d="m80.61,69.93c.01.39.06.78,0,1.19-.09-.24-.09-1.05,0-1.19Z"/><path d="m80.62,74.36c-.03-.13-.02-.26.01-.41.03.16.06.28-.01.41Z"/><path d="m101.5,79.46c.07-.07.14-.13.22-.2.02-.02.05-.05.08-.01.02.03,0,.07-.02.09-.08.05-.17.1-.25.15,0-.01-.02-.02-.03-.03Z"/><path d="m103.89,31.97c-.32.18-.64.35-.96.54-.6.36-1.23.66-1.88.93-.02,0-.04.02-.06.02-.04,0-.1.04-.13-.02-.03-.06.02-.1.07-.12.17-.08.34-.15.52-.23.75-.34,1.52-.67,2.24-1.07.06-.03.12-.05.18-.07,0,0,0,.02.01.03Z"/><path d="m97.31,81.84c.26,0,.47.14.68.26-.23-.09-.46-.16-.68-.26Z"/><path d="m81.42,32.42c-.78-.32-1.27-1.04-2-1.44.77.34,1.3,1,2,1.44Z"/><path d="m82.57,30.71c.15.01.29.05.38.22-.19.02-.27-.14-.38-.22Z"/><path d="m95.32,30.57c.38.38.82.69,1.23,1.02-.47-.27-.91-.58-1.23-1.02Z"/><path d="m107.92,55.4c-.13-.61-.21-1.23-.43-1.82.3.57.38,1.19.43,1.82Z"/><path d="m102.01,49.7c.12-.09.24-.17.4-.17-.12.1-.25.16-.4.17Z"/><path d="m103.6,48.88c-.1.13-.23.22-.4.23.13-.08.27-.16.4-.23Z"/><path d="m102.93,49.28c-.12.11-.25.18-.45.22.16-.12.3-.18.45-.22Z"/><path d="m110.76,48.84c-1.01-.05-2-.1-2.99-.08-.44,0-.87-.11-1.31-.14-.04,0-.07-.02-.07-.06,0-.08.06-.09.11-.08.19.02.37.04.56.07.55.08,1.11.04,1.66.07.63.04,1.26.03,1.87.16.05.01.11,0,.15.07Z"/><path d="m90.25,16.39c-.23-.06-.31-.26-.4-.45.23.1.41.31.4.46,0,0,0,0,0,0Z"/><path d="m88.76,15.04c-.18-.04-.29-.17-.41-.3.14.1.27.2.41.3Z"/><path d="m99.78,28.3c-.15-.8-.33-1.59-.09-2.4-.03.8.05,1.6.09,2.4Z"/><path d="m94.02,39.56c.31-.25.68-.37,1.05-.52-.32.22-.67.41-1.05.52Z"/><path d="m105.91,47.22c-.03-.22.05-.33.15-.43,0,.14-.01.28-.15.43Z"/><path d="m107.27,43.21l-.15.42c0-.15.03-.3.15-.42Z"/><path d="m83.62,57.34c.17.19.18.42.19.66-.08-.22-.18-.43-.18-.66,0,0,0,0,0,0Z"/><path d="m83.35,56.67c-.17-.16-.17-.4-.27-.59.13.18.26.36.27.59h0Z"/><path d="m83.35,56.68c.16.19.28.4.28.66,0,0,0,0,0,0-.12-.21-.21-.43-.28-.66,0,0,0,0,0,0Z"/><path d="m75.71,71.15c-.97-.16-1.9-.48-2.82-.76.28-.02.55.09.82.2.16.07.31.12.49.11.18,0,.34.04.51.12.26.12.56.1.82.21.07.03.15.03.19.12Z"/><path d="m69.96,67.24c-.19-.05-.37-.12-.53-.25.2.02.35.17.53.25Z"/><path d="m70.92,65.17c.16.15.33.31.49.46-.02.02-.04.03-.05.05-.17-.14-.35-.29-.43-.52h0Z"/><path d="m74.89,67.69c-.11-.15-.17-.33-.22-.51.08.16.21.31.22.51,0,0,0,0,0,0Z"/><path d="m70.93,65.16c-.18-.04-.24-.22-.34-.34.16.07.23.23.34.35,0,0,0,0,0,0Z"/><path d="m67.97,34.73c.24-.1.49-.02.73-.06-.24.03-.49.02-.73.06Z"/><path d="m70.17,9.53c-.15-.03-.29-.09-.41-.19.15.04.29.08.41.19Z"/><path d="m80.04,76.59c-.02-.14,0-.26.08-.37,0,.13-.01.26-.08.37Z"/><path d="m21.11,81.11c-.08.26-.19.52-.36.73-.39.46-.79.91-1.17,1.38-.47.59-1,1.12-1.51,1.68-.16.17-.37.29-.52.46-.57.67-1.28,1.12-2.12,1.38-.5.16-.99.33-1.43.65-.22.16-.5.26-.78.31-.46.09-.92.16-1.28.51-.04.04-.09.05-.15.04-.18-.02-.25-.12-.25-.36,0-.59-.07-1.17-.22-1.75-.17-.66-.21-1.34-.14-2.02.04-.39.07-.78.06-1.17-.02-.72-.05-1.44.04-2.15.11-.91.37-1.78.8-2.59.21-.41.43-.81.7-1.18.31-.43.65-.83,1.07-1.14.52-.4,1.04-.82,1.65-1.1-.11,0-.23,0-.34,0-.44.02-.88-.04-1.32,0-.32.03-.64.07-.96.06-.41-.02-.82-.05-1.23-.08-.35-.03-.7-.04-1.05-.12-.77-.17-1.45-.55-2.13-.92-.45-.24-.89-.49-1.35-.71-.57-.26-1.12-.55-1.65-.88-.43-.27-.84-.56-1.32-.75-.66-.26-1.27-.62-1.79-1.12-.47-.46-.99-.84-1.54-1.18-.24-.15-.48-.31-.69-.51-.23-.21-.23-.34.06-.48.39-.19.78-.4,1.19-.52.46-.14.89-.33,1.3-.58.46-.28.92-.57,1.43-.74.53-.17,1.07-.34,1.59-.55.17-.07.35-.1.54-.11.66-.04,1.31-.18,1.96-.28.47-.07.92-.21,1.41-.17.33.03.65.02.98-.05.25-.06.5-.07.76-.06.27.01.55.05.82.03.85-.07,1.68.03,2.48.3.54.18,1.08.35,1.66.42-.06-.09-.15-.11-.23-.14-.33-.14-.64-.34-.96-.51-.43-.24-.85-.51-1.3-.72-.78-.36-1.4-.92-1.94-1.58-.22-.27-.42-.56-.61-.85-.21-.32-.4-.64-.53-1.01-.16-.46-.35-.91-.56-1.35-.11-.24-.22-.49-.32-.73-.14-.33-.21-.69-.34-1.02-.16-.41-.25-.84-.33-1.28-.1-.57-.14-1.14-.18-1.71-.05-.65-.08-1.3-.12-1.96-.03-.45.1-.89.1-1.33,0-.37.08-.73.1-1.1.03-.74.06-1.47.29-2.18.15-.45.26-.92.27-1.4,0-.11.02-.2.12-.23.11-.03.13.09.16.16.18.37.42.71.65,1.06.22.33.46.64.87.76.06.02.11.06.17.1.66.44,1.28.92,1.98,1.3.35.19.7.38,1.04.59.55.34,1.07.74,1.57,1.15.29.24.6.48.85.76.46.51.92,1,1.41,1.48.36.34.73.67,1.02,1.08.26.38.53.74.85,1.07.3.32.58.65.9.95.44.43.91.83,1.36,1.24.22.2.44.39.71.53-.15-.18-.32-.36-.48-.53-.4-.45-.79-.89-1.19-1.34-.37-.42-.74-.84-1.04-1.31-.43-.65-.55-1.42-.67-2.17-.09-.53-.12-1.08-.21-1.61-.12-.67-.08-1.34-.08-2.01,0-.42.12-.83.13-1.24.01-.42.06-.82.25-1.2.15-.29.26-.59.3-.93.09-.76.27-1.5.46-2.24.08-.32.16-.63.22-.95.02-.12.05-.23.17-.27.11-.04.19.04.27.1.3.24.6.48.95.66.58.28,1.13.63,1.66,1.01.41.3.77.68,1.24.91.26.13.51.27.74.44.36.27.68.6.98.94.4.46.82.9,1.11,1.45.12.23.28.44.34.69.11.45.3.88.4,1.33.17.75.38,1.49.43,2.26.06.78.17,1.55.32,2.32.19.97.43,1.93.47,2.92,0,.15.05.2.21.22.36.06.71.2,1.06.31.5.16,1.02.24,1.53.38.06.02.11.03.17.06.39.22.74.5,1.07.81.21.2.44.37.59.62.41.65.82,1.3,1.05,2.05.15.48.34.94.62,1.37.1.15.25.24.36.38.1.13.1.24-.02.36-.13.13-.27.25-.38.4-.23.32-.42.68-.7.97-.07.07-.16.12-.21.22-.2.35-.39.71-.47,1.11-.08.39-.27.74-.39,1.11-.03.1-.02.15.08.22.55.36,1.14.66,1.7,1.01.42.26.82.54,1.17.88.46.45.92.91,1.34,1.4.21.24.39.31.69.19.42-.18.86-.17,1.3-.03.08.03.17.06.27.04-.13-.2-.25-.38-.36-.57-.28-.48-.57-.97-.84-1.46-.15-.28-.32-.55-.46-.83-.21-.4-.4-.81-.57-1.23-.2-.5-.39-1-.46-1.54-.04-.28-.04-.56-.23-.8-.16-.21-.13-.49.07-.68.11-.11.23-.21.37-.28.3-.14.62-.24.95-.33.59-.16,1.12-.5,1.74-.57.45-.05.89-.14,1.35-.15.28,0,.56.04.85.1-.13-.31-.27-.59-.38-.89-.44-1.23-.62-2.48-.44-3.78.13-.88.43-1.72.7-2.56.26-.81.57-1.6.57-2.47,0-.13.08-.23.22-.21.29.05.59.02.87.07.62.11,1.25.15,1.86.34.89.27,1.72.6,2.36,1.32.61.68,1.09,1.44,1.45,2.27.26.6.42,1.24.58,1.88.25.96.33,1.95.19,2.95-.04.26-.07.53-.05.81.06-.07.07-.13.08-.19.09-.34.22-.65.39-.96.33-.61.74-1.17,1.05-1.79.09-.18.2-.35.36-.48.14-.11.29-.21.47-.14.17.07.2.23.21.4.01.15-.01.31.05.45.13-.04.16-.14.22-.23.09-.15.1-.32.25-.44.34-.27.67-.56.97-.88.34-.37.7-.72,1.12-.99.24-.15.51-.27.74-.44.47-.34.86-.75,1.26-1.16.23-.23.42-.5.62-.76.16-.2.38-.22.55-.03.16.17.28.37.39.58.16.32.31.66.49.98.21.37.41.75.6,1.14.32.65.38,1.36.45,2.07.05.48-.05.97-.05,1.45,0,.74-.09,1.47-.27,2.19-.11.47-.21.94-.41,1.37-.29.62-.55,1.26-.97,1.81-.17.22-.35.44-.52.66.15-.08.3-.17.42-.27.47-.41.96-.79,1.47-1.14.36-.25.71-.52,1.07-.77.23-.16.39-.39.64-.52.22-.11.42-.25.61-.41.16-.13.34-.24.54-.32.51-.21,1.01-.46,1.54-.63.26-.08.34-.06.43.2.2.54.34,1.09.52,1.63.17.52.26,1.05.21,1.59-.06.61-.14,1.22-.26,1.83-.26,1.24-.77,2.38-1.43,3.45-.47.76-1.02,1.47-1.54,2.2-.72,1.01-1.55,1.92-2.46,2.76-.1.09-.22.16-.34.24-.06.04-.11.02-.14-.02-.04-.05,0-.09.04-.12.08-.06.17-.11.25-.18.6-.6,1.19-1.22,1.75-1.86.36-.4.63-.87.98-1.28.04-.05.09-.09.09-.15-1.73,1.44-3.55,2.74-5.75,3.4.25.03.49.05.74.05.54,0,1.06.18,1.6.15.23,0,.32.15.24.36-.18.52-.59.78-1.09.92-.74.21-1.43.52-2.04.98-.39.3-.76.62-1.21.83-.32.15-.61.37-.94.51-.38.17-.78.27-1.18.34-.48.08-.95.07-1.41-.11-.24-.09-.48-.18-.71-.3,0,.11-.02.21,0,.3.1.7.12,1.41.12,2.11,0,.81,0,1.63.03,2.44.02.63.03,1.26.05,1.89.02.56.1,1.12.18,1.67.06.42.19.83.31,1.23.11.38.24.76.38,1.14.09.24.13.51.2.76.08.29.19.58.27.88.23.83.45,1.66.69,2.49.04.15.07.32.2.48,0-.14.02-.25,0-.35-.05-.55-.1-1.11-.1-1.66,0-.66.21-1.28.39-1.91.13-.47.27-.93.42-1.39.13-.39.33-.72.6-1.03.28-.33.62-.58.99-.79.54-.32,1.11-.44,1.72-.2.49.19.62.54.48.96-.1.28-.23.56-.38.83-.19.35-.33.74-.4,1.13-.11.59-.19,1.19-.32,1.78-.14.64-.36,1.26-.51,1.9-.06.24-.2.46-.37.65-.2.23-.45.41-.6.67-.23.41-.38.85-.55,1.28-.04.11-.08.21-.15.3-.12.15-.25.29-.15.53.29.62.43,1.29.6,1.95.18.67.42,1.32.7,1.94.39.87.82,1.71,1.23,2.57.19.4.38.81.5,1.25.1.38-.04.39-.35.4-.13,0-.2-.12-.28-.2-.04-.04-.06-.13-.15-.09-.15.07-.21-.03-.27-.15-.29-.6-.43-1.24-.7-1.85-.21-.46-.34-.95-.5-1.43-.16-.49-.33-.97-.47-1.47-.15-.5-.26-1-.45-1.49-.23-.59-.4-1.21-.6-1.81-.06-.19-.09-.4-.28-.54-.53-.37-1.08-.71-1.63-1.05-.53-.33-1.08-.64-1.62-.96-.62-.37-1.26-.69-1.87-1.07-.46-.29-.88-.62-1.33-.92-.68-.46-1.31-.96-1.93-1.49-.35-.3-.69-.62-1.05-.89-.67-.5-1.28-1.07-1.82-1.7-.36-.41-.74-.8-1.13-1.18-.3-.3-.63-.57-.91-.89-.58-.65-1.18-1.29-1.74-1.96-.38-.45-.76-.91-1.16-1.34-.06-.06-.1-.14-.13-.21-.06-.14,0-.24.16-.23.2.01.4,0,.59-.1.12-.07.26-.08.4-.05.42.1.81.29,1.21.43.48.17.94.37,1.41.56.45.19.9.4,1.31.66.49.3.98.63,1.45.97.41.3.84.59,1.26.89.67.49,1.31,1,1.92,1.57.54.5,1.06,1.01,1.52,1.57.42.5.81,1.02,1.2,1.55.42.57.84,1.14,1.27,1.7.38.49.76.97,1.14,1.46.16.21.33.41.48.63.16.23.35.44.52.67-.2-.64-.42-1.26-.6-1.9-.14-.48-.29-.96-.46-1.43-.2-.57-.43-1.13-.63-1.7-.22-.61-.47-1.21-.78-1.78-.31-.57-.64-1.13-.97-1.69-.1-.17-.22-.34-.35-.5-.39-.51-.75-1.03-1.08-1.57-.29-.47-.56-.96-.91-1.4-.3-.38-.66-.69-.94-1.09-.18-.25-.42-.46-.57-.73-.14-.24-.42-.42-.37-.76,0-.02-.06-.05-.09-.07-.24-.14-.48-.28-.73-.42-.59-.35-.92-.91-1.19-1.51-.19-.41-.32-.85-.57-1.24-.24-.39-.4-.83-.44-1.29-.02-.3-.18-.44-.4-.56-.62-.34-1.14-.81-1.67-1.26-.53-.45-1-.95-1.52-1.41-.42-.36-.79-.76-1.07-1.24-.1-.17-.21-.33-.33-.49-.25-.33-.23-.44.07-.74.02-.02.04-.05.06-.07.03-.04.03-.07-.01-.1-.29-.24-.55-.5-.8-.77-.07-.07-.1-.06-.13.03-.09.3-.19.58-.19.9,0,.56-.12,1.11-.38,1.61-.16.3-.22.63-.23.96,0,.48.02.96,0,1.44-.02.45-.09.88-.59,1.09-.25.1-.62.05-.75-.14-.2-.3-.39-.6-.55-.92-.24-.49-.36-1.02-.34-1.56.01-.43-.09-.84-.17-1.25-.07-.36-.06-.69.07-1.03.13-.33.34-.61.56-.87.27-.32.58-.59.98-.77.32-.15.65-.21,1.01-.24-.25-.28-.52-.5-.8-.71-.6-.46-1.27-.81-1.87-1.27-.06-.05-.1-.04-.15.02-.16.16-.3.32-.44.5-.26.35-.51.73-.93.92-.19.09-.37.21-.58.27-.3.08-.62.06-.92.09-.35.03-.7-.04-1.06.01.41.44.77.91,1.1,1.41.36.55.7,1.11.95,1.72.13.32.2.66.29.99.16.66.28,1.32.3,2,.04.93-.09,1.85-.13,2.78-.03.62-.22,1.22-.26,1.84-.03.4-.15.8-.2,1.2-.03.24-.09.48-.15.71-.1.37-.34.67-.5,1-.22.46-.54.86-.78,1.3-.2.38-.41.75-.67,1.1-.36.48-.66,1-1.03,1.48-.29.37-.49.81-.78,1.18-.15.2-.29.41-.42.62-.13.2-.22.44-.39.61-.07.07-.15.14-.25.07-.28-.21-.57-.41-.83-.64-.22-.2-.34-.49-.59-.67-.16-.12-.3-.27-.44-.42-.29-.34-.65-.62-.91-.99-.16-.23-.37-.43-.59-.6-.43-.33-.82-.69-1.11-1.16-.2-.33-.41-.67-.64-.98-.27-.35-.45-.75-.6-1.15-.14-.38-.22-.78-.31-1.17-.08-.4-.16-.79-.2-1.19-.03-.29-.02-.57-.05-.9-.06.08-.08.13-.1.19Zm29.12-4.64c0-.31,0-.62.03-.93,0-.1-.06-.2-.08-.31-.17-.65-.39-1.29-.58-1.93-.17-.56-.33-1.13-.54-1.68-.17-.44-.4-.84-.62-1.25-.19-.35-.36-.7-.5-1.07-.16-.38-.34-.75-.53-1.11-.26-.5-.53-1-.84-1.48-.19-.3-.45-.54-.69-.8-.29-.3-.56-.63-.88-.89-.55-.45-1.14-.86-1.87-.96-.56-.07-1.1.02-1.66.08-.69.08-1.28.46-1.93.62-.23.06-.44.14-.66.22-.15.05-.27.14-.37.25-.21.22-.22.32-.04.56.18.25.19.55.24.83.09.53.26,1.04.48,1.53.25.55.52,1.08.83,1.6.22.37.43.75.8,1-.13-.01-.18-.14-.33-.16.13.21.24.4.36.59.18.28.32.57.52.84.4.54.85,1.02,1.31,1.51.56.6,1.25,1.02,1.92,1.47.61.4,1.22.81,1.86,1.18.35.2.74.33,1.09.54.15.09.32.17.47.26.43.26.92.3,1.41.43-.05-.16-.18-.22-.25-.33-.51-.79-1.03-1.57-1.43-2.42-.19-.41-.37-.83-.59-1.23-.19-.34-.49-.6-.75-.89-.43-.46-.89-.89-1.28-1.38.62.61,1.24,1.21,1.85,1.85-.04-.21-.08-.42-.13-.63,0-.01-.02-.03-.04-.03-.34-.04-.43-.32-.54-.56-.12-.25-.18-.51-.19-.79,0-.17.03-.3.2-.37.17-.07.31.03.4.16.31.45.45.93.26,1.47-.05.13.03.24.07.36.15.56.47,1.02.85,1.45.31.35.59.73.88,1.11-.03-.18-.06-.35-.08-.53,0-.04-.03-.05-.06-.06-.35,0-.41-.3-.52-.54-.04-.1-.06-.2-.1-.31-.08-.25.04-.45.17-.64.11-.16.36-.12.47.05.16.23.21.49.25.76.03.2.04.4-.05.6-.07.15.04.3.06.45.09.46.26.88.55,1.26.27.36.53.74.73,1.15.03.06.08.1.13.15-.22-.15-.31-.4-.47-.6-.17-.22-.29-.46-.49-.68.24.62.62,1.14.98,1.68,0-.13-.02-.27-.03-.4-.06-.35-.06-.7-.05-1.05Zm-27.15-12.31c-.62-.33-1.2-.72-1.77-1.14-.78-.57-1.5-1.19-2.18-1.87-.21-.2-.49-.33-.71-.51-.37-.31-.74-.63-1.04-1.01-.08-.11-.19-.2-.27-.31-.08-.1-.17-.22-.06-.35.11-.12.22-.18.41-.11.5.19.95.47,1.34.84.29.28.54.59.76.93.04.07.11.14.08.21-.07.2.08.3.19.4,1.03.95,2.13,1.82,3.35,2.52.83.48,1.63.99,2.49,1.41.54.27,1.11.49,1.75.41.06,0,.12-.02.17-.04.06-.02.08-.05.03-.12-.43-.59-.87-1.17-1.34-1.73-.23-.28-.45-.57-.71-.83-.29-.29-.64-.52-.95-.79-.08-.07-.17-.13-.24-.21-.34-.33-.8-.45-1.18-.7-.19-.12-.39-.23-.54-.4-.15-.17-.2-.43-.11-.56.11-.17.34-.23.58-.14.27.11.54.23.81.35.04.02.1.04.1.09-.02.23.16.39.21.61.05.26.31.39.51.53.91.68,1.63,1.53,2.27,2.46.27.39.55.78.79,1.19.06.09.13.08.21.06.08-.03.09-.1.05-.18-.08-.15-.15-.3-.23-.45-.12-.24-.17-.5-.19-.76-.03-.4-.26-.67-.53-.93-.49-.46-.91-.97-1.33-1.49-.39-.48-.79-.97-1.24-1.41-.48-.47-1.05-.8-1.58-1.2-.54-.41-1.03-.88-1.54-1.34-.39-.36-.74-.76-1.11-1.14-.41-.42-.75-.9-1.11-1.36-.11-.15-.23-.29-.37-.41-.68-.58-1.3-1.21-1.9-1.86-.36-.39-.76-.73-1.18-1.06-.44-.36-.88-.72-1.39-.97-.5-.24-.93-.61-1.43-.83-.29-.13-.51-.39-.78-.56-.31-.2-.59-.43-.93-.59-.37-.17-.61-.51-.82-.85-.14-.24-.26-.5-.45-.71-.11.27-.04.52,0,.76.09.5.13,1.02.3,1.5.29.85.35,1.77.7,2.6.19.45.4.89.6,1.34.18.4.36.8.53,1.2.06.14.18.26.19.43-.15-.16-.22-.36-.31-.55-.27-.56-.54-1.12-.82-1.67-.34-.68-.58-1.4-.74-2.15-.11-.51-.24-1.01-.4-1.5-.1-.32-.14-.66-.19-1,0-.02,0-.05-.05-.07-.08.3-.2.59-.23.9-.06.49-.1.98-.11,1.48-.01.45-.07.89-.12,1.34-.07.63-.07,1.26-.02,1.89.05.6.08,1.2.15,1.79.09.71.19,1.43.44,2.11.14.38.25.77.39,1.15.12.32.29.63.43.95.18.41.35.83.54,1.25.24.53.6.98.93,1.45.43.61.97,1.13,1.6,1.52.48.3,1,.55,1.49.86.7.43,1.42.83,2.18,1.14.24.1.49.17.74.26.09.03.14.03.2-.07.1-.19.31-.2.48-.19.57.03,1.13.14,1.65.41.17.09.38.07.56.08,1.01.05,2.02.04,3.02-.03.63-.05,1.27-.07,1.88-.27.01,0,.02-.01.05-.03-.24-.06-.47-.03-.69-.07-1.05-.17-2.09-.38-3.09-.74-.5-.18-.99-.42-1.48-.62-.46-.19-.93-.37-1.4-.55-.54-.21-1.08-.42-1.6-.68-.55-.28-1.1-.57-1.64-.88-.34-.2-.73-.29-1.03-.56-.19-.17-.39-.31-.56-.5-.08-.09-.15-.2-.07-.33.07-.12.2-.16.33-.12.49.13.96.29,1.2.8.07.15.22.26.38.34.53.28,1.04.58,1.57.85.58.3,1.18.54,1.79.76.8.29,1.57.65,2.35.99.07.03.14.07.24.08-.23-.22-.5-.36-.75-.58.3.09.5.27.69.43.45.39,1.01.47,1.54.62.47.14.95.22,1.43.32.28.06.56.08.85.11.04,0,.08.01.12-.04-1.11-.37-2.07-1.04-3.09-1.59Zm4.48,25.54c.01.17.02.33.03.5,0,.03,0,.07.03.08.03.01.05-.01.07-.04.38-.68.89-1.28,1.24-1.98.1-.21.27-.36.4-.55.19-.27.34-.58.54-.84.36-.49.61-1.05.92-1.57.34-.58.66-1.16,1-1.74.2-.33.19-.71.31-1.06.24-.69.23-1.44.44-2.13.18-.57.12-1.15.2-1.72.09-.64.12-1.28.05-1.92-.06-.66-.18-1.31-.35-1.95-.32-1.28-1.09-2.29-1.86-3.3-.21-.27-.44-.52-.72-.72-.15-.11-.33-.15-.49-.23-.34-.17-.62-.41-.88-.66-.17-.16-.35-.23-.57-.11-.03.01-.06.03-.09.02-.18-.06-.19.06-.2.19-.09.99-.26,1.96-.42,2.94-.14.82-.26,1.63-.4,2.45-.13.72-.23,1.44-.48,2.14-.1.28-.08.59-.17.87-.1.3-.19.61-.37.89-.13.21-.18.46-.26.7-.06.16-.14.32-.23.46-.07.1-.18.13-.27.15-.12.03-.24-.15-.19-.32.13-.45.26-.89.4-1.33.17-.52.43-1.01.62-1.53.03-.08.07-.16.15-.19.07-.03.07-.09.09-.14.15-.5.23-1.02.33-1.53.1-.57.2-1.14.29-1.71.16-1.03.37-2.05.51-3.09.11-.76.21-1.52.25-2.29.02-.26.02-.53-.04-.8-.1.23-.2.46-.3.69-.24.58-.51,1.14-.79,1.7-.25.5-.43,1.02-.64,1.53-.26.63-.56,1.25-.75,1.91-.13.45-.24.9-.47,1.31-.19.35-.44.64-.8.81-.17.09-.35.08-.49-.07-.06-.07-.09-.05-.13.02-.35.56-.61,1.17-.9,1.76-.29.59-.39,1.22-.49,1.86-.14.95-.2,1.9-.05,2.85.11.69.24,1.37.47,2.03.12.35.34.66.44,1.01.12.41.41.69.65,1.02.38.53.91.89,1.4,1.29.16.13.28.3.4.46.43.58.94,1.1,1.43,1.63.13.14.23.31.33.47.17.27.46.4.7.58.08.06.08-.07.07-.12-.1-.46-.1-.94-.15-1.41-.02-.25-.05-.5.02-.74.03.5.12,1,.15,1.5Zm-2.97-22.66c-.71.07-1.42.17-2.14.12-.57-.04-1.13-.08-1.7-.12-.06,0-.12,0-.16.03-.07.07-.16.06-.24.04-.35-.07-.71-.11-1.06-.08-.22.02-.43-.04-.61-.16-.27-.17-.58-.22-.86-.33-.78-.31-1.61-.41-2.42-.6-.27-.06-.53-.17-.8-.27-.41-.16-.85-.17-1.28-.25-.48-.1-.97.03-1.44-.04-.63-.09-1.24.05-1.87.08-.27.01-.55-.05-.82-.01-.48.07-.96.14-1.43.22-.47.09-.94.14-1.42.18-.33.03-.64.13-.95.25-.33.14-.68.24-1.03.34-.39.1-.73.33-1.08.52-.4.22-.79.45-1.2.65-.23.11-.49.16-.73.25-.35.13-.69.26-1.04.43.11.08.23.09.34.1.44.04.87.12,1.27.28.42.17.85.27,1.29.36.4.08.79.24,1.19.31.56.09,1.12.16,1.67.3.23.06.47.13.7.21-.26-.04-.53-.09-.79-.13-.56-.1-1.12-.19-1.67-.32-.55-.13-1.08-.3-1.64-.36-.34-.04-.63-.2-.95-.29-.35-.09-.71-.13-1.11-.21.32.25.63.45.93.65.35.23.67.49.98.78.33.32.71.58,1.11.81.36.21.74.35,1.12.51.24.1.45.24.65.4.35.28.76.32,1.18.36.53.05,1.06.12,1.59.24.17.04.35.05.52.1-.84-.02-1.66-.19-2.52-.27.08.12.2.16.3.21.91.46,1.81.93,2.69,1.46.75.45,1.56.68,2.44.69.5,0,1,.05,1.5.04.33,0,.65-.09.98-.1.43,0,.86.03,1.28.02.42-.01.81-.12,1.21-.21.64-.15,1.2-.5,1.75-.85.12-.08.26-.13.39-.19.73-.35,1.4-.8,2.06-1.26.36-.25.68-.56,1-.87.18-.17.43-.28.62-.46.31-.28.64-.54.97-.79.34-.25.68-.49,1.04-.73.25-.17.48-.37.7-.58.64-.64,1.25-1.32,1.98-1.86,0,0,.01-.02.03-.06-.47.35-1,.58-1.45.91-.47.35-1,.61-1.53.87-.32.15-.6.37-.91.55-.35.2-.69.4-1.06.56-.38.17-.76.35-1.13.54-.56.28-1.16.47-1.77.61-.43.1-.84.26-1.28.33-.49.07-.99.03-1.48.1-.4.06-.8.05-1.2.06-.09,0-.16,0-.22.09-.05.07-.13.09-.21.1-.86.07-1.73.09-2.57-.15-.07-.02-.14-.05-.2-.08-.1-.05-.17-.13-.17-.24,0-.11.08-.17.18-.21.48-.19.98-.26,1.49-.23.3.02.59.04.89.07.2.02.37.1.49.26.05.07.1.09.18.08.49-.03.98-.03,1.47-.09.29-.04.59-.06.89-.06.44,0,.86-.11,1.27-.23.41-.12.83-.22,1.24-.33.32-.09.62-.25.93-.39.5-.22,1-.46,1.49-.7.27-.13.53-.27.78-.43.38-.25.78-.45,1.18-.65.44-.21.84-.48,1.26-.73.24-.14.47-.29.69-.46-.07.03-.15.05-.22.09-.68.36-1.41.58-2.12.86-.55.22-1.12.37-1.68.56-.33.11-.69.13-1.03.23-.46.14-.94.21-1.41.32-.49.12-.99.17-1.49.21-.64.04-1.26.18-1.89.25-.38.05-.77.05-1.16.08-.28.02-.56.09-.85.06-.08,0-.16,0-.23-.03-.09-.05-.22-.06-.21-.21,0-.14.11-.22.22-.25.5-.15,1.01-.25,1.54-.27.29-.01.58-.03.87-.06.21-.02.39.04.51.21.09.12.19.14.34.13.72-.03,1.44-.12,2.15-.24.65-.11,1.29-.3,1.94-.44.58-.13,1.13-.34,1.68-.55-.46.06-.92.12-1.38.18,0-.01,0-.03,0-.04.38-.07.75-.16,1.14-.2.64-.07,1.25-.24,1.83-.51.16-.07.34-.1.48-.22-.27.02-.52.14-.79.17Zm26.41,10.24c.05-.33.1-.66.21-.98.02-.07.04-.14-.05-.21-.07-.06-.09-.16-.09-.26,0-.36.07-.7.19-1.04.05-.15.17-.25.33-.26.08,0,.1-.04.12-.1.4-1.13.79-2.26,1.19-3.39.03-.08.06-.14-.05-.22-.16-.11-.15-.32-.13-.48.08-.52.24-1.01.55-1.44.06-.09.15-.14.24-.19.14-.07.32.02.36.18.06.2,0,.39-.06.58-.17.52-.36,1.03-.78,1.41-.08.07-.09.2-.13.31-.33,1.04-.65,2.08-1.01,3.1-.08.22-.03.44-.05.67-.03.31-.08.62-.21.9-.04.09-.08.18-.18.22-.06.02-.06.07-.07.12-.1.62-.29,1.23-.29,1.87,0,.07-.01.14,0,.23.08-.18.17-.36.25-.54.37-.82.81-1.61,1.23-2.41.3-.57.65-1.1,1.01-1.63.07-.1.1-.18,0-.28-.06-.06-.05-.15-.03-.22.1-.65.34-1.23.81-1.7.11-.11.26-.13.4-.12.2.01.31.2.26.43-.08.37-.25.7-.48.99-.23.3-.46.58-.75.84-.22.2-.36.5-.51.77-.68,1.24-1.34,2.48-1.92,3.77-.12.28-.21.57-.32.85.1.04.13-.03.18-.09.27-.4.47-.82.71-1.24.3-.54.67-1.05,1.01-1.57.63-.94,1.32-1.83,1.98-2.74.41-.57.82-1.13,1.27-1.67.38-.45.76-.9,1.16-1.34.33-.36.68-.7,1.03-1.04.34-.34.65-.7.92-1.09.33-.46.71-.89.97-1.4.36-.71.69-1.42.88-2.19.22-.92.35-1.85.35-2.8,0-.5.05-1,0-1.5-.1-.96-.44-1.81-.97-2.6-.24-.36-.4-.76-.61-1.14-.02-.03-.03-.08-.09-.09-.09.31-.17.62-.26.93-.17.63-.36,1.25-.72,1.81-.24.37-.38.8-.59,1.24,0-.21.08-.35.15-.49.2-.4.42-.8.6-1.21.27-.62.39-1.28.6-1.92.05-.14.08-.28.12-.41.03-.09.02-.18-.04-.25-.07-.09-.14-.12-.22,0-.38.54-.87.99-1.35,1.44-.36.35-.79.59-1.22.84-.45.27-.82.63-1.17,1.02-.27.3-.57.56-.87.82-.09.08-.15.17-.19.28-.07.17-.14.34-.29.47-.23.2-.49.12-.59-.17-.05-.15-.03-.31-.05-.46-.01-.17-.07-.13-.16-.07-.09.06-.16.13-.21.22-.4.73-.89,1.4-1.3,2.13-.18.32-.28.67-.36,1.03-.17.77-.31,1.55-.37,2.34-.04.55-.05,1.11-.09,1.66-.04.64-.1,1.27-.15,1.91-.04.55-.1,1.09-.17,1.64,0,.05-.02.1,0,.16.19.37.1.75.03,1.12-.05.27-.16.52-.29.76-.1.18-.08.43-.09.65-.06.85-.09,1.69-.05,2.54.02.4.01.8.07,1.2.04.28.09.56.23.82,0-.45.06-.89.13-1.32Zm-24.84-8.16c-.27.4-.55.79-.89,1.14-.24.25-.43.56-.64.83-.37.47-.78.9-1.13,1.39-.27.38-.54.76-.88,1.08-.59.57-1.1,1.22-1.74,1.75-.34.28-.63.64-.96.93-.31.28-.63.54-.93.84-.34.35-.7.68-.94,1.13-.25.46-.61.84-.96,1.24-.29.33-.6.61-1,.8-.09.05-.18.07-.27,0-.09-.07-.09-.17-.07-.28.16-.67.51-1.24.96-1.76.28-.32.53-.66.92-.86.17-.09.35-.16.52-.24.05-.02.12-.02.15.02.11.11.18.03.25-.04.52-.56,1.13-1.03,1.66-1.57.45-.46.95-.86,1.38-1.35.4-.45.84-.86,1.22-1.33.32-.39.6-.8.92-1.19.47-.57.93-1.15,1.41-1.71.33-.39.61-.81.91-1.22.27-.37.54-.74.8-1.12.17-.24.33-.5.47-.8-.48.38-.92.76-1.29,1.2-.48.58-1.03,1.11-1.52,1.69-.25.29-.46.62-.71.91-.29.35-.61.68-.98.95-.2.14-.31.32-.41.52-.26.57-.73.92-1.26,1.2-.13.07-.28.07-.42.07-.19,0-.3-.22-.21-.42.13-.28.28-.54.45-.79.02-.02.04-.04,0-.1-.2.14-.4.27-.6.42-.21.15-.43.28-.65.41-.69.41-1.41.79-2.12,1.17-.36.2-.72.41-1.08.6-.22.12-.45.23-.68.32-.6.24-1.12.6-1.61,1.01-.26.21-.53.41-.74.67-.38.47-.76.94-1.03,1.5-.16.34-.34.68-.48,1.03-.21.5-.31,1.03-.38,1.56-.12.89-.03,1.8-.06,2.69-.01.38-.04.76-.07,1.14-.04.52.03,1.03.16,1.54.11.43.17.87.21,1.32,0,.03.01.06.03.13.33-.6.72-1.12,1.15-1.64-.29.6-.67,1.12-.99,1.72.54-.22,1.09-.19,1.58-.41.22-.1.43-.22.63-.35.25-.17.53-.21.81-.28.17-.04.3-.11.41-.26.19-.24.31-.52.51-.75-.06.29-.25.51-.4.8.26-.04.47-.12.66-.24.39-.25.76-.52,1.03-.91.01-.02.03-.04.05-.05.37-.27.61-.65.9-.99.53-.65,1.09-1.29,1.64-1.93.21-.25.46-.47.65-.74.31-.44.51-.94.6-1.47.1-.56.23-1.11.32-1.66.11-.63.36-1.2.66-1.76.13-.24.25-.5.38-.75.08-.16.16-.32.27-.46.21-.26.24-.57.35-.87.15-.41.41-.75.76-.98.45-.3.67-.74.91-1.19.39-.74.71-1.52,1.07-2.28.24-.51.52-1.01.78-1.51.02-.05.04-.1.06-.14-.25.17-.38.43-.54.66Zm-4.81-25.39c-.15.61-.3,1.2-.42,1.81-.11.52-.14,1.05-.29,1.56-.07.22-.15.44-.26.64-.13.24-.16.49-.16.76,0,.39-.11.78-.13,1.17-.04.76-.08,1.52.05,2.27.07.45.1.9.15,1.35.07.65.19,1.3.4,1.93.13.38.39.7.64,1.02.62.8,1.28,1.55,1.93,2.32.35.41.75.79,1.16,1.14.1.08.19.18.32.29-.08-.26-.2-.46-.21-.7.17.27.33.54.5.81.14.22.22.49.41.68.05.04.07.11.14.14.01-.02.03-.04.03-.05-.09-.53.29-.82.58-1.17.29-.35.7-.48,1.09-.66.38-.17.76-.32,1.14-.48.06-.03.14-.05.03-.12-.25-.16-.31-.43-.36-.68-.07-.3-.17-.59-.24-.88-.13-.48-.28-.95-.27-1.45.01-.35.09-.69.15-1.04.02-.15.05-.31.08-.46.13-.56.3-1.1.61-1.59.06-.09.08-.18.11-.28.04-.15.03-.33.21-.43.07-.04.04-.13.02-.2-.15-.51-.26-1.03-.41-1.54-.17-.59-.41-1.16-.79-1.64-.62-.8-1.26-1.6-2.18-2.09-.53-.28-1.01-.63-1.46-1.01-.03-.02-.06-.03-.11-.06.16.45.48.82.54,1.29-.11-.18-.19-.37-.29-.55-.15-.27-.27-.55-.41-.82-.03-.07-.09-.1-.16-.15-.52-.35-1.06-.65-1.61-.95-.12-.06-.22-.15-.37-.26.15.53.39.99.48,1.49.1.5.19.99.28,1.49-.28-.97-.52-1.95-.93-2.9Zm28.09,25.16c.03.34.1.67.21.99,0-.07.02-.15.02-.22,0-.26.15-.45.3-.63.14-.17.38-.13.43.09.12.54.19,1.12-.12,1.59-.27.39-.16.76-.15,1.14,0,.5.11.99.18,1.48,0,.04,0,.09,0,.14-.02-.07-.04-.14-.06-.21-.03.43.02.84.04,1.17.04-.14.1-.36.15-.59,0-.03,0-.06,0-.09.03-.18.03-.35-.04-.54-.19-.52-.12-1.05,0-1.57.04-.17.14-.3.33-.29.12,0,.1-.09.1-.15.06-.56.12-1.12.15-1.68.03-.58.09-1.16.1-1.74.03-.95.07-1.89.22-2.82.08-.48.04-.97.04-1.45,0-.4.04-.8.06-1.2.03-.47-.06-.94-.11-1.41-.09-.98-.44-1.9-.76-2.82-.19-.53-.48-1.02-.81-1.49-.3-.42-.61-.83-1.02-1.14-.5-.38-1.08-.6-1.68-.78-.72-.21-1.46-.29-2.21-.38-.15-.02-.31,0-.46-.04-.07-.02-.1,0-.11.08-.06.88-.35,1.69-.63,2.51-.21.61-.43,1.21-.57,1.83-.2.92-.24,1.85-.06,2.78.1.53.22,1.05.44,1.54.15.34.32.68.5,1.01.02.04.06.05.1.07.71.35,1.32.83,1.85,1.42.29.32.64.59.87.96.29.47.57.95.81,1.45.21.43.45.86.62,1.31.24.64.59,1.22.87,1.84.27.58.44,1.2.6,1.81.11.4.22.79.37,1.18,0-.27-.01-.53-.02-.8-.02-.5-.02-.99-.06-1.49-.04-.52-.21-1.02-.34-1.52-.15-.6-.28-1.21-.33-1.83-.06-.79-.22-1.57-.4-2.35-.03-.12-.05-.24-.07-.37.37,1.03.51,2.11.62,3.19Zm5.3,5.38c.08-.06.16-.11.26-.04.09.07.06.17.03.25-.09.27-.25.52-.42.75-.23.3-.46.61-.76.85-.57.45-.86,1.12-1.31,1.66-.23.27-.46.53-.69.8-.02.02-.03.05-.08.11.25-.09.44-.21.62-.34.34-.24.66-.49,1-.73.41-.3.81-.61,1.21-.93.48-.38.87-.85,1.3-1.28.09-.09.14-.21.13-.3-.03-.42.2-.73.4-1.06.19-.32.42-.62.74-.83.12-.08.23-.17.38-.09.15.08.16.24.13.38-.09.47-.32.87-.62,1.24-.21.26-.48.46-.75.65-.04.03-.09.06-.13.03-.13-.08-.18.01-.24.09-.45.57-.98,1.07-1.53,1.55-.42.37-.89.68-1.34,1.02-.38.29-.76.57-1.2.78-.07.04-.15.07-.24.11.1.05.19.01.27,0,.72-.13,1.4-.41,2.04-.76.63-.34,1.29-.62,1.9-1.01.4-.25.79-.53,1.19-.78.03-.02.06-.05.07-.08.06-.39.34-.67.57-.96.25-.33.52-.65.87-.89.22-.15.38-.17.54-.05.13.1.17.34.09.54-.19.44-.51.77-.85,1.1-.2.2-.45.36-.69.52-.13.09-.25.09-.35-.03-.1-.11-.19-.08-.29,0-.22.2-.49.32-.73.49-.39.28-.8.49-1.24.69-.37.17-.72.37-1.08.57-.27.14-.54.27-.83.38-.04.02-.09.03-.12.09.36-.08.72-.17,1.07-.24.48-.09.97-.15,1.44-.27.43-.11.86-.19,1.29-.29.27-.06.55-.04.81-.11.54-.14,1.07-.34,1.6-.52.69-.23,1.3-.62,1.91-1.01.37-.24.76-.44,1.14-.67.17-.1.33-.23.47-.36.21-.2.47-.34.7-.51.83-.62,1.43-1.43,1.93-2.32.44-.79.81-1.61,1.05-2.49.15-.57.28-1.14.34-1.73,0-.03,0-.06,0-.14-.51.66-.97,1.29-1.46,1.9-.49.61-1.12,1.09-1.66,1.65.18-.29.44-.52.68-.75.39-.38.76-.78,1.08-1.22.33-.44.65-.91,1.04-1.3.45-.45.47-.98.38-1.54-.1-.72-.34-1.41-.58-2.1-.05-.13-.04-.33-.17-.37-.1-.04-.26.07-.39.11-.58.19-1.14.43-1.65.76-.5.33-.98.7-1.45,1.08-.36.3-.74.58-1.15.82-.19.11-.34.28-.52.41-.58.43-1.12.89-1.67,1.35-.33.28-.62.6-.94.88-.62.55-1.12,1.2-1.68,1.8-.77.83-1.41,1.77-2.09,2.67-.11.15-.23.29-.34.43.23-.09.39-.27.58-.41Zm-21.89-7.09c.65,0,1.3-.07,1.94-.13.06,0,.08-.02.1-.07.15-.35.3-.72.56-1.01.39-.44.64-.99,1.08-1.39.08-.07.04-.11,0-.16-.35-.37-.59-.8-.75-1.27-.27-.78-.59-1.52-1.06-2.21-.44-.64-1-1.11-1.64-1.51-.11-.07-.24-.09-.37-.12-.76-.17-1.51-.38-2.25-.62-.07-.02-.15-.05-.21-.02-.21.12-.41.02-.62.02-.51-.02-.98.09-1.45.32-.43.21-.88.38-1.32.58-.18.08-.31.21-.44.34-.16.15-.31.32-.45.49-.18.23-.18.73,0,1,.25.37.59.66.9.97.12.12.25.29.4.31.14.02.26-.19.4-.28.3-.19.59-.39.92-.52.06-.02.12-.04.19-.04.05,0,.12-.04.14.03.02.07-.05.09-.1.11-.35.13-.65.36-.95.57-.11.08-.22.16-.33.24-.08.06-.07.1-.01.17.15.17.32.32.39.55.04.12.08.24.09.36.03.33.11.63.27.92.03.06.04.12.02.19-.04.17-.01.34-.04.52-.04.29-.2.53-.3.8-.21.51-.23,1.03-.21,1.56.02.42.03.85-.02,1.27-.03.24.06.44.39.37.27-.05.48.11.69.26.26.18.51.36.82.46.22.07.42.18.65.21.45.06.9.07,1.35.05.18,0,.36,0,.53-.04.49-.11.92-.35,1.27-.72.25-.27.44-.59.74-.82.06-.05.11-.13.05-.22-.06-.09,0-.14.08-.13.08,0,.11-.02.13-.08.11-.37.28-.72.34-1.1.02-.13,0-.15-.13-.13-.62.12-1.24.11-1.87.07-.07,0-.13-.01-.2-.02-.02,0-.03-.01-.07-.03.11-.08.22-.06.31-.06Zm20.24,29.42c-.39-.46-.78-.92-1.15-1.4-.32-.42-.67-.81-.99-1.23-.36-.46-.71-.93-1.08-1.39-.35-.44-.73-.86-1.1-1.28-.42-.49-.9-.91-1.37-1.35-.55-.51-1.16-.95-1.75-1.41-.82-.63-1.65-1.25-2.53-1.8-.62-.39-1.27-.71-1.95-1-.28-.12-.56-.23-.84-.36-.32-.15-.64-.32-1-.37-.21-.03-.43.03-.64.07-.11.02-.06.12,0,.17.36.34.67.73,1.01,1.1.52.57,1.04,1.14,1.57,1.69.34.35.72.67,1.07,1.01.31.3.61.61.92.91.56.56,1.09,1.15,1.7,1.65.59.49,1.22.95,1.8,1.46.64.56,1.32,1.06,2.04,1.52.44.28.85.62,1.29.91.25.17.53.3.8.44.44.22.85.49,1.28.73.59.33,1.15.7,1.71,1.06.04.03.09.05.14.07-.3-.42-.61-.81-.94-1.19Zm-7.19-14.47c.47.25.92.53,1.44.69.56.17,1.13.34,1.72.34.4,0,.81-.08,1.2-.16.23-.05.45-.09.67-.18.34-.14.56-.4.79-.66.05-.05.02-.12.01-.19-.04-.24-.04-.25.2-.32.03,0,.06-.01.06-.05,0-.06-.02-.11-.07-.15-.16-.1-.33-.18-.48-.31-.37-.31-.63-.7-.9-1.09-.08-.11-.07-.26-.05-.4.08-.55-.14-1-.46-1.43-.21-.28-.5-.37-.8-.44-.43-.1-.81-.33-1.22-.46-.74-.24-1.5-.41-2.26-.57-.41-.08-.79-.03-1.19.04-.12.02-.23.05-.35.07-.23.04-.37.2-.42.41-.18.75-.06,1.47.32,2.14.21.38.41.76.57,1.17.12.31.3.59.44.86.25.28.47.54.79.7Zm11.48-3.88c-.57,0-1.13.14-1.68.27-.65.15-1.3.26-1.95.39-.6.12-1.21.15-1.81.24-.1.02-.2.04-.3.07-.06.02-.12.03-.15,0-.09-.09-.16-.07-.23.03-.02.03-.06.05-.07.03-.14-.14-.24.08-.37.03-.03-.01-.04.05-.06.08-.09.23-.13.47.04.66.22.27.39.59.67.81.37.3.78.55,1.22.73.34.14.68.24,1.05.27.46.03.89-.08,1.32-.22.65-.23,1.24-.59,1.8-.98.38-.26.74-.57,1.13-.82.54-.35,1.14-.57,1.75-.77.31-.1.58-.25.7-.59-1.02-.14-2.03-.23-3.05-.22Zm-13.84-.97c.09-.41.34-.64.76-.69.25-.03.49-.09.74-.13.22-.03.43-.01.64.03.34.06.69.11,1.07.18-.68-.31-1.26-.73-1.86-1.12-.56-.36-1.13-.72-1.67-1.11-.36-.25-.63-.61-.95-.91-.26-.25-.48-.53-.71-.81-.02-.02-.03-.06-.07-.05-.17.05-.29-.06-.42-.12-.42-.18-.86-.26-1.31-.1-.2.07-.44.04-.6.23-.03.03-.1.04-.15.04-.2,0-.27.16-.36.28-.07.09.02.18.08.25.19.22.34.46.48.71.27.46.67.78,1.05,1.11.46.4.87.85,1.33,1.25.52.45,1.02.92,1.6,1.28.09.06.18.12.28.2.02-.18.03-.35.06-.51Zm12.28,20.53c.15-.4.41-.73.72-1.02.26-.25.43-.55.51-.89.1-.43.25-.85.37-1.28.15-.54.26-1.09.34-1.65.08-.57.24-1.12.48-1.65.11-.23.22-.46.33-.7.11-.22.07-.31-.16-.4-.33-.13-.65-.1-.96.06-.49.24-.91.58-1.23,1.03-.25.35-.41.75-.49,1.16-.07.37-.19.73-.3,1.09-.23.76-.34,1.54-.26,2.34.07.67.03,1.34.06,2,.01.25.01.51.18.76.16-.3.3-.58.41-.87Zm-3.42-7.09c-.14-.33-.25-.67-.31-1.02-.16-.91-.28-1.82-.36-2.74-.05-.66-.09-1.32-.1-1.99,0-.6.04-1.21.06-1.81,0-.18-.04-.37.04-.58-.14.05-.19.14-.26.21-.23.22-.52.32-.81.4-.45.12-.91.19-1.37.24-.57.06-1.12-.07-1.66-.21-.24-.07-.47-.16-.71-.23-.03.07,0,.1.04.13.5.51.99,1.03,1.51,1.52.49.46.88,1.01,1.24,1.58.37.58.72,1.18,1.09,1.75.29.44.53.91.77,1.38.2.38.44.74.63,1.13.06.12.12.25.18.39.05-.06.05-.1.03-.15Zm-15.58-19.32c-.54.12-.97.39-1.32.81-.28.32-.52.65-.64,1.07-.05.19-.02.37.02.55.14.51.17,1.02.15,1.55-.02.52.17.99.39,1.45.09.19.2.38.3.57.1.18.3.28.48.25.22-.03.42-.22.48-.41.12-.36.05-.72.06-1.09,0-.29-.05-.57-.06-.86,0-.39.04-.77.2-1.12.17-.38.28-.77.31-1.17.05-.57.07-1.14.23-1.7-.19.14-.41.06-.61.11Zm-7.55-16.62c-.12.23-.29.36-.49.44.08-.08.16-.15.23-.24.15-.18.25-.37.19-.62-.11-.47-.13-.95-.17-1.43-.03-.31-.09-.61-.14-.91-.03-.01-.05,0-.06.03-.06.3-.23.54-.36.81-.28.61-.44,1.26-.51,1.93-.03.3-.14.6-.07.9.05.24.05.5.13.74.08.26.14.52.21.78.06.22.15.43.17.66.04.37.47.49.75.48.12,0,.24-.03.36-.04.11-.01.22.02.35.06-.08-1.21-.33-2.38-.6-3.59Zm-8.02,12.19c.45.04.9.06,1.35.09.46.03.93-.03,1.39-.08.55-.06,1.1-.16,1.63-.33.25-.08.48-.19.74-.24.08-.02.15-.07.24-.16-.69.3-1.37.42-2.08.49-.91.09-1.83.14-2.74.14-.3,0-.61-.02-.91-.04-.14,0-.28.02-.41.07.26.07.53.05.79.07Zm31.31,10.41c.29-.4.57-.8.89-1.18.08-.09.11-.19.1-.32,0-.21.12-.39.21-.58.03-.05.08-.1.08-.22-.71,1.04-1.43,2.01-1.99,3.1.27-.23.49-.51.7-.8Zm-30.31-6.13s.03-.02.05-.02c.38.08.53-.25.74-.43.31-.28.58-.61.82-.96-.77.49-1.45,1.1-2.18,1.64.18-.1.38-.14.57-.22Zm26.65,4.49c-.08-.32-.3-.56-.49-.82-.24-.32-.49-.65-.75-.96.46.91.92,1.82,1.56,2.63-.12-.28-.24-.56-.31-.85Z"/><path d="m22.99,62.14c.36.38.77.69,1.19,1,.45.33.9.66,1.36.98.5.35.95.76,1.46,1.09.05.03.1.11.15.04.03-.05-.02-.12-.07-.16-.27-.21-.54-.44-.82-.63-.89-.61-1.8-1.2-2.65-1.86-.2-.16-.37-.36-.62-.46Z"/><path d="m16.79,64.22c.83.54,1.65,1.11,2.56,1.52-.84-.53-1.68-1.06-2.56-1.52Z"/><path d="m11.5,58.86c-.33-.5-.58-1.04-.94-1.51-.26-.34-.56-.64-.78-1.01-.02-.03-.04-.05-.08-.03-.05.02-.02.06,0,.09.12.23.3.42.46.62.49.59.9,1.23,1.35,1.84Z"/><path d="m17.08,55.6c.09.29,1.66,2.29,1.9,2.45-.59-.87-1.3-1.62-1.9-2.45Z"/><path d="m15.77,59.72c.36.56.82,1.01,1.35,1.4-.45-.47-.9-.94-1.35-1.4Z"/><path d="m21,60.26c-.35-.36-.72-.7-1.06-1.08.28.43.67.75,1.06,1.08Z"/><path d="m12.08,59.66c.26.31.52.63.78.94,0,0,.01-.01.02-.02-.25-.32-.5-.64-.75-.96l-.05.04Z"/><path d="m13.17,56.55c.14.36.42.62.65.91-.25-.28-.44-.61-.65-.91Z"/><path d="m19.88,59.08c-.17-.21-.35-.42-.52-.63.14.24.29.47.52.63Z"/><path d="m13,56.29c-.09-.21-.23-.38-.38-.55l.38.55Z"/><path d="m27.48,79.79c-.16.77-.16,1.55-.13,2.34.08-.78.16-1.55.13-2.34Z"/><path d="m23.98,84.44c.02.71-.02,1.42.02,2.13.02,0,.05,0,.07,0-.01-.71-.03-1.42-.04-2.13-.02,0-.03,0-.05,0Z"/><path d="m29.97,71.44c-.06.25-.02.51,0,.76.05-.25.09-.5,0-.76Z"/><path d="m12.21,66.94c-.14-.06-.29-.08-.43-.1-.42-.06-.85-.12-1.27-.18-.03,0-.06-.01-.09-.01-.04,0-.09-.01-.1.05,0,.06.05.06.09.07.27.04.54.09.81.11.3.02.59.07.89.09.03,0,.07.04.1-.02Z"/><path d="m14.03,67.37c.54.18,1.09.18,1.65.14-.55-.06-1.1-.07-1.65-.14Z"/><path d="m61.2,60.61c-.35.69-.67,1.39-1.03,2.08.43-.65.72-1.37,1.03-2.08Z"/><path d="m56.54,69.43c-.21.27-.36.57-.46.9.15-.3.31-.6.46-.9Z"/><path d="m57.54,62.67c-.14.19-.25.38-.33.61.15-.18.22-.4.33-.61Z"/><path d="m54.32,70.3c-.1.17-.19.35-.23.54.12-.16.19-.35.23-.54Z"/><path d="m13.22,85.69c.22-.16.99-1.25,1.06-1.5-.43.48-.71,1.02-1.06,1.5Z"/><path d="m18.32,73.96c-.47.44-.92.91-1.42,1.33.21-.04,1.12-.89,1.42-1.33Z"/><path d="m14.1,78.22c-.21.19-.41.37-.61.56-.08.08-.15.17-.23.25-.02.02-.03.06-.01.08.03.03.06,0,.08-.01.27-.28.54-.56.81-.84-.01-.01-.02-.02-.03-.03Z"/><path d="m15.55,76.76c-.27.26-.56.51-.77.82.31-.23.53-.53.77-.82Z"/><path d="m18.12,78.92c.26-.24.42-.56.63-.83-.24.26-.46.53-.63.83Z"/><path d="m25.76,52.41c.15,1.2.52,2.35.89,3.5-.11-1.21-.5-2.36-.89-3.5Z"/><path d="m23.73,52.41c-.34-1.47-.94-2.88-1.15-4.39.08,1.54.7,2.95,1.15,4.39Z"/><path d="m25.53,50.68c0-.9-.4-1.69-.74-2.49.16.85.62,1.62.74,2.49Z"/><path d="m22.58,54.99c.04-.14-.03-.23-.06-.32-.16-.56-.2-1.15-.44-1.68-.04-.09-.09-.18-.16-.26-.02-.03-.05-.06-.09-.03-.03.02,0,.05,0,.08.21.43.33.88.43,1.34.07.29.2.56.31.86Z"/><path d="m27,57.37c.02.41.12.8.22,1.19,0,.03.02.08.06.07.05-.01.04-.06.04-.1,0-.17-.05-.33-.09-.49-.06-.23-.12-.46-.23-.67Z"/><path d="m25.6,58.22c.1.35.11.75.4,1.02.02,0,.04-.02.05-.02l-.45-1Z"/><path d="m23.8,52.71c.04.13.08.26.11.4,0-.14-.01-.28-.11-.4Z"/><path d="m45.6,56.61c-.22-.69-.58-1.31-.82-1.99-.1.07-.09.13-.06.2.28.58.6,1.14.85,1.74,0,.02.03.04.04.06Z"/><path d="m48.22,57.56c-.14-.44-.32-.86-.53-1.27-.19-.38-.41-.74-.57-1.13-.02-.05-.04-.13-.1-.1-.08.04,0,.09.03.13.39.73.8,1.44,1.08,2.23.02.06.05.11.1.15Z"/><path d="m48.3,63.54c.07.22.14.45.21.67-.02-.24-.07-.47-.21-.67Z"/><path d="m47.16,60.04c.08.23.16.47.25.7-.03-.25-.13-.48-.25-.7Z"/><path d="m60.22,73.02c.21-.13.4-.29.57-.47.89-.95,1.71-1.96,2.41-3.06.27-.42.6-.8.93-1.19.49-.58.82-1.24,1.12-1.93.22-.51.39-1.04.58-1.56,0-.02.01-.05.02-.07.01-.04.01-.08-.03-.09-.05-.02-.06.04-.07.06-.08.22-.16.44-.24.66-.28.75-.56,1.49-.96,2.18-.23.39-.5.74-.79,1.09-.44.53-.81,1.11-1.2,1.67-.47.67-1.02,1.28-1.55,1.9-.24.29-.5.56-.79.8Z"/><path d="m59.88,69.99c.88-.75,1.58-1.65,2.18-2.62-.69.9-1.36,1.83-2.18,2.62Z"/><path d="m58.38,71.58c-.5.54-1.12.95-1.6,1.54.19-.05,1.46-1.27,1.6-1.54Z"/><path d="m55.51,76.93c-.82.57-1.73.98-2.52,1.58.85-.52,1.74-.96,2.52-1.58Z"/><path d="m44.15,67.07c-.6-.7-1.34-1.24-2.04-1.82.33.32.65.65,1.01.93.36.28.7.58,1.03.89Z"/><path d="m40.18,66.31c-.37-.34-.75-.67-1.27-.75-.03,0-.05-.04-.08,0-.02.04,0,.07.04.08.03.01.06.04.1.04.46.04.79.32,1.13.57.02.02.05.03.08.05Z"/><path d="m40.97,66.98c.47.49,1.02.9,1.46,1.42-.29-.38-.61-.72-.98-1.02-.14-.11-.27-.24-.4-.36-.02-.02-.04-.07-.08-.04h0Z"/><path d="m40.97,66.99c-.13-.21-.32-.34-.52-.46.17.15.35.3.52.46,0,0,0,0,0,0Z"/><path d="m33.37,64.1s.1.04.15.05c.64.02,1.27.09,1.9.2.24.04.49.1.73.14.05,0,.13.05.15-.04.02-.08-.06-.09-.12-.1-.79-.23-1.59-.37-2.42-.34-.11,0-.22,0-.32,0-.05,0-.1.03-.07.09Z"/><path d="m29.18,67.25s.07.02.1.03c.39.04.77.08,1.16.01.05,0,.11-.02.11-.07,0-.07-.07-.04-.12-.03-.38.02-.75-.03-1.12-.07-.05,0-.1-.02-.13.02-.02.02,0,.07,0,.11Z"/><path d="m29.88,64.26c-.49,0-.96.05-1.42.17-.04.01-.08.03-.08.08,0,.06.05.06.09.05.43-.11.88-.13,1.31-.22.04,0,.07-.02.09-.08Z"/><path d="m33.93,61.5c.14.08.24.1.39.09-.13-.09-.22-.14-.39-.09Z"/><path d="m47.29,78.15c-.43.42-.76.91-.99,1.46-.3.7-.42,1.42-.31,2.18,0,.05.01.1.03.14.02.05.03.12.1.11.08-.02.03-.09.02-.14-.19-1.18.08-2.26.77-3.23.11-.15.24-.29.36-.43.02-.03.06-.05.03-.09h0Z"/><path d="m47.62,80.72c.17-.21.28-.47.47-.67.49-.52.95-1.06,1.51-1.52.07-.06.22-.18.19-.2-.11-.08-.16.07-.23.13-.34.27-.63.6-.92.93-.19.21-.38.43-.58.63-.19.2-.29.46-.43.7Z"/><path d="m47.29,78.15c.3-.16.6-.32.89-.48.06-.03.16-.07.11-.15-.06-.1-.13-.03-.19.01-.27.21-.54.41-.81.62,0,0,0,0,0,0Z"/><path d="m54.21,81.43c.41-.29.69-.64,1.02-.93.35-.31.71-.61,1.2-.68.26-.04.41-.19.5-.44.1-.31.13-.63.26-.93.01-.03.01-.06-.02-.08-.04-.02-.08,0-.09.03-.04.07-.04.15-.05.22-.03.29-.07.58-.19.86-.06.14-.17.22-.31.25-.61.11-1.08.47-1.51.88-.38.36-.76.69-1.23.92-.1.05-.21.08-.32.13-.03.01-.08,0-.07.06.01.04.05.05.09.04.11-.02.21-.07.32-.11.16-.07.29-.19.41-.22Z"/><path d="m52.37,81.24c.41-.17.76-.44,1.09-.74-.36.25-.72.51-1.09.74Z"/><path d="m55.95,78.83c-.16.06-.19.23-.27.35.12-.09.22-.2.27-.35Z"/><path d="m45.49,76.37c-.24-.25-.52-.46-.83-.61-.66-.3-1.33-.59-1.95-.97-.31-.19-.67-.22-.99-.38.08.11.2.15.31.18.35.07.65.23.95.42.5.32,1.06.53,1.59.78.33.15.6.39.91.58Z"/><path d="m39.6,73.05c-.06-.06-.13-.12-.19-.18-.04-.03-.07-.05-.11,0-.05.06.01.07.04.09.08.04.16.08.24.11,0,0,.01-.01.02-.02Z"/><path d="m28.36,57.14c.14-.1.28-.2.43-.3.02-.02.05-.04.04-.07-.01-.03-.04-.03-.06-.02-.13.02-.38.27-.4.39Z"/></g></svg>
