<?xml version="1.0" encoding="UTF-8"?>
<svg id="Camada_2" xmlns="http://www.w3.org/2000/svg" viewBox="0 0 228.67 85.12">
    <g id="Camada_1-2">
        <path
                d="m18.85,15.63c0,.22-.32.39-.72.39-3.34,0-6.63-2.89-6.63-6.5C11.5,3.92,17.77,0,26.2,0c4.78,0,9.2,1.64,13.08,3.96.41-.56.77-.9.95-.9.54,0,.95.39.95.73,0,.09-.13.52-.27,1.21l1.13.77c.14.09.27.22.27.34,0,.17-.27.43-.45.43-.14,0-.27-.09-.54-.26l-.63-.39c-.86,3.88-2.52,12.62-2.52,23.25,1.22-2.76,11.9-21.36,19.07-26.01.99-.65,1.76-.99,2.25-.99.59,0,.77.26.77.52,0,.34-.59,1.12-1.17,1.98-2.89,4.26-7.26,13.05-7.26,23.25,0,3.96,2.12,5.99,4.69,5.99,1.4,0,2.07-.69,2.25-.69.14,0,.32.22.32.34,0,.17-1.31,1.29-3.34,1.29-2.8,0-5.5-1.89-5.5-6.93,0-10.59,4.73-19.42,6.99-23.3-7.44,6.42-16.91,23.12-18.26,26.14-.27.65-1.04.82-1.71.82-.59,0-.68-.99-.68-2.63.09-12.27,2.16-21.49,2.16-21.49-9.02,14.9-19.16,31.43-31.52,31.43-4.69,0-7.21-3.57-7.21-5.51,0-.3.18-.52.41-.52.32,0,.41.3.45.56.36,1.68,2.17,4,6.4,4,11.68,0,21.33-16.19,29.71-29.84.68-1.08,1.26-2.07,1.76-2.8-3.7-1.98-7.85-3.53-12.17-3.53-7.53,0-13.48,3.44-13.48,8.65,0,3.27,2.8,5.43,5.28,5.43.45,0,.5.17.5.3Z"/>
        <path
                d="m65.02,24.29c-1.76,1.94-5.1,4.87-7.39,4.87-1.35,0-2.34-.77-2.34-2.24,0-4.22,6.45-10.03,11.41-10.03,2.25,0,3.16,1.12,3.16,2.2,0,.86-.63,1.46-.95,1.46-.18,0-.36-.13-.36-.34,0-.3.14-.47.14-.9,0-.39-.23-1.25-1.58-1.25-4.78,0-10.28,5.47-10.28,8.87,0,.6.32.99.95.99,1.89,0,4.92-2.67,6.4-4.39,1.22-1.38,1.98-2.63,2.48-2.63.36,0,.72.34.72.69,0,.3-.9,1.33-.9,2.8,0,1.55.81,2.2,1.8,2.2,1.31,0,2.98-.95,5.32-3.44,0,0,.23-.26.41-.26.27,0,.54.26.54.47,0,.17-.23.43-.23.43-2.53,2.63-4.6,3.92-6.27,3.92-1.76,0-3.02-1.46-3.02-3.4Z"/>
        <path
                d="m82.38,18.6c.5.22.81.47.81.9,0,1.85-3.92,4.52-3.92,7.02,0,.77.5,1.12,1.22,1.12,2.12,0,4.73-2.02,7.08-4.52,0,0,.22-.26.45-.26s.5.26.5.47c0,.17-.23.43-.23.43-2.52,2.63-5.68,5-8.07,5-1.35,0-2.44-.82-2.44-2.15,0-2.67,3.65-5.25,3.65-6.76,0-.22-.23-.39-.54-.6-.95-.65-1.49-.99-1.76-.99-.18,0-.32.13-.59.47-.68.9-2.57,3.23-4.24,5.04,0,0-.23.22-.45.22-.27,0-.5-.26-.5-.43s.23-.43.23-.43c1.53-1.64,3.97-4.87,4.69-6.2.54-1.03,1.31-3.79,2.43-3.79.45,0,.99.56.99.9,0,.65-1.94,2.2-1.94,2.84,0,.26,1.71,1.25,2.62,1.72Z"/>
        <path
                d="m89.32,28.38c-1.58,0-2.71-.95-2.71-2.5,0-2.93,4.64-8.74,5.41-8.74.59,0,.72.39.72.65,0,.09-.09.3-.27.52-1.08,1.25-4.33,5.17-4.33,7.58,0,.9.63,1.38,1.49,1.38,3.02,0,6.85-4.13,6.85-4.13,0,0,.23-.26.41-.26.27,0,.54.26.54.47,0,.17-.23.43-.23.43,0,0-4.42,4.61-7.89,4.61Zm7.71-16.45c0,.78-.77,1.85-1.49,1.85-.5,0-.86-.34-.86-.77,0-.73.72-1.81,1.49-1.81.59,0,.86.39.86.73Z"/>
        <path
                d="m104.74,24.29c-1.76,1.94-5.1,4.87-7.39,4.87-1.35,0-2.34-.77-2.34-2.24,0-4.22,6.45-10.03,11.41-10.03,2.25,0,3.16,1.12,3.16,2.2,0,.86-.63,1.46-.95,1.46-.18,0-.36-.13-.36-.34,0-.3.14-.47.14-.9,0-.39-.23-1.25-1.58-1.25-4.78,0-10.28,5.47-10.28,8.87,0,.6.32.99.95.99,1.89,0,4.92-2.67,6.4-4.39,1.22-1.38,1.98-2.63,2.48-2.63.36,0,.72.34.72.69,0,.3-.9,1.33-.9,2.8,0,1.55.81,2.2,1.8,2.2,1.31,0,2.98-.95,5.32-3.44,0,0,.23-.26.41-.26.27,0,.54.26.54.47,0,.17-.23.43-.23.43-2.53,2.63-4.6,3.92-6.27,3.92-1.76,0-3.02-1.46-3.02-3.4Z"/>
        <path
                d="m124.54,28.2c-1.49,0-2.53-.86-2.53-2.11,0-2.58,4.33-5.3,4.33-7.19,0-.22-.18-.56-.72-.56-2.89,0-8.7,4.39-13.44,9.69-.32.39-.54.52-.99.52-.32,0-.72-.26-.72-.65,0-.34.54-1.38,1.49-2.93,1.71-2.8,5.23-7.49,5.95-7.49.59,0,.77.47.77.69,0,.13-.13.3-.45.65-1.62,1.77-3.07,3.57-4.78,6.2,3.65-3.79,9.29-7.97,12.45-7.97,1.17,0,2.07.82,2.07,1.85,0,2.37-4.24,5.08-4.24,7.06,0,.65.41.99,1.22.99,3.47,0,6.76-3.83,6.76-3.83,0,0,.23-.26.41-.26.27,0,.54.26.54.47,0,.17-.22.43-.22.43,0,0-4.19,4.44-7.89,4.44Z"/>
        <path
                d="m139.96,24.29c-1.76,1.94-5.09,4.87-7.39,4.87-1.35,0-2.34-.77-2.34-2.24,0-4.22,6.45-10.03,11.41-10.03,2.25,0,3.16,1.12,3.16,2.2,0,.86-.63,1.46-.95,1.46-.18,0-.36-.13-.36-.34,0-.3.13-.47.13-.9,0-.39-.23-1.25-1.58-1.25-4.78,0-10.28,5.47-10.28,8.87,0,.6.32.99.95.99,1.89,0,4.91-2.67,6.4-4.39,1.22-1.38,1.98-2.63,2.48-2.63.36,0,.72.34.72.69,0,.3-.9,1.33-.9,2.8,0,1.55.81,2.2,1.8,2.2,1.31,0,2.98-.95,5.32-3.44,0,0,.23-.26.41-.26.27,0,.54.26.54.47,0,.17-.22.43-.22.43-2.53,2.63-4.6,3.92-6.27,3.92-1.76,0-3.02-1.46-3.02-3.4Z"/>
        <path
                d="m125.6,50.84c0,6.67-10.82,14.3-23.45,14.81-2.25,3.53-4.64,7.1-7.21,10.21,6.18,2.89,12.22,6.2,17.18,6.2,3.34,0,5.23-2.45,5.59-2.45.13,0,.41.26.41.39,0,.3-2.48,3.53-6.18,3.53-5.09,0-11.45-3.62-17.9-6.59-4.19,4.78-8.93,8.18-14.61,8.18-4.19,0-7.71-2.28-7.71-6.37,0-4.35,4.64-7.06,9.15-7.06,4.06,0,8.34,1.59,12.62,3.49,2.34-2.84,4.55-6.11,6.67-9.47-9.33-.17-14.29-4.44-14.29-9.13s4.82-7.23,8.39-7.23c2.62,0,4.15.82,4.15,1.03,0,.26-.22.47-.41.47-.14,0-1.44-.65-3.61-.65-2.89,0-6.9,2.37-6.9,6.16,0,4.44,4.37,7.92,13.48,8.05,5.91-9.17,11.5-18.21,18.85-18.21,3.61,0,5.77,1.77,5.77,4.65Zm-33.01,25.45c-4.15-1.85-8.25-3.32-11.99-3.32-3.47,0-7.39,2.33-7.39,5.77,0,2.97,3.07,5.04,6.31,5.04,5,0,9.24-3.1,13.08-7.49Zm10.42-11.93c10.91-.56,21.1-7.49,21.1-13.82,0-1.81-1.62-3.1-3.79-3.1-6.49,0-11.72,8.18-17.31,16.92Z"/>
        <path
                d="m120.95,75.48c-2.44,0-4.42-1.38-4.42-3.83,0-4,5.64-8.35,9.11-8.35,1.4,0,2.34.77,2.34,1.85,0,2.58-6.04,4.95-9.78,5.86-.09.26-.09.52-.09.77,0,1.51,1.17,2.45,2.84,2.45,5.41,0,9.56-4.87,9.56-4.87,0,0,.23-.26.45-.26.27,0,.5.26.5.47,0,.17-.23.43-.23.43,0,0-5.05,5.47-10.28,5.47Zm-2.34-5.73c3.43-.86,8.03-2.93,8.03-4.74,0-.13-.13-.52-.81-.52-2.48,0-5.91,2.58-7.21,5.25Z"/>
        <path
                d="m144.76,69.36s.23-.26.45-.26.5.26.5.47c0,.17-.23.43-.23.43-2.3,2.33-4.1,2.93-6.58,2.93-.27,0-.5,0-.77-.04-1.53,1.21-3.29,1.94-4.73,1.94-1.98,0-3.52-1.25-3.52-3.27,0-1.68.9-3.49,2.25-4.95.04-2.84,2.89-5.43,6.18-5.43,2.8,0,4.15,1.81,4.15,4.18s-1.35,4.74-3.16,6.5h.04c1.98,0,3.74-.73,5.41-2.5Zm-8.3,3.06c-1.71-.73-3.34-2.15-4.01-3.96-.59,1.08-.95,2.2-.95,3.23s.5,1.85,1.94,1.85c.9,0,1.98-.39,3.02-1.12Zm1.08-.82c1.89-1.59,3.43-4.05,3.43-6.29,0-1.59-.99-2.84-2.53-2.84-1.94,0-3.79,1.08-4.6,2.58,1.4-1.03,2.98-1.72,4.46-1.72.59,0,.86.13.86.39,0,.34-.32.43-.63.47-1.94.17-3.79,1.29-5.09,2.84.18,2.33,2.03,3.96,4.1,4.56Z"/>
        <path
                d="m156.44,74.44c-1.49,0-2.53-.86-2.53-2.11,0-2.58,4.33-5.3,4.33-7.19,0-.22-.18-.56-.72-.56-2.89,0-8.7,4.39-13.44,9.69-.32.39-.54.52-.99.52-.32,0-.72-.26-.72-.65,0-.34.54-1.38,1.49-2.93,1.71-2.8,5.23-7.49,5.95-7.49.59,0,.77.47.77.69,0,.13-.14.3-.45.65-1.62,1.77-3.07,3.57-4.78,6.2,3.65-3.79,9.29-7.97,12.44-7.97,1.17,0,2.07.82,2.07,1.85,0,2.37-4.24,5.08-4.24,7.06,0,.65.41.99,1.22.99,3.47,0,6.76-3.83,6.76-3.83,0,0,.23-.26.41-.26.27,0,.54.26.54.47,0,.17-.23.43-.23.43,0,0-4.19,4.44-7.89,4.44Z"/>
        <path
                d="m171.86,70.52c-1.76,1.94-5.1,4.87-7.39,4.87-1.35,0-2.34-.77-2.34-2.24,0-4.22,6.45-10.03,11.41-10.03,2.25,0,3.16,1.12,3.16,2.2,0,.86-.63,1.46-.95,1.46-.18,0-.36-.13-.36-.34,0-.3.14-.47.14-.9,0-.39-.23-1.25-1.58-1.25-4.78,0-10.28,5.47-10.28,8.87,0,.6.32.99.95.99,1.89,0,4.92-2.67,6.4-4.39,1.22-1.38,1.98-2.63,2.48-2.63.36,0,.72.34.72.69,0,.3-.9,1.33-.9,2.8,0,1.55.81,2.2,1.8,2.2,1.31,0,2.98-.95,5.32-3.44,0,0,.23-.26.41-.26.27,0,.54.26.54.47,0,.17-.23.43-.23.43-2.53,2.63-4.6,3.92-6.27,3.92-1.76,0-3.02-1.46-3.02-3.4Z"/>
        <path
                d="m189.21,64.84c.5.22.81.47.81.9,0,1.85-3.92,4.52-3.92,7.02,0,.77.5,1.12,1.22,1.12,2.12,0,4.73-2.02,7.08-4.52,0,0,.23-.26.45-.26s.5.26.5.47c0,.17-.23.43-.23.43-2.53,2.63-5.68,5-8.07,5-1.35,0-2.43-.82-2.43-2.15,0-2.67,3.65-5.25,3.65-6.76,0-.22-.23-.39-.54-.6-.95-.65-1.49-.99-1.76-.99-.18,0-.32.13-.59.47-.68.9-2.57,3.23-4.24,5.04,0,0-.22.22-.45.22-.27,0-.5-.26-.5-.43s.23-.43.23-.43c1.53-1.64,3.97-4.87,4.69-6.2.54-1.03,1.31-3.79,2.43-3.79.45,0,.99.56.99.9,0,.65-1.94,2.2-1.94,2.84,0,.26,1.71,1.25,2.62,1.72Z"/>
        <path
                d="m206.71,73.19c3.29,0,6.76-3.83,6.76-3.83,0,0,.23-.26.41-.26.27,0,.54.26.54.47,0,.17-.23.43-.23.43,0,0-4.19,4.44-7.58,4.44-1.71,0-3.11-.9-3.2-3.06-2.84,2.37-5.46,4-7.12,4s-2.93-1.16-2.93-2.84c0-4.18,5.64-9.21,9.38-9.21,1.31,0,2.03.47,2.39.82,2.25-5.81,6.31-12.44,9.92-12.44,1.13,0,2.07.73,2.07,2.02,0,2.88-6.22,10.85-12.17,16.32-.04.34-.04.69-.04.99,0,1.68.86,2.15,1.8,2.15Zm-3.2-3.36c.23-1.29.63-2.84,1.22-4.56-.27-.39-.77-.82-1.8-.82-3.16,0-8.07,4.74-8.07,8.22,0,.86.59,1.46,1.53,1.46,1.62,0,4.28-1.77,7.12-4.31Zm1.89-1.72c5.23-5.04,10.42-11.88,10.42-14.47,0-.34-.27-.69-.86-.69-3.29,0-8.07,9.43-9.56,15.16Z"/>
        <path
                d="m227.72,69.36s.22-.26.45-.26.5.26.5.47c0,.17-.23.43-.23.43-2.3,2.33-4.1,2.93-6.58,2.93-.27,0-.5,0-.77-.04-1.53,1.21-3.29,1.94-4.73,1.94-1.98,0-3.52-1.25-3.52-3.27,0-1.68.9-3.49,2.25-4.95.05-2.84,2.89-5.43,6.18-5.43,2.8,0,4.15,1.81,4.15,4.18s-1.35,4.74-3.16,6.5h.04c1.98,0,3.74-.73,5.41-2.5Zm-8.3,3.06c-1.71-.73-3.34-2.15-4.01-3.96-.59,1.08-.95,2.2-.95,3.23s.5,1.85,1.94,1.85c.9,0,1.98-.39,3.02-1.12Zm1.08-.82c1.89-1.59,3.43-4.05,3.43-6.29,0-1.59-.99-2.84-2.53-2.84-1.94,0-3.79,1.08-4.6,2.58,1.4-1.03,2.98-1.72,4.46-1.72.59,0,.86.13.86.39,0,.34-.32.43-.63.47-1.94.17-3.79,1.29-5.1,2.84.18,2.33,2.03,3.96,4.1,4.56Z"/>
        <path
                d="m66.29,52.85c-1.43,0-2.6-.81-2.6-2.26,0-2.36,3.32-4.92,5.36-4.92.82,0,1.38.46,1.38,1.09,0,1.52-3.56,2.92-5.76,3.45-.05.15-.05.3-.05.46,0,.89.69,1.45,1.67,1.45,3.19,0,5.63-2.87,5.63-2.87,0,0,.13-.15.27-.15.16,0,.29.15.29.28,0,.1-.13.25-.13.25,0,0-2.97,3.22-6.05,3.22Zm-1.38-3.37c2.02-.51,4.73-1.72,4.73-2.79,0-.08-.08-.3-.48-.3-1.46,0-3.48,1.52-4.25,3.09Z"/>
    </g>
</svg>
