<?xml version="1.0" encoding="UTF-8"?>
<svg id="Camada_2" xmlns="http://www.w3.org/2000/svg" viewBox="0 0 178.74 123.2">
    <g id="Camada_1-2">
        <path
              d="m178.67,30.41c-.06-.11-.17-.07-.26-.06-.12.01-.24.02-.35.02-.79-.04-1.58-.14-2.38-.11-.43.01-.85-.04-1.28-.03-.45.01-.9-.05-1.35-.07-.6-.03-1.2-.04-1.79.07-.48.08-.95.15-1.42.27-.5.13-.99.29-1.42.57-.28.18-.58.35-.87.53-.4.25-.81.48-1.19.75-.28.19-.53.43-.77.66-.31.28-.65.52-.97.78-.41.33-.74.73-1.08,1.13-.45.51-.8,1.09-1.21,1.63-.24.32-.44.68-.71.98-.48.56-.91,1.15-1.28,1.79-.19.33-.48.56-.79.78-.05.03-.09.05-.15.04-.47-.07-.91-.21-1.28-.53-.22-.2-.46-.38-.69-.58-.34-.3-.67-.61-.95-.96-.38-.47-.75-.96-1.14-1.42-.69-.8-1.39-1.59-2.2-2.28-.6-.51-1.16-1.05-1.74-1.57-.68-.6-1.35-1.2-2.04-1.77-.46-.38-.96-.72-1.47-1.04-.32-.2-.52-.46-.71-.75-.33-.52-.68-1.02-1.11-1.47-.15-.16-.34-.29-.47-.51.49.2.92.48,1.39.64.46.16.89.47,1.42.34.04,0,.09,0,.13.02.49.16,1,.23,1.52.27.56.05,1.12.19,1.69.19.38,0,.76.06,1.13.04.5-.03,1-.14,1.51-.15.32,0,.64,0,.95-.1.58-.18,1.18-.2,1.78-.26.34-.03.67-.1.98-.24.48-.22.96-.45,1.48-.56.66-.14,1.25-.44,1.81-.81.33-.22.67-.4,1.05-.52.48-.15.95-.34,1.4-.56.61-.3,1.19-.64,1.8-.93.49-.24.98-.49,1.32-.95.1-.13.08-.25-.07-.31-.43-.16-.88-.31-1.33-.39-.95-.16-1.86-.45-2.78-.74-.53-.17-1.07-.33-1.62-.46-.81-.21-1.64-.3-2.48-.28-.75.02-1.49.09-2.23.24-.72.14-1.36.43-1.99.77-.38.21-.75.45-1.13.66-.47.26-.92.56-1.34.9-.62.51-1.13,1.13-1.75,1.64-.39.32-.8.61-1.17.95-.36.33-.75.64-1,1.08-.03.05-.06.11-.15.07-.64-.25-1.31-.46-1.93-.77-.89-.44-1.75-.93-2.56-1.51-.33-.24-.7-.41-1.08-.54-.61-.19-1.23-.3-1.86-.4-.42-.07-.83-.14-1.26-.13-.55.02-1.11.04-1.66-.06-.44-.08-.89-.07-1.35-.02-.24.03-.49.1-.74.03-.54-.15-1.08-.25-1.63-.34-.95-.15-1.89-.3-2.84-.46-.04,0-.09,0-.12-.06.08-.07.18-.06.27-.09.44-.15.86-.34,1.28-.53.72-.33,1.41-.71,2.07-1.15.53-.35,1.06-.72,1.59-1.07.46-.31.89-.67,1.25-1.08.65-.75,1.21-1.57,1.7-2.44.29-.53.46-1.09.47-1.7,0-.34-.2-.49-.51-.37-.12.04-.24.06-.36.09-.44.08-.89.14-1.32.28-.72.24-1.4.57-2.12.8-.6.19-1.03.59-1.33,1.14-.25.46-.57.86-.98,1.2-.28.23-.53.5-.74.8-.26.36-.52.72-.79,1.07-.26.35-.47.73-.6,1.14-.17.54-.53.95-.91,1.35-.34.35-.78.33-1.22.31-.49-.03-.98-.06-1.48-.06-.63-.01-1.25,0-1.88,0-.6,0-1.2.02-1.8,0-.9-.02-1.8.09-2.69.18-.4.04-.8.13-1.2.18-.71.09-1.41.16-2.12.24-.2.02-.4.04-.6.06.55-.3,1.09-.6,1.63-.91.43-.25.88-.47,1.3-.74.31-.19.65-.33.99-.47.79-.33,1.48-.8,2.08-1.4.4-.4.81-.77,1.22-1.16.41-.39.78-.82,1.15-1.26.39-.47.74-.96,1.09-1.46.35-.5.65-1.02.87-1.59.27-.68.4-1.4.49-2.13.08-.7.09-1.4.11-2.11.01-.57-.04-1.15-.09-1.72-.1-1.23-.34-2.44-.57-3.65-.14-.73-.29-1.46-.47-2.18-.11-.46-.25-.91-.37-1.36-.14-.51-.31-1.01-.54-1.49-.09-.19-.3-.31-.48-.24-.2.07-.41.14-.59.26-.51.33-.98.72-1.36,1.21-.46.6-.82,1.26-1.16,1.93-.38.76-.72,1.54-.98,2.35-.21.65-.33,1.32-.45,1.98-.14.79-.24,1.59-.38,2.38-.16.88-.36,1.75-.47,2.64-.04.36-.09.71-.13,1.07-.08.7-.19,1.4-.24,2.1-.06.88.06,1.76.16,2.64.09.81.14,1.62.07,2.44-.01.14-.01.3-.1.42-.09.13-.2.24-.12.42.02.04-.02.07-.05.1-.22.15-.43.32-.66.46-.7.41-1.38.84-2.11,1.2-.32.16-.63.37-.99.42-.83.12-1.65.26-2.46.46-.64.16-1.29.34-1.93.49-.63.15-1.26.32-1.9.47-.45.1-.89.24-1.33.36-.4.11-.79.25-1.19.38-.84.28-1.65.62-2.47.93-.22.08-.45.17-.72.27.04-.07.05-.1.06-.11.52-.54,1.05-1.07,1.52-1.66.42-.52.79-1.07,1.01-1.71.18-.54.37-1.07.54-1.61.17-.53.34-1.05.45-1.59.19-.94.25-1.89.37-2.83.01-.11.04-.25-.09-.32-.13-.06-.25,0-.36.08-.4.3-.68.69-.97,1.09-.65.91-1.17,1.9-1.8,2.82-.4.59-.69,1.24-.98,1.89-.16.35-.34.7-.44,1.07-.17.66-.27,1.34-.21,2.03.03.29.07.57.08.86.01.34-.01.35-.33.47-.57.2-1.12.46-1.66.72-.63.31-1.24.65-1.89.89-.56.2-1.12.44-1.66.68-.46.2-.91.43-1.36.66.17-.2.32-.42.47-.65.47-.69.87-1.44,1.63-1.88.15-.08.24-.23.19-.4-.05-.19-.23-.19-.4-.19-.59,0-1.18.07-1.75.24-.33.1-.66.23-1.07.24.17-.21.34-.34.52-.46.81-.55,1.57-1.15,2.21-1.92.82-.97,1.42-2.06,1.9-3.22.28-.67.46-1.4.67-2.1.29-.97-.26-2.09-1.18-2.53-.14-.07-.29-.13-.38-.27-.24-.33-.58-.46-.98-.47-.24,0-.46-.06-.68-.12-.19-.05-.39-.12-.59-.13-.43-.03-.81-.2-1.16-.44-.45-.32-.92-.59-1.43-.81-.62-.27-1.17-.16-1.72.2-.74.48-1.26,1.18-1.79,1.86-.11.14-.12.34-.27.48-.09-.13-.06-.25-.04-.36.09-.86.05-1.73.1-2.59.03-.53-.11-1-.38-1.44-.16-.26-.33-.51-.52-.75-.42-.54-.94-.92-1.64-1.05-.37-.07-.72-.2-1.08-.31-.46-.14-.9-.31-1.32-.53-.47-.25-.88-.24-1.29.17-.44.43-.91.84-1.34,1.29-.17.17-.29.36-.36.58-.16.54-.34,1.07-.4,1.63-.02.18-.07.35-.1.52-.09-.1-.12-.19-.15-.28-.17-.57-.27-1.15-.34-1.74-.13-1.07-.73-1.9-1.4-2.68-.08-.1-.2-.17-.31-.24-.87-.55-1.85-.7-2.86-.68-.73.02-1.37.3-2,.65-.78.44-1.55.86-2.51.81-.52-.03-1.03.18-1.42.55-.3.27-.62.52-.91.79-.85.79-1.49,1.69-1.39,2.93,0,.06,0,.12,0,.17,0,.09-.02.16-.11.22-.59.35-.77.93-.88,1.56-.12.7-.04,1.41-.16,2.11-.07.37-.06.75-.05,1.12.02.72.06,1.46.33,2.13.39.96.91,1.87,1.56,2.68.12.15.25.3.43.36.52.19.94.57,1.39.87.22.14.45.31.71.28.31-.03.38.13.46.37.24.71.46,1.43.87,2.07.08.13.19.25.21.42-.14,0-.19-.09-.27-.15-.72-.54-1.53-.85-2.38-1.11-1.29-.39-2.57-.2-3.86-.05-.18.02-.36.11-.53.17-.06.02-.1.07-.1.13,0,.08.05.13.13.15.04.01.09.02.13.02.52-.02.94.23,1.38.44.43.21.83.47,1.28.62.88.27,1.78.33,2.69.37.15,0,.31-.02.44.09-.03.1-.1.12-.16.15-.7.39-1.44.66-2.2.91-.85.28-1.68.73-2.63.52-.06-.01-.12,0-.14.07-.04.09.02.15.08.17.09.04.19.05.29.06.36.04.72,0,1.07-.11,1.31-.4,2.61-.83,3.82-1.49.19-.1.39-.19.62-.12.47.14.95.24,1.41.39.21.07.41.19.53.4-.66.44-1.37.77-1.98,1.26-.76.6-1.54,1.17-2.3,1.76-1.45,1.14-2.98,2.12-4.64,2.92-.56.27-1.16.45-1.68.8-.19.13-.29.14-.43-.02-.05-.05-.1-.1-.16-.15-.59-.52-1.16-1.09-1.84-1.49-.87-.51-1.81-.86-2.81-1.08-1.52-.32-3.03-.54-4.58-.3-.48.07-.96.11-1.5.17.13-.19.27-.27.4-.36.29-.21.59-.41.88-.63.68-.51,1.35-1.04,2.03-1.54.56-.41,1.13-.81,1.46-1.45.02-.05.07-.09.12-.12.45-.24.81-.6,1.2-.92,1.23-1.03,2.21-2.28,2.92-3.71.44-.89.69-1.86,1.04-2.79.07-.19.1-.39.12-.59.17-1.32.44-2.62.57-3.94.06-.67.17-1.34.1-2.03-.13-1.36-.36-2.71-.44-4.08-.01-.2-.05-.4-.11-.59-.13-.42-.15-.85-.17-1.28-.03-.69-.06-1.38-.33-2.04-.17-.42-.4-.8-.71-1.13-.06-.07-.14-.11-.23-.08-.11.04-.09.14-.08.22,0,.16.03.32.05.47.12.83.22,1.66.23,2.49,0,.25-.03.49-.09.73-.19.68-.46,1.33-.63,2.02-.12.46-.34.85-.57,1.25-.46.81-.92,1.63-1.28,2.5-.32.78-.59,1.6-1.01,2.34-.41.71-.7,1.49-1.08,2.21-.42.81-.39,1.7-.55,2.56-.11.58.02,1.15,0,1.73-.02.98.08,1.96.27,2.92.06.32.18.64.28.95.06.19.06.37-.04.55-.17.31-.35.61-.62.83-.41.33-.81.7-1.24,1.01-.42.3-.83.62-1.22.97-.55.51-1.16.95-1.78,1.37-.17.12-.34.19-.56.21-1.25.08-2.49.28-3.72.52-.31.06-.62.12-.94.14-.98.08-1.94.26-2.91.41-.35.05-.7.05-1.06.08.01-.07,0-.11.02-.13.45-.53.86-1.09,1.26-1.65.11-.15.23-.2.4-.21.38-.03.69-.21.95-.47.36-.36.7-.73,1.05-1.09.42-.44.71-.98,1.14-1.41.39-.39.69-.85.92-1.35.21-.46.46-.9.71-1.33.36-.62.75-1.24.97-1.93.31-.98.38-2.01.44-3.03.02-.32-.04-.63-.11-.94-.24-1.09-.72-2.1-1.16-3.12-.46-1.09-.93-2.18-1.19-3.34-.09-.39-.19-.79-.29-1.17-.04-.14-.09-.28-.17-.39-.15-.22-.34-.21-.47.01-.07.12-.13.26-.18.39-.2.61-.44,1.19-.75,1.74-.36.64-.58,1.32-.72,2.03-.09.45-.25.86-.5,1.23-.19.29-.34.61-.41.95-.08.41-.22.81-.39,1.19-.15.33-.25.68-.28,1.04-.05.52-.1,1.03-.12,1.55-.05,1-.23,1.97-.42,2.95-.06.33-.08.33-.38.17-.49-.26-1.01-.43-1.51-.64-.94-.4-1.93-.28-2.9-.35-.2-.01-.4.02-.61.03-.78.02-1.55-.01-2.31-.25-.65-.2-1.27-.46-1.89-.74-.44-.2-.9-.34-1.38-.27-.83.12-1.64.28-2.47.38-.31.04-.62.16-.95.16.04-.13.13-.16.19-.21.67-.56,1.42-.98,2.1-1.52,1-.8,1.83-1.74,2.31-2.92.43-1.07.87-2.14,1.25-3.22.17-.48.22-.98.12-1.49-.13-.69-.22-1.39-.26-2.1,0-.09-.01-.17-.02-.26-.01-.09-.05-.17-.14-.2-.1-.03-.17.04-.21.12-.17.34-.48.53-.78.73-.42.28-.86.53-1.31.75-.83.4-1.62.88-2.33,1.48-.45.39-.88.78-1.33,1.17-.61.52-1.08,1.17-1.44,1.88-.52,1.04-.83,2.17-1.14,3.3-.11.42-.24.84-.22,1.27.01.37-.08.71-.2,1.05-.11.31-.1.3-.44.28-1.24-.08-2.45-.06-3.56.63-.54.34-1.07.69-1.46,1.2-.53.72-.92,1.53-1.21,2.38-.25.71-.42,1.43-.61,2.16-.29,1.08-.36,2.18-.47,3.28-.06.61-.13,1.22-.19,1.82-.14-.41-.2-.84-.37-1.24-.57-1.32-1.05-2.69-1.83-3.91-.46-.71-.87-1.46-1.44-2.1-.93-1.05-2.03-1.88-3.3-2.48-1.42-.67-2.61-1.62-3.71-2.72-.71-.71-1.45-1.4-2.26-2.01-.16-.12-.33-.31-.53-.16-.2.13-.11.37-.07.56.25,1.13.61,2.23,1.13,3.26.55,1.08,1.17,2.12,1.75,3.18.38.68.72,1.38,1.12,2.05,1,1.62,2.11,3.17,3.4,4.58.6.66,1.25,1.27,1.99,1.79.7.5,1.49.82,2.21,1.27.33.21.66.41,1.03.55.41.16.42.17.38.59-.04.37.04.71.2,1.04.17.36.4.65.76.91-.75.19-1.44.37-2.14.54-1.56.37-3.06.93-4.52,1.59-.33.15-.66.29-.99.43-1.32.54-2.61,1.15-3.82,1.92-.75.48-1.49,1-2.27,1.42-1.39.74-2.65,1.66-3.96,2.53-.06.04-.11.1-.15.15-.21.25-.41.52-.65.75-.19.18-.17.36,0,.53.18.17.3.16.52,0,.5-.37.98-.76,1.43-1.18.39-.37.88-.6,1.32-.9.36-.24.72-.48,1.1-.69.66-.36,1.31-.74,1.93-1.15.62-.41,1.24-.81,2.03-.54.07.02.14.03.21.02.31-.03.49.14.6.4.15.33.27.67.43.99.56,1.08,1.37,1.95,2.37,2.65,1.16.81,2.46,1.17,3.85,1.3.09,0,.17.01.26,0,.27-.02.34-.13.22-.36-.05-.1-.12-.2-.19-.29-.43-.62-.85-1.23-1.28-1.85-.42-.61-.89-1.17-1.43-1.67-.5-.47-1.06-.78-1.79-.69-.23.03-.46-.03-.68-.11-.22-.08-.43-.16-.65-.25-.53-.24-1.09-.37-1.67-.4-.21,0-.41-.05-.62-.07.44-.36.88-.65,1.35-.89.8-.42,1.63-.81,2.43-1.22.58-.3,1.12-.65,1.74-.86.79-.27,1.58-.55,2.37-.83.84-.3,1.71-.38,2.58-.54.15-.03.31-.05.5,0-.49.58-.55,1.31-.82,1.95-.04.1-.05.23-.04.34.03.73.05,1.47.11,2.2.07.8.32,1.53.88,2.15.64.71,1.1,1.55,1.73,2.27.12.14.11.24-.04.36-.76.61-1.36,1.35-1.94,2.13-1.23,1.66-2,3.5-2.39,5.5-.29,1.47-.45,2.96-.57,4.46-.11,1.34-.06,2.68-.18,4.02,0,.08.02.14.09.18.1.05.16,0,.22-.07.04-.06.09-.12.13-.17.34-.45.74-.84,1.21-1.16.84-.58,1.72-1.11,2.61-1.62.76-.43,1.43-.97,1.98-1.65.99-1.22,1.91-2.5,2.83-3.77.69-.94,1.37-1.9,1.88-2.96.21-.44.37-.89.48-1.34.1-.02.14.03.19.06.65.53,1.41.79,2.24.8.9.01,1.76.22,2.62.43,0,.02,0,.04,0,.06.04.32.11.63.17.94.17.78.3,1.56.41,2.35.06.44.16.88.24,1.31.03.16.06.32.09.48.02.08,0,.11-.1.11-.68,0-1.18.34-1.55.89-.07.1-.11.22-.11.35,0,.35-.04.69-.01,1.04,0,.09-.05.15-.12.2-.17.11-.34.22-.52.33-.23.14-.41.32-.58.53-.1.12-.15.27-.09.42.06.15.21.19.35.21.14.01.28.02.42.02.48,0,.83-.32.86-.8.01-.23,0-.45-.05-.67-.1-.47-.05-.93.05-1.39.05-.21.23-.35.39-.46.3-.22.63-.4,1.02-.42.09,0,.12,0,.13.09.05.38.08.77.15,1.14.07.37.12.74.2,1.1.09.4.12.81.18,1.21.04.3.09.6.14.9.05.32.08.64.14.96.06.35.1.7.14,1.05.04.39.07.78.11,1.16.04.42.1.85.15,1.27.01.1,0,.2,0,.31.04.65.06,1.31.1,1.96.02.49.03.98.08,1.47.03.29.02.58.03.87.02.53.02,1.07.07,1.6.07.71-.21,1.29-.6,1.84-.17.24-.38.44-.59.64-.15.14-.23.32-.26.51-.03.25-.18.41-.34.58-.21.22-.4.45-.5.74-.11.31.04.57.35.58.23,0,.46,0,.69-.05.15-.03.22-.12.19-.26-.04-.24-.09-.47-.13-.71-.05-.31-.07-.62.08-.92.02-.04.04-.07.07-.1.39-.46.79-.91,1.03-1.51.02.34.05.65.06.97.02.74.04,1.49.06,2.23.02.7.07,1.41.09,2.11,0,.32.03.64.03.97,0,.05,0,.08-.05.11-.38.19-.69.47-.97.79-.17.2-.35.38-.52.58-.21.25-.34.55-.52.81-.18.26-.35.53-.43.85-.01.05-.05.05-.09.06-.15.04-.3.03-.44.03-.34.02-.47.16-.48.5,0,.16-.02.32,0,.48.03.21.12.3.34.3.25,0,.49.02.74.01.12,0,.18-.06.2-.17.06-.39.1-.79.03-1.19-.02-.1.05-.18.1-.25.31-.44.54-.94.87-1.37.32-.41.69-.78,1.06-1.15.03-.03.07-.05.12-.09.03.15.03.28.02.41-.03.55-.04,1.1-.05,1.64-.01.68-.04,1.36-.07,2.04-.02.54-.06,1.07-.09,1.61,0,.14-.06.24-.16.34-.35.36-.72.71-.95,1.18-.14.29-.32.56-.45.85-.16.35-.25.72-.33,1.1-.02.1-.06.17-.14.24-.38.31-.7.68-.91,1.12-.11.24-.2.49-.29.74-.03.09-.09.14-.17.18-.18.08-.36.17-.54.26-.45.22-.48.59-.07.87.2.13.43.24.69.21.21-.02.36-.16.35-.38-.02-.26.04-.53-.11-.76-.02-.03,0-.05,0-.07.15-.34.29-.68.46-1.01.15-.29.35-.55.63-.8-.03.2-.08.35-.13.5-.07.23-.18.45-.17.7,0,.28.09.37.36.33.24-.04.48-.12.67-.29.22-.19.26-.42.15-.69-.1-.25-.29-.46-.4-.71-.07-.17-.06-.22.08-.34.41-.34.83-.67,1.31-.96-.03.3-.05.58-.07.85-.05.7-.13,1.4-.15,2.1,0,.12-.05.24-.03.37,0,.07-.05.1-.09.13-.44.28-.89.55-1.3.88-.53.43-1.07.86-1.49,1.42-.22.31-.39.65-.56.99-.03.06-.06.11-.12.15-.32.21-.57.48-.72.83-.07.14-.02.34.1.43.21.16.45.26.7.33.28.07.42-.1.39-.38-.04-.36-.09-.71-.08-1.07,0-.29.11-.56.3-.81.17-.22.28-.49.49-.69.55-.53,1.12-1.04,1.74-1.49.17-.12.35-.24.52-.36.03-.02.06-.06.09-.04.03.02.01.06.01.08-.03.72-.09,1.43-.2,2.14-.08.56-.17,1.12-.26,1.68-.05.27-.1.53-.15.8-.11.58-.23,1.16-.33,1.74-.06.32-.13.64-.15.97,0,.11-.09.17-.15.24-.27.3-.62.5-.96.69-.62.34-1.15.79-1.56,1.37-.13.18-.2.41-.26.62-.03.1-.08.17-.19.19-.22.05-.43.12-.65.18-.26.07-.42.25-.43.51,0,.16-.01.33.04.49.05.15.15.19.28.18.15-.02.29-.08.41-.16.12-.08.24-.18.36-.26.19-.12.25-.31.3-.51.16-.6.36-1.16.83-1.61.46-.44,1-.78,1.53-1.12.12-.08.22-.18.33-.31.02.13-.03.22-.04.31-.08.48-.19.96-.31,1.44-.1.4-.21.8-.29,1.2-.03.15-.15.22-.27.29-.17.11-.34.21-.52.3-.17.09-.31.24-.44.38-.59.63-1.14,1.3-1.76,1.9-.11.11-.23.11-.36.11-.38,0-.77-.01-1.15.02-.21.02-.42,0-.63.03-.13.02-.26.03-.37.08-.14.06-.22,0-.3-.1-.12-.14-.26-.26-.44-.31-.2-.05-.37.03-.41.23-.07.37-.06.74.02,1.11.03.12.08.22.21.24.14.01.23-.1.26-.21.04-.21.17-.34.32-.47.07-.06.13-.15.24-.14.02,0,.04,0,.06-.02.23-.24.54-.2.82-.23.35-.04.71-.03,1.07-.04.11,0,.21-.01.32-.02,0,.01.01.03.02.04-.14.13-.26.27-.41.4-.21.18-.44.33-.63.54-.12.14-.33.19-.51.28-.13.07-.26.12-.36.22-.14.14-.12.31.06.4.27.14.55.23.86.26.2.02.29-.04.36-.23.08-.21.09-.42.09-.64,0-.1.01-.21,0-.31,0-.14.13-.2.21-.27.21-.18.4-.37.58-.57.07-.08.15-.1.25-.08.64.13,1.2.4,1.64.91.1.11.04.21.02.32-.02.15-.08.25-.26.3-.29.08-.55.24-.83.35-.57.22-1.04.61-1.54.94-.3.21-.56.48-.76.79-.06.1-.15.18-.23.27-.2.19-.2.4.02.57.33.26.5.28.66-.16.09-.23.09-.47.06-.71-.02-.15,0-.25.13-.36.48-.39.96-.79,1.52-1.06.33-.16.67-.34,1.01-.48.02,0,.05-.03.09,0-.08.25-.17.49-.25.75-.26.84-.56,1.67-.84,2.5-.05.14-.12.18-.24.24-.34.14-.66.33-.97.52-.53.32-.85.82-1.19,1.31-.02.04-.04.08-.09.06-.19-.06-.3.09-.41.19-.17.15-.31.33-.47.51-.06.07-.12.15-.06.26.06.11.15.09.23.08.2-.02.41-.05.61-.08.09-.01.15-.05.15-.15-.03-.3.08-.56.26-.8.19-.26.39-.51.59-.76.27-.33.65-.51,1.02-.7.1-.05.19-.1.29-.15.04-.02.08-.06.13-.04.05.03,0,.08,0,.13-.03.15-.02.33-.1.45-.08.12-.27.07-.41.11-.46.15-.84.42-1.14.8-.07.08-.1.18-.19.25-.11.1-.05.29.09.35.07.03.13.05.21.06.12.02.22-.05.22-.18,0-.06.01-.13,0-.18-.11-.39.14-.57.41-.74.22-.13.46-.23.71-.28.07-.02.1-.01.08.07-.02.12-.04.23-.06.35,0,.05-.04.08-.08.1-.55.22-.92.63-1.19,1.14-.03.05-.06.1-.08.15-.07.16-.18.23-.36.23-.15,0-.3.05-.45.09-.1.03-.17.19-.12.29.12.25.34.39.57.51.12.06.24-.01.3-.12.14-.23.23-.47.15-.74-.01-.04-.02-.08,0-.12.21-.37.44-.73.79-.98.01,0,.02-.02.04-.03.07-.03.14-.11.2-.07.06.04-.02.12-.02.18-.06.75-.31,1.46-.46,2.19,0,.04-.01.09-.06.12-.23.13-.35.37-.5.57-.12.15-.05.28.15.31.17.02.34.04.51.05.3,0,.33-.04.32-.32,0-.27-.03-.56-.17-.82-.02-.04,0-.07,0-.1.04-.18.09-.36.15-.54.15.09.3.09.46.09.28,0,.43-.17.4-.44-.03-.27-.17-.46-.42-.56-.22-.09-.23-.09-.17-.31.08-.32.15-.63.28-.94.1-.24.1-.53.15-.8.02-.12.05-.24.07-.36.01,0,.03,0,.04,0,.03.13.07.27.1.4.06.37.21.72.26,1.09.08.67.07,1.35-.06,2.02-.03.13-.07.27-.08.4-.02.25-.2.41-.3.61-.08.16-.04.27.14.27.2,0,.4,0,.6-.07.2-.06.27-.25.18-.44-.09-.18-.19-.34-.36-.45-.09-.06-.03-.16-.01-.24.08-.3.11-.6.16-.91,0-.05,0-.1,0-.16.14.3.15.3.48.19.16-.05.16-.04.19.12.04.27.08.54.15.8.04.14.11.17.24.11.06-.03.11-.05.17-.08.23-.12.31-.36.09-.6-.12-.14-.27-.27-.47-.31-.06-.01-.05-.07-.07-.11-.01-.04,0-.08.04-.1.08-.03.12-.1.16-.16.16-.2.09-.45-.16-.52-.13-.04-.19-.1-.22-.22-.08-.32-.22-.63-.38-.92-.13-.24-.3-.45-.46-.67-.07-.1-.15-.2-.22-.3-.08-.11-.07-.23-.02-.35.18-.42.31-.85.45-1.29.16-.49.32-.97.49-1.46.08-.22.14-.45.21-.7.13.29.2.57.29.84.11.35.28.67.37,1.02.12.45.13.89.01,1.33-.07.27.02.38.34.36.16-.01.32-.04.46-.11.31-.15.35-.4.13-.67-.14-.17-.3-.33-.47-.48-.11-.09-.14-.2-.18-.33-.08-.29-.18-.57-.28-.85-.15-.41-.26-.83-.45-1.24.14,0,.24.08.33.14.43.23.82.51,1.11.9.23.31.41.66.59,1,.06.11.12.23.18.34.16.33.22.67.11,1.04-.06.2,0,.27.2.26.3,0,.58-.08.84-.23.22-.13.22-.31.03-.47-.26-.22-.55-.39-.83-.58-.05-.04-.09-.08-.12-.13-.26-.5-.54-.98-.88-1.43-.26-.36-.64-.57-1.02-.78-.18-.09-.36-.17-.54-.26-.09-.05-.12-.1-.09-.23.09-.38.19-.77.29-1.15.08-.31.19-.62.28-.92.02-.08.07-.09.15-.09.72.03,1.3.37,1.8.84.63.6,1.03,1.34,1.14,2.22.03.21.07.42.11.64.02.11.1.17.22.15.04,0,.08-.02.12-.03.22-.09.44-.18.65-.28.26-.12.28-.33.05-.49-.21-.15-.45-.27-.68-.38-.22-.11-.39-.25-.45-.52-.11-.44-.41-.76-.69-1.09-.21-.25-.44-.49-.73-.65-.07-.04-.14-.08-.21-.12-.15-.09-.3-.17-.45-.26-.25-.16-.53-.24-.83-.18-.09.02-.11,0-.09-.09.08-.31.16-.61.23-.92.15-.63.29-1.26.44-1.88.11-.44.24-.87.32-1.31.08-.42.15-.84.23-1.25,0-.04-.01-.1.04-.12.05-.01.06.04.09.07.34.3.64.63.89,1.01.18.28.31.59.46.88.11.21.09.4.05.6-.04.18-.06.36-.08.55-.02.28.1.39.38.33.21-.04.4-.12.58-.22.43-.24.29-.65.03-.86-.2-.16-.43-.26-.68-.34-.06-.02-.06-.05-.07-.09-.15-.53-.48-.95-.82-1.37-.21-.26-.46-.48-.73-.67-.08-.06-.1-.13-.08-.23.09-.49.19-.99.28-1.48,0-.04.03-.08.04-.12,0-.07.03-.07.09-.04.24.12.45.29.62.5.55.67.97,1.43,1.41,2.18.19.32.4.62.54.97.09.23.07.47.15.7.06.17.06.35.08.53.02.14.1.21.24.22.33.03.74-.21.87-.51.06-.14.02-.29-.13-.42-.18-.17-.4-.29-.62-.37-.31-.11-.47-.33-.59-.61-.36-.82-.82-1.58-1.33-2.32-.26-.38-.52-.77-.95-.99,0,0-.02,0-.03-.02-.07-.09-.3.02-.26-.19.02-.12.03-.25.05-.38.08-.35.13-.71.19-1.07.07-.45.15-.91.21-1.37.01-.09.06-.11.15-.11.29,0,.55.11.8.24.18.09.35.21.52.33.1.07.15.17.17.28.07.44.06.88.1,1.32.01.16-.07.27-.2.35-.13.08-.23.19-.28.33-.1.25-.05.41.19.54.26.14.54.16.82.11.24-.05.33-.27.21-.49-.12-.21-.25-.41-.4-.6-.04-.06-.07-.12-.07-.18.02-.38-.05-.76-.08-1.13,0-.03-.01-.05.02-.08.19.15.32.35.48.53.29.33.45.74.71,1.09.06.09,0,.2.03.3.04.18.11.34.16.51.06.2.1.4.13.6.02.19.08.23.28.23.39-.01.79-.35.86-.73.02-.12-.03-.22-.12-.3-.17-.16-.36-.3-.55-.43-.16-.11-.31-.24-.48-.32-.33-.16-.4-.52-.59-.79-.27-.36-.54-.71-.89-1-.09-.07-.12-.17-.15-.28-.19-.71-.39-1.41-.76-2.05-.16-.27-.34-.53-.56-.77,0,0,0,0-.01-.01-.31-.1-.24-.35-.22-.58.04-.54.09-1.08.16-1.62.06-.46.07-.92.09-1.38.02-.44.06-.88.08-1.32.02-.42.03-.85.05-1.27.02-.35.07-.7.08-1.06.03-.6.07-1.21.08-1.81,0-.49.04-.97.05-1.46.01-.44.01-.88.02-1.32.01-.44,0-.87-.01-1.31,0-.03-.02-.08.02-.1.04-.02.06.02.09.05.28.27.5.58.74.88.32.41.54.88.76,1.35.24.53.42,1.08.62,1.62.04.11-.04.09-.09.07-.28-.1-.58-.15-.87-.18-.42-.05-.84-.08-1.28-.04.04.08.11.07.16.07.64.04,1.27.11,1.89.29.3.09.31.09.32.4,0,.22-.12.4-.19.59-.04.11-.08.22-.1.34-.04.18.04.27.22.28.31,0,.61-.04.91-.11.23-.06.3-.21.22-.45-.08-.24-.25-.43-.4-.63-.02-.03-.04-.05-.05-.11.14.06.28.11.41.17.32.14.6.35.86.58.03.02.07.07.04.09-.11.11-.02.22.01.31.11.32.16.65.25.97.04.14.12.2.27.19.38-.01.83-.37.93-.74.03-.11,0-.2-.06-.29-.15-.23-.37-.38-.63-.46-.31-.1-.62-.18-.87-.42-.39-.37-.9-.54-1.41-.68-.14-.04-.2-.12-.23-.24-.12-.55-.34-1.06-.56-1.57-.34-.77-.75-1.49-1.35-2.09-.19-.19-.37-.38-.59-.53-.07-.04-.06-.1-.06-.16-.02-.32-.03-.65-.04-.97-.03-.65-.03-1.3-.04-1.95-.02-.81-.03-1.62-.05-2.43-.01-.47.02-.93-.05-1.4-.03-.2,0-.22.18-.13.35.18.72.2,1.09.21.31,0,.61.07.92.1.09.01.13.06.17.15.16.34.23.7.19,1.08-.03.26,0,.52.03.78,0,.07,0,.13-.02.19-.07.17-.09.34-.09.53,0,.35.11.48.47.47.31,0,.62-.06.92-.18.18-.07.28-.29.23-.52-.08-.33-.28-.54-.6-.64-.19-.06-.38-.12-.58-.16-.15-.04-.14-.14-.13-.25,0-.19.01-.39.03-.58.02-.26-.07-.49-.16-.73-.02-.06-.05-.12.05-.1.42.08.86.04,1.28.16.13.04.25.11.36.18.22.13.27.36.42.52.14.16.32.25.53.22.39-.06.84-.38.92-.82.05-.25-.04-.39-.3-.44-.27-.05-.54-.03-.8.06-.19.06-.38.08-.56.15-.03.01-.07.01-.1,0-.4-.22-.84-.21-1.27-.25-.19-.02-.38-.04-.57-.04-.11,0-.17-.05-.21-.14-.07-.14-.16-.27-.25-.41-.36-.54-.87-.84-1.48-1.01-.2-.06-.41-.09-.61-.13-.08-.02-.12-.04-.13-.14-.02-.69-.04-1.38-.08-2.07-.02-.39-.04-.78-.07-1.17-.02-.43-.07-.86-.12-1.28-.02-.18-.05-.37-.08-.55-.04-.22-.04-.23.16-.3.45-.15.89-.31,1.37-.35.48-.04.95-.02,1.43-.04.09,0,.16.02.19.13.04.17.17.23.33.26.39.07.79.04,1.18.03.28,0,.42-.26.36-.55-.11-.49-.58-.69-1.04-.44-.17.09-.33.19-.48.31-.09.07-.18.11-.3.07-.11-.04-.23-.01-.35,0-.37.01-.74.01-1.1.03-.52.02-1.02.17-1.5.36-.01,0-.03.01-.04.02-.26.09-.27.08-.29-.2-.03-.6-.12-1.19-.22-1.79-.04-.23-.02-.26.19-.36.21-.1.43-.18.64-.29.26-.14.45-.35.67-.53.28-.23.44-.57.72-.8.02-.02.03-.04.04-.06.09-.33.35-.5.61-.69.23-.17.44-.34.54-.61.1-.25.05-.38-.19-.47-.28-.11-.55-.22-.83-.32-.2-.07-.3-.03-.36.18-.11.41-.22.82-.15,1.26.01.08.04.16.11.2.11.07.09.14.05.24-.14.34-.38.6-.6.88-.37.46-.89.7-1.39.97-.06.04-.1.04-.12-.06-.09-.52-.18-1.05-.25-1.58-.06-.41-.14-.82-.21-1.23-.06-.36-.09-.73-.16-1.1-.12-.68-.21-1.37-.35-2.05-.08-.35-.11-.72-.17-1.08-.09-.47-.19-.95-.28-1.42-.07-.33-.13-.66-.2-.98.15.04.31.08.46.11.57.12,1.13.17,1.7,0,.67-.19,1.22-.57,1.72-1.04.56-.54,1.08-1.12,1.58-1.72.19-.23.32-.48.36-.77.18-1.06-.07-2.03-.66-2.91-.06-.08-.14-.15-.12-.27.14-.07.28-.02.42,0,.51.1,1.01.21,1.54.21.48,0,.96-.04,1.4-.2.28-.1.56-.22.85-.32.78-.28,1.45-.69,1.71-1.56.11-.38.34-.71.68-.97.29-.22.47-.54.51-.92,0-.06,0-.12.02-.17.07-.36.14-.4.46-.24.53.27,1.07.5,1.63.71.44.17.89.34,1.33.53.24.1.51.22.56.49.16,1.05.2,2.1-.26,3.1-.47,1.02-.79,2.1-1.19,3.15-.31.81-.54,1.65-.97,2.4-.33.58-.54,1.21-.7,1.85-.15.62-.32,1.23-.57,1.81-.26.61-.43,1.25-.57,1.9-.15.65-.32,1.29-.6,1.89-.46.99-.69,2.05-.96,3.09-.19.74-.21,1.51-.27,2.27-.09,1.19-.28,2.38-.44,3.56-.31,2.2.5,4.07,1.59,5.88.07.12.18.21.32.18.12-.03.16-.16.19-.27.09-.32.18-.64.27-.96.29-1.07.69-2.08,1.47-2.9.65-.68,1.31-1.34,2.01-1.96.41-.36.82-.73,1.15-1.17.82-1.1,1.63-2.2,2.44-3.31.31-.42.6-.85.98-1.2.21-.2.39-.44.49-.71.28-.76.45-1.55.54-2.35.02-.18.05-.37-.13-.58.06.67-.13,1.25-.26,1.84-.17.76-.5,1.41-1.08,1.98-.82.81-1.42,1.81-2.11,2.74-.81,1.1-1.64,2.15-2.7,3.03-.61.51-1.16,1.08-1.68,1.68-.68.79-1.09,1.72-1.37,2.72-.03.09,0,.21-.15.23-.15-1.5.61-3.11,1.36-4.28.15-.24.32-.48.45-.73.42-.82.8-1.67,1.26-2.46.48-.84.86-1.73,1.27-2.6.33-.71.46-1.49.75-2.21.2-.48.39-.96.5-1.47.3-1.29.54-2.6.77-3.9.21-1.19.19-2.39.25-3.58.05-1.03-.05-2.05-.08-3.07-.05-1.63-.36-3.2-1-4.71-.03-.06-.06-.13.04-.21.12.08.27.15.39.25.51.42,1.08.71,1.71.91.21.06.4.16.58.29.43.31.78.67.93,1.21.07.24.11.54.34.68.2.11.15.21.08.34-.17.34-.3.69-.41,1.05-.28.94-.53,1.88-.74,2.84-.3,1.36-.29,2.72-.1,4.09.17,1.22.68,2.31,1.31,3.36.47.79,1.11,1.39,1.83,1.92.13.1.26.19.43.19.24,0,.28.13.27.33-.05.61,0,1.21.07,1.81.1.72.28,1.41.43,2.12.27,1.34,1.13,2.06,2.45,2.28.36.06.71.11,1.06-.04.16-.07.34-.07.51-.07.58,0,1.15,0,1.72.12.46.09.92.07,1.34-.17.24-.13.5-.23.75-.34.33-.14.33-.14.52.19.04.06.08.12.12.18.44.58.95,1.08,1.47,1.59.12.12.27.22.42.3.77.41,1.58.71,2.37,1.05.35.14.72.21,1.09.27,1.03.18,2.06.19,3.1.16.35,0,.69-.03,1.03-.08.41-.05.55-.2.62-.6.05-.24.1-.48.14-.72.06-.33.29-.6.33-.93.05-.39.14-.76.28-1.13.09-.26.15-.53.19-.8.06-.39.15-.78.31-1.22.25.55.56,1,.7,1.53.44,1.7.94,3.39,1.31,5.11.16.73.28,1.47.65,2.14.56,1.02,1.06,2.08,1.81,2.99.2.25.36.52.54.78.6.86,1.29,1.63,2.08,2.31.91.77,1.91,1.45,2.82,2.22.11.09.22.14.35.05.12-.09.07-.2.04-.32-.2-.67-.26-1.35-.25-2.05,0-.53.04-1.07-.05-1.6-.11-.66-.31-1.29-.52-1.91-.25-.74-.47-1.49-.54-2.27-.13-1.54-.38-3.06-.66-4.57-.08-.41-.14-.82-.32-1.2-.11-.22-.24-.43-.32-.66-.42-1.07-1.15-1.93-1.95-2.72-.45-.44-.97-.72-1.63-.65-.1.01-.23.03-.35-.09.24-.34.43-.73.76-.97.55-.42,1.08-.86,1.57-1.35.07-.07.15-.14.23-.2.34-.22.59-.5.64-.93.01-.11.1-.21.14-.31.2-.45.55-.81.75-1.26.21-.48.43-.94.84-1.29.07-.06.12-.16.17-.25.67-1.13.67-2.29.21-3.49-.29-.77-.82-1.36-1.51-1.71-.54-.27-1.13-.49-1.74-.64-.41-.1-.81-.2-1.2-.35-.3-.11-.61-.17-.92-.23-.77-.13-1.55-.18-2.32-.26-.12-.01-.27.04-.35-.12.13-.12.27-.22.37-.35.31-.42.71-.73,1.15-.97.79-.45,1.52-.99,2.29-1.48.23-.15.5-.24.7-.42.37-.32.78-.59,1.19-.86.46-.3.92-.59,1.31-.98.54-.55.81-1.18.63-1.96-.06-.25-.11-.51-.12-.77-.03-.64-.22-1.25-.49-1.83-.06-.13-.15-.24-.13-.39.08-.06.15-.03.22-.02.9.2,1.81.16,2.7-.03,1.12-.25,2.23-.48,3.38-.2.03,0,.06.01.08.02.09,0,.19-.01.22-.1.04-.13-.08-.16-.17-.2-.98-.43-1.9-.95-2.73-1.64-.29-.24-.55-.52-.9-.67-.65-.28-1.24-.67-1.86-1.01-1.25-.69-2.49-1.4-3.68-2.19-.68-.46-1.38-.91-2.12-1.25-1.24-.57-2.35-1.35-3.42-2.18-.3-.23-.57-.48-.92-.63-.92-.39-1.88-.64-2.86-.84-1.18-.25-2.28-.05-3.34.54-.44.24-.92.41-1.39.6-.07.03-.16.08-.24.02.01-.06.06-.09.11-.12.58-.35,1.15-.71,1.74-1.05,1.57-.91,3.05-1.97,4.55-3,.45-.31.86-.68,1.29-1.02.12-.1.24-.24.42-.18.38.13.75.27.97.66.22.4.5.77.74,1.17.49.82.91,1.67,1.3,2.54.23.53.5,1.04.96,1.41.71.58,1.56.93,2.36,1.36.08.04.17.04.24-.03.1-.1.03-.19-.02-.27-.5-.94-.91-1.93-1.35-2.9-.18-.39-.42-.72-.72-1.02-.28-.27-.57-.53-.85-.8-.09-.08-.2-.15-.24-.28.15-.02.24.07.34.12.69.39,1.4.66,2.21.64.4-.01.78.11,1.15.32.37.21.75.44,1.19.51,1.17.2,2.35.26,3.53.04.4-.08.76-.27,1.15-.37,1.02-.24,1.85-.86,2.74-1.34.12-.07.24-.14.36-.22.04,0,.08,0,.12-.03.37-.19.76-.35,1.11-.59.2-.14.42-.25.64-.37.17-.05.33-.11.49-.25.06-.03.12-.06.18-.09.76-.41,1.52-.83,2.31-1.2,1.13-.52,2.28-1.02,3.42-1.52.76-.33,1.52-.69,2.3-.98.15-.06.29-.15.37.08.01.03.06.05.1.06.5.18.91.51,1.36.77.56.32,1.08.72,1.65,1.05.82.48,1.67.87,2.55,1.22.53.21,1.07.41,1.61.59.59.19,1.18.37,1.79.47.12.02.23,0,.3-.1.07-.1.02-.21-.04-.29-.2-.25-.39-.51-.63-.72-.64-.59-1.28-1.17-1.97-1.7-.62-.48-1.26-.94-2-1.22-.76-.28-1.54-.42-2.35-.45-.39-.01-.78.07-1.17.02-.26-.03-.53-.04-.8-.12.09-.12.21-.06.3-.11.7-.35,1.46-.54,2.2-.81.36-.13.74-.2,1.11-.32.36-.12.73-.21,1.09-.3.33-.09.67-.11.98-.25.93-.42,1.89-.77,2.9-.97.35-.07.69-.19,1.04-.26.48-.09.96-.09,1.43-.18.19-.04.38-.14.57-.09.37.08.74.09,1.11.09.57,0,1.14.07,1.69.18.55.11,1.08.27,1.63.4.56.14,1.1.33,1.66.44.06.01.09.04.09.09,0,.1.07.16.13.23.13.14.28.28.38.45.32.55.57,1.14.7,1.76.17.8.35,1.61.32,2.44-.02.65-.11,1.3-.22,1.94-.09.5-.25.97-.38,1.46-.16.58-.28,1.18-.44,1.76-.33,1.18-.67,2.36-1,3.54-.19.67-.32,1.36-.42,2.05-.06.41-.11.83-.19,1.24-.11.58-.19,1.16-.29,1.73-.06.39-.11.77-.15,1.16-.06.48-.1.96-.16,1.44-.08.68-.07,1.36-.12,2.03-.05.6.03,1.19.33,1.72.3.53.72.97,1.23,1.32.4.28.84.36,1.29.14.23-.11.42-.29.59-.47.6-.61,1.07-1.31,1.5-2.05.26-.45.53-.9.8-1.34.26-.43.53-.85.79-1.28.41-.68.83-1.36,1.23-2.04.46-.78.87-1.59,1.26-2.41.47-1.01.86-2.04,1.19-3.11.27-.89.44-1.79.54-2.7.07-.67.09-1.34.11-2.01.04-1.27-.24-2.47-.73-3.64-.26-.62-.55-1.21-.87-1.8-.28-.51-.59-1-.94-1.46-.51-.67-1.13-1.24-1.82-1.74-.68-.5-1.44-.73-2.25-.82-.42-.05-.83-.05-1.25-.06-.71-.01-1.4-.09-2.09-.27-.44-.11-.9-.17-1.34-.29-.47-.14-.95-.22-1.44-.29-.32-.05-.65-.07-1-.06.09-.06.17-.1.25-.11.56-.08,1.13-.12,1.69-.23.84-.17,1.7-.17,2.54-.29.97-.13,1.95-.18,2.93-.16.29,0,.57,0,.85-.03.53-.04,1.07,0,1.6,0,.49,0,.99-.02,1.48,0,.48.02.95.09,1.42.11.58.03,1.15.15,1.73.18.31.01.6.11.9.16.54.1,1.09.14,1.62.26.6.13,1.19.28,1.79.42.77.18,1.52.41,2.28.64.65.2,1.28.44,1.91.71.73.31,1.48.6,2.21.92.74.32,1.47.66,2.19,1.01.48.23.94.48,1.4.75.47.28.92.57,1.37.88.44.3.95.53,1.1,1.13.05.21.14.4.22.6.27.67.46,1.36.57,2.07.12.76.17,1.52.2,2.28.03.91-.1,1.81-.19,2.71-.06.53-.17,1.04-.24,1.57,0,.04-.01.08-.06.09-.04,0-.05-.03-.07-.06-.04-.07-.07-.14-.13-.19-.23-.19-.48-.3-.76-.39-.62-.21-1.26-.21-1.9-.1-.3.05-.58.19-.87.27-.48.14-.9.4-1.31.66-.47.29-.89.65-1.36.96-.62.41-1.13.92-1.58,1.5-.36.46-.69.95-1.06,1.41-.68.84-1.32,1.7-1.81,2.66-.33.65-.64,1.3-.93,1.97-.21.48-.38.97-.55,1.46-.19.53-.35,1.06-.53,1.59-.17.5-.29,1.02-.44,1.52-.28.91-.46,1.85-.58,2.79-.12.94-.23,1.89-.24,2.84-.01.7.02,1.4.08,2.09.04.46.07.92.16,1.37.06.37.12.73.23,1.09.2.67.51,1.29.81,1.91.23.48.43.98.77,1.4.22.27.44.23.64-.03.17-.21.29-.45.42-.68.24-.43.46-.88.72-1.3.46-.77.93-1.54,1.4-2.31.42-.68.87-1.35,1.35-1.99.27-.36.52-.72.78-1.08.23-.33.47-.65.71-.96.23-.29.45-.59.68-.88.4-.5.76-1.03,1.15-1.53.39-.51.78-1.02,1.14-1.55.72-1.07,1.27-2.22,1.79-3.39.68-1.55,1.29-3.13,1.77-4.75.29-.99.48-1.99.51-3.02.03-.96-.2-1.87-.58-2.74-.04-.1-.05-.17-.03-.27.09-.43.19-.87.26-1.3.06-.37.08-.74.13-1.11.07-.48.13-.96.15-1.44.04-.92,0-1.84-.13-2.76-.12-.86-.25-1.71-.6-2.51-.05-.12-.12-.25-.1-.42.19.15.35.29.52.42.71.56,1.45,1.1,2.14,1.68.65.55,1.31,1.1,1.91,1.71.54.54,1.08,1.07,1.58,1.65.56.66,1.12,1.32,1.67,1.99.44.54.87,1.09,1.29,1.65.37.5.72,1.01,1.07,1.52.3.43.58.88.89,1.31.07.1,0,.23.09.3.28.21.42.52.56.82.15.31.33.63.31.98-.04.76-.05,1.51-.07,2.27-.02.78-.07,1.56-.16,2.34-.04.33-.05.67-.22.97-.1.18-.21.36-.33.53-.38.53-.8,1.02-1.24,1.5-.24.26-.52.48-.77.73-.34.34-.67.69-1.04,1-.36.3-.7.61-1,.97-.28.34-.55.7-.85,1.03-.39.44-.76.89-1.16,1.32-.34.37-.58.82-.9,1.22-.4.51-.74,1.06-1.16,1.55-.14.17-.25.37-.4.52-.3.32-.54.69-.79,1.04-.45.63-.82,1.3-1.22,1.96-.43.73-.74,1.51-1.08,2.29-.17.39-.32.8-.47,1.2-.18.46-.38.92-.51,1.4-.19.68-.38,1.37-.56,2.06-.14.56-.14,1.13,0,1.69.14.55.35,1.08.59,1.59.22.49.41.99.75,1.42.18.22.44.24.65.05.5-.46.95-.97,1.41-1.47.44-.49.9-.96,1.39-1.4.55-.5,1.12-.97,1.69-1.44.77-.64,1.47-1.36,2.18-2.06.44-.43.88-.85,1.3-1.3.58-.62,1.11-1.28,1.58-1.99.52-.78,1-1.59,1.44-2.42.33-.61.6-1.25.83-1.91.23-.66.44-1.32.62-2,.16-.58.3-1.17.42-1.76.18-.84.31-1.7.36-2.56.02-.4.04-.81.02-1.21-.03-.41-.06-.82-.12-1.22-.11-.73-.3-1.44-.5-2.15-.19-.65-.33-1.31-.21-1.99.19-1.04.15-2.08,0-3.12-.02-.12-.07-.23-.05-.38.16.13.19.32.28.47.52.89.98,1.82,1.41,2.75.42.91.74,1.86,1.04,2.81.13.43.27.86.41,1.29.2.61.4,1.22.56,1.84.1.41.21.82.29,1.24.11.54.23,1.07.32,1.61.09.59.17,1.19.23,1.79.05.49.09.99.07,1.49-.03.59-.07,1.18-.01,1.76.02.24-.09.36-.23.49-.33.31-.7.57-.97.93-.41.55-.84,1.08-1.24,1.64-.35.47-.73.91-1.05,1.41-.33.51-.64,1.03-.88,1.59-.31.73-.61,1.46-.86,2.21-.16.47-.26.96-.39,1.43-.18.64-.4,1.27-.58,1.91-.21.76-.33,1.55-.49,2.32-.1.47-.14.95-.19,1.43-.03.27-.02.55-.01.82.01.7.03,1.4.05,2.1.03.85-.11,1.71.19,2.54.18.52.33,1.05.58,1.54.17.32.36.64.51.97.21.47.44.93.69,1.39.19.34.4.68.54,1.04.13.33.26.67.39,1,.04.09.06.21.18.21.14,0,.3,0,.38-.16.09-.19.22-.35.33-.53.22-.38.46-.76.73-1.11.55-.72,1.14-1.41,1.65-2.16.39-.58.81-1.14,1.29-1.64.55-.56.98-1.2,1.32-1.88.34-.67.6-1.38.85-2.08.25-.69.44-1.41.64-2.12.13-.48.29-.96.37-1.46.16-.99.19-2,.33-2.99.07-.48.09-.97.14-1.46.09-.83.28-1.65.26-2.49-.03-.98-.37-1.83-.97-2.59-.39-.5-.86-.93-1.25-1.43-.31-.39-.59-.79-.86-1.21-.21-.34-.39-.7-.65-1-.12-.15-.26-.25-.24-.51.02-.25,0-.52,0-.79.02-.84,0-1.68-.05-2.52-.07-1.39-.22-2.77-.51-4.14-.21-.98-.5-1.93-.85-2.87-.06-.18-.12-.35-.18-.53.02,0,.04-.02.06-.02.29.56.59,1.12.88,1.67.02.05.02.09-.01.13-.08.1-.04.2,0,.3.16.46.43.87.7,1.27.43.65.88,1.28,1.34,1.9.52.7,1.11,1.32,1.85,1.79.94.6,1.95,1.05,2.95,1.54.57.28,1.19.46,1.79.69.2.08.4.17.62.15.15,0,.19-.07.18-.21-.02-.18-.13-.32-.23-.44-.6-.76-1.09-1.6-1.58-2.43-.25-.42-.52-.83-.83-1.21-.35-.42-.73-.82-1.13-1.19-.41-.37-.86-.68-1.34-.94-.41-.22-.85-.37-1.28-.54-.33-.13-.68-.24-1.02-.34-.35-.11-.72-.16-1.05-.3-.28-.12-.55-.25-.71-.54-.36-.63-.75-1.26-1.18-1.85-.16-.22-.31-.44-.41-.69-.14-.37-.27-.75-.41-1.12-.27-.7-.55-1.4-.88-2.07-.32-.65-.68-1.29-1.03-1.93-.42-.78-.83-1.57-1.29-2.33-.41-.68-.81-1.37-1.29-2.01-.1-.13-.19-.27-.31-.44.32.08.61.13.89.18.29.05.56.18.84.28.37.13.76.17,1.15.21.45.05.91.03,1.34.16.8.24,1.61.45,2.44.54.56.06,1.09,0,1.62-.16.25-.07.49-.18.73-.26.34-.12.66-.27.99-.41.56-.23,1.1-.51,1.64-.79.54-.27,1.02-.63,1.45-1.06.41-.4.8-.82,1.22-1.21.48-.45.9-.95,1.27-1.49.38-.54.79-1.06,1.25-1.53.51-.52,1.02-1.04,1.49-1.61.44-.54.84-1.12,1.25-1.68.21-.28.41-.57.62-.85.1-.14.06-.26-.01-.38Zm-12.06-6.54c-.17.17-.38.3-.59.41-.8.43-1.61.84-2.42,1.26-.4.2-.82.34-1.24.49-.49.18-.95.42-1.37.73-.31.23-.66.36-1.03.47-.63.19-1.27.36-1.87.66-.42.21-.88.26-1.35.29-.45.03-.89.09-1.33.19-.31.07-.63.13-.95.12-.49,0-.97.09-1.46.12-.76.04-1.52-.03-2.28-.15-.4-.06-.8-.12-1.2-.17-.08-.01-.15-.03-.23-.04.22-.05.43-.05.64-.06.78-.07,1.5-.34,2.23-.58.36-.12.76-.14,1.09-.36.69-.45,1.51-.56,2.26-.85.35-.14.69-.31,1.03-.48.51-.25,1.05-.42,1.58-.63.52-.21,1.05-.4,1.58-.58.7-.24,1.41-.46,2.14-.6,1.2-.22,2.41-.33,3.63-.44.35-.03.71-.03,1.06.01.05,0,.12-.03.14.04.02.06-.03.11-.07.15Zm-18.1,3.94c.33-.39.7-.73,1.1-1.05.49-.39.99-.77,1.44-1.21.74-.72,1.46-1.46,2.37-1.98.87-.5,1.71-1.04,2.68-1.35.44-.14.9-.21,1.36-.27.59-.07,1.19-.09,1.79-.09.99,0,1.93.25,2.87.51.84.23,1.65.53,2.5.7.44.09.89.14,1.33.24.25.06.49.15.74.23-.99-.03-1.96.05-2.94.18-.58.08-1.16.13-1.74.22-.43.07-.85.19-1.28.3-.84.22-1.65.53-2.46.83-.95.35-1.88.73-2.79,1.17-.26.12-.54.19-.82.25-.56.12-1.05.37-1.55.63-.21.1-.44.16-.67.22-.56.13-1.1.34-1.66.46-.47.11-.95.16-1.43.15-.26,0-.52,0-.78,0-.13,0-.14-.05-.06-.13Zm-28.7-11.99c.03-.5.09-1,.15-1.5.09-.78.16-1.56.3-2.33.11-.64.24-1.27.35-1.91.15-.89.27-1.78.42-2.67.14-.87.37-1.72.7-2.54.3-.73.63-1.45,1.01-2.14.33-.6.69-1.17,1.2-1.63.35-.32.73-.61,1.17-.81.24-.11.37-.05.46.21.38,1,.66,2.04.89,3.08.25,1.17.5,2.35.67,3.54.13.9.26,1.79.28,2.7.02.68.03,1.36-.02,2.03-.07.8-.14,1.61-.38,2.39-.19.61-.47,1.17-.82,1.7-.49.74-1.06,1.42-1.6,2.13-.21.27-.48.49-.71.75-.33.38-.71.7-1.08,1.04-.42.39-.81.82-1.32,1.09-.34.19-.71.34-1.06.51-.07.03-.14.07-.22.11.38-.7.6-1.43.74-2.19.11-.62.16-1.24.22-1.87.05-.49.18-.97.29-1.46.17-.71.25-1.44.3-2.17.05-.88.2-1.74.43-2.6.26-.96.32-1.95.4-2.94.07-.88.28-1.72.53-2.56.25-.82.48-1.66.72-2.48.21-.71.54-1.37.94-1.99.16-.24.34-.47.41-.78-.66.95-1.26,1.9-1.55,3.02-.27,1.04-.61,2.06-.9,3.1-.14.48-.21.98-.27,1.48-.09.78-.14,1.57-.26,2.35-.08.56-.25,1.1-.38,1.65-.15.64-.2,1.29-.25,1.94-.04.48-.09.96-.18,1.44-.15.76-.38,1.51-.45,2.28-.05.55-.11,1.09-.23,1.63-.12.56-.26,1.12-.5,1.64-.03.06-.04.13-.13.16.01-.25.03-.48.03-.72.01-.72-.05-1.43-.12-2.15-.08-.84-.21-1.69-.15-2.54Zm-47.14,14.45c-.8-.23-1.63-.14-2.44-.24-.68-.08-1.33-.26-1.94-.57-.41-.21-.81-.42-1.23-.63,2.19-.44,4.21-.11,6.03,1.26-.12.18-.27.22-.42.18Zm-9.93-19.77c.02.48-.02.96.07,1.42.16.85.24,1.71.34,2.57.04.39.12.77.14,1.16.02.5.06,1.01.16,1.5.13.62-.01,1.24-.06,1.85-.11,1.37-.44,2.7-.59,4.06-.06.51-.24.98-.42,1.45-.28.7-.45,1.43-.81,2.09-.81,1.51-1.92,2.77-3.23,3.85-.03.03-.08.03-.19.08.28-.66.43-1.28.8-1.81.05-.07.1-.15.12-.23.17-.72.55-1.36.73-2.07.08-.31.21-.6.31-.9.31-.9.58-1.81.82-2.73.05-.18.06-.38.13-.55.3-.72.45-1.49.63-2.24.19-.78.38-1.57.44-2.37.03-.46.13-.91.17-1.37.07-.74.16-1.49.2-2.23.06-.94-.02-1.87.01-2.81.02-.54-.11-1.09-.18-1.63-.01-.13-.03-.25-.01-.39.26.39.41.82.43,1.29Zm-5.49,17.4c-.09-.82-.11-1.64-.1-2.46,0-1.03.06-2.07.54-3.04.34-.7.62-1.43,1.01-2.1.19-.32.32-.68.46-1.03.53-1.39,1.13-2.74,1.96-3.99.24-.37.37-.77.49-1.19.18-.63.41-1.25.7-1.86,0,.32.04.64.02.97-.04.66-.06,1.32-.15,1.98-.12.94-.18,1.89-.33,2.83-.13.81-.26,1.61-.47,2.41-.2.77-.44,1.52-.63,2.29-.28,1.13-.63,2.24-1.04,3.34-.26.7-.55,1.39-.78,2.1-.02.05-.03.11-.06.16-.37.57-.62,1.2-.92,1.81-.03.06-.08.11-.12.18-.19-.16-.25-.37-.31-.58-.16-.6-.2-1.22-.27-1.84ZM9.8,49.04c.88.77,1.84,1.43,2.77,2.14.3.23.55.5.84.75.15.13.29.27.48.34.21.29.49.48.82.61-.23-.26-.5-.48-.82-.61-.73-.84-1.61-1.51-2.5-2.15-.3-.22-.58-.47-.87-.75.12-.08.2-.01.28.02.26.1.54.17.8.15.81-.08,1.41.3,1.95.84.54.53.97,1.14,1.4,1.75.3.44.61.87.91,1.31.04.06.1.13.03.18-.06.04-.14.02-.2-.03.03.07,0,.12-.07.11-.89-.09-1.75-.29-2.55-.72-.8-.43-1.49-.97-2.09-1.65-.49-.55-.85-1.19-1.15-1.87-.06-.14-.12-.29-.17-.42.07-.09.12-.03.15,0Zm21.61,17.91c-.28.27-.63.23-.97.17-.11-.02-.13-.1-.08-.2.05-.1.13-.19.21-.27.24-.26.57-.39.85-.6.06-.04.07,0,.07.05.01.11.05.22.03.34.02.17.03.35-.11.5Zm1.69,16.44c-.08,0-.16,0-.24,0-.17-.02-.22-.1-.18-.26.01-.06.04-.11.07-.17.12-.22.3-.38.46-.57.02-.02.04-.04.06-.04.05,0,.02.05.03.07.05.18.06.36.11.54.11.39.1.39-.31.43Zm-.63,7.26c-.14-.02-.28-.02-.41-.03-.24-.01-.24-.01-.25-.25-.02-.47-.04-.44.45-.48.08,0,.15,0,.23-.01.07,0,.11,0,.12.09.01.19.03.38.01.56,0,.09-.04.14-.15.12Zm-.91,8.4c0,.15-.08.17-.2.15-.21-.03-.39-.12-.55-.28-.1-.09-.08-.15.01-.22.16-.14.37-.2.55-.3.09-.05.22.06.2.16,0,.07,0,.13,0,.23,0,.06-.02.16-.02.26Zm1.91-1.79c.02.12-.02.22-.14.28-.13.06-.26.12-.39.17-.05.02-.13.04-.18,0-.05-.04-.02-.11-.01-.17.06-.36.23-.68.32-1.07.17.27.35.5.4.79Zm-2.51,5.95c-.22-.06-.44-.12-.63-.27-.08-.06-.1-.14-.06-.23.15-.29.35-.54.63-.71.06-.03.11-.03.1.06-.02.18,0,.37.02.55,0,.16.02.33.03.49,0,.06,0,.12-.09.1Zm-.81,6.33c-.07.3-.34.4-.56.55-.06.04-.13.06-.19.1-.1-.03-.07-.13-.09-.19-.07-.26.02-.38.28-.44.15-.03.31-.07.46-.11.04-.01.08-.04.11,0,.03.03,0,.07-.01.1Zm-3.72,3.41c-.13.1-.27.19-.32.37-.06-.17-.1-.68-.06-.81.03-.09.09-.13.17-.07.08.06.17.12.24.19.17.17.16.17-.03.32Zm1.93,1.45c-.02.11-.07.19-.21.15-.18-.05-.36-.09-.53-.15-.04-.01-.1-.01-.1-.06,0-.05.06-.06.09-.09.24-.16.52-.23.77-.42.01.2,0,.39-.02.57Zm-.16,2.57c-.02.05-.05.12-.11.11-.1-.02-.18-.1-.24-.18-.04-.06,0-.12.04-.15.14-.08.21-.23.32-.38.06.22.06.41-.02.59Zm-1.09,3.55s-.03,0-.06-.01c.1-.2.26-.34.43-.47.06-.04.07.01.07.05,0,.35-.08.44-.44.43Zm1.32-.43s-.09,0-.13-.04c-.04-.04-.02-.07,0-.11.04-.05.07-.11.13-.2,0,.1.01.17.01.24,0,.04.02.09-.03.1Zm-.17,1.37c-.05.1-.1.16-.2.05-.06-.06-.14-.12-.21-.18-.05-.05-.05-.08.03-.1.11-.02.23-.05.37-.09.06-.02.08.02.06.09-.02.07-.02.15-.05.22Zm.95,1.51c-.15,0-.3-.01-.46-.06.1-.19.24-.34.34-.53.03-.06.11-.08.13,0,.04.16.06.32.08.48.01.07-.02.1-.09.1Zm.73-2.2s.07.05.1.07c.1.1.14.23.09.35-.05.12-.17.08-.27.08-.02,0-.03,0-.05,0-.08,0-.14-.04-.12-.12,0-.11.02-.19.02-.28.02-.2.05-.22.22-.11Zm1.93.28c.07.03.14.05.21.09.12.06.23.25.21.35-.03.14-.14.21-.26.25-.08.02-.12,0-.14-.08-.03-.17-.07-.35-.11-.54-.03-.08.02-.09.1-.06Zm-1.1,1.25c.05.08.2.14.15.25-.05.1-.2.07-.31.09-.09.01-.13-.01-.08-.1.05-.1.1-.21.16-.33.04.04.06.07.08.1Zm.88-2.11c.15.05.17.17.05.27-.13.1-.29.17-.43.2-.09.01-.12-.02-.14-.09-.03-.15-.06-.3-.09-.45-.01-.05-.02-.08.05-.07.19.04.38.08.56.13Zm-.38-.61c.03.08.11.18.06.24-.07.07-.17-.03-.26-.04-.13-.02-.18-.09-.18-.22,0-.14-.04-.27-.06-.41-.05-.23-.1-.46-.16-.69.27.34.45.72.6,1.11Zm1.26-2.4c.04-.17.05-.33.06-.5,0-.02-.01-.05.02-.07.04-.02.05.01.07.03.13.12.27.24.37.39.11.16.1.23-.09.29-.09.03-.17.06-.27.06-.2,0-.21,0-.16-.19Zm2.57-.05s.04.09-.01.11c-.21.09-.41.18-.64.19-.06,0-.09,0-.07-.08.06-.23.08-.46,0-.73.28.17.52.32.73.51Zm-3.68-3.59c-.43-.59-1.01-.87-1.66-1.04,0-.07.06-.1.1-.14.47-.47.89-.98,1.3-1.49.33-.4.73-.69,1.21-.94-.27,1.22-.65,2.39-.95,3.61Zm4.98,1.05c.13.07.09.13,0,.18-.16.08-.33.15-.49.22-.14.06-.18.04-.2-.11-.04-.23-.06-.45-.1-.72.29.16.54.3.8.45Zm-.96-6.71c.24.13.48.2.63.42.07.1.09.21,0,.29-.19.17-.42.25-.68.27-.05,0-.09,0-.08-.08.04-.3.09-.59.13-.91Zm2.07-.07c.1.05.19.11.27.2.06.07.07.14.02.21-.14.17-.3.3-.52.33-.11.02-.17,0-.18-.14,0-.17-.06-.33-.11-.49-.04-.14-.12-.28-.11-.45.22.12.42.23.63.34Zm.39-4.68s.06-.01.09,0c.32.18.64.36.9.62.04.04.08.08.08.15,0,.03,0,.07-.02.11-.06.21-.43.46-.64.45-.07,0-.08-.05-.09-.1-.03-.19-.06-.37-.13-.55-.07-.19-.14-.37-.21-.56-.01-.04-.04-.09.01-.13Zm-1.52-.12c.07-.05.1-.04.14.03.07.11.14.21.21.32.04.07.1.12.11.19.02.08-.03.09-.08.1-.22.03-.43-.02-.62-.11-.07-.03-.09-.1-.05-.15.09-.13.16-.27.29-.37Zm-1.98-8.15c-.36.16-.67.43-.98.68-.04.03-.07.07-.13.06.11-.73,1.02-2.42,1.44-2.66,0,.06,0,.11,0,.17-.01.43-.03.86-.03,1.29,0,.22-.05.36-.29.47Zm1.69,5.89c-.09-.06-.15-.09-.2-.12-.38-.22-.75-.44-1.22-.38-.1.01-.07-.05-.07-.1.06-.72.12-1.45.18-2.22.78.79,1.02,1.79,1.31,2.82Zm3.86-10.66c.31.09.64.15.9.37.08.07.14.15.17.25-.01.05-.01.1-.04.13-.14.19-.32.35-.54.44-.09.03-.22.07-.26-.07-.1-.34-.19-.68-.32-1.01-.02-.06,0-.13.08-.1Zm-1.9-.89c.14.15.26.26.36.39.11.12.21.25.27.41.06.16.03.21-.13.26-.26.07-.52.08-.79.09-.09,0-.11-.03-.09-.13.03-.13.11-.23.16-.34.09-.2.25-.38.22-.68Zm-.01-9.4c.17.03.33.04.49.08.23.05.41.18.5.41.06.15.02.3-.11.33-.24.05-.49.13-.74.11-.22-.01-.22-.04-.23-.26,0-.23.12-.43.1-.66Zm2-1.66c.33-.11.65-.25,1.02-.21.12.01.15.06.11.17-.07.25-.41.55-.67.56-.06.01-.11,0-.17-.02-.19-.09-.26-.27-.33-.44-.02-.03.01-.06.04-.07Zm-4.7-2.06c.08.02.16.03.24.05.53.14,1.03.33,1.38.79.14.18.28.36.4.6-.2-.02-.37-.06-.54-.06-.49,0-.98,0-1.45-.2-.12-.05-.18-.1-.18-.23,0-.26-.02-.52-.05-.78-.03-.18.03-.21.21-.17Zm3.14-6.14c.19-.12.34-.29.57-.34.21-.05.39,0,.48.17.13.22.04.39-.2.4-.26,0-.53,0-.79,0-.1,0-.2-.02-.32-.04.1-.08.17-.15.26-.2Zm-1.94-4.6c.01-.33.07-.65.15-.97.03-.13.09-.14.19-.1.22.09.44.17.65.26.22.09.24.15.11.35-.02.03-.04.05-.06.07-.22.26-.53.43-.79.65-.06.05-.16,0-.21-.08-.03-.05-.05-.11-.05-.18Zm29.53-27.11c.23-.09.44-.22.65-.34.14-.08.21-.06.3.1.16.29.28.6.39.91.16.44.37.84.61,1.23.1.16.22.31.37.42.41.32.83.63,1.23.95.37.3.79.46,1.24.56.32.07.64.16,1.04.25-.25.17-.48.22-.69.29-.88.28-1.75.55-2.65.75-.69.15-1.17-.16-1.61-.59-.19-.18-.3-.43-.38-.67-.37-1.14-1.09-2.05-1.84-2.95-.06-.08-.15-.14-.17-.29.51-.22,1.01-.44,1.52-.65Zm3.42,8.15c0,.12-.12.15-.19.21-.16.15-.35.24-.57.27-.33.05-.65.14-.94.3-.34.18-.67.23-1.03.07-.05-.02-.1-.06-.16-.02.1.14.3.09.42.25-.04.12-.16.18-.26.23-.9.49-1.28,1.32-1.5,2.27-.17.76-.1,1.52-.06,2.28.03.51-.03,1.01-.15,1.5-.22.94-.21,1.86.02,2.78.11.44.3.84.68,1.12.21.15.38.35.65.52-.02-.19-.14-.25-.23-.32-.53-.42-.73-1-.85-1.65-.16-.9-.05-1.78.17-2.65.12-.47.14-.94.12-1.42-.02-.62-.04-1.24.05-1.86.15-1.1.69-1.91,1.67-2.42.46-.24.92-.48,1.44-.56.3-.05.58-.16.81-.38.09-.09.2-.17.31-.23.37-.19.55-.51.67-.9.34-1.09,1.06-1.79,2.18-2.04.2-.04.4-.08.59-.11.03,0,.06,0,.15.03-.47.6-.68,1.35-1.35,1.77-.36.23-.61.57-.86.9-.71.92-1.34,1.87-1.74,2.97-.12.32-.17.64-.22.97-.15,1-.26,2-.12,3.01,0,.06.03.14,0,.17-.27.26-.23.64-.37.94-.3.66-.34,1.33-.08,2.01.06.16.03.23-.1.32-.18.11-.37.23-.54.36-.12.1-.2.06-.29-.05-.4-.47-.57-1.03-.65-1.62-.02-.11.06-.19.08-.29.11-.39.11-.77-.1-1.13-.07-.13-.17-.25-.34-.22-.19.04-.24.19-.25.36-.02.15.01.29.07.42.19.38.25.8.31,1.21.08.54.32.98.66,1.38.15.18.24.32.03.5-.02.02-.05.04-.05.07-.11.7-.7.51-1.13.61-.07.02-.14-.02-.2-.07-.79-.56-1.57-1.13-1.94-2.09-.12-.31-.29-.6-.48-.87-.48-.7-.66-1.49-.82-2.3-.07-.35-.09-.72-.15-1.07-.05-.36-.02-.72.05-1.07.04-.17.07-.34.07-.51,0-.5.11-.97.28-1.43.05-.13.11-.27.12-.41.07-.67.38-1.27.63-1.88.19-.46.55-.84.86-1.24.08-.11.21-.13.34-.15.11-.32.41-.45.66-.62.28-.2.6-.33.91-.49.13-.07.28-.09.42-.08.49,0,.98-.04,1.47.03.04,0,.09.02.13.02.13-.02.29-.02.31-.18.03-.18-.13-.19-.26-.22-.05,0-.11-.02-.17-.03.06-.12.17-.13.26-.15.94-.17,1.83-.5,2.75-.77.61-.18,1.22-.19,1.83.02.15.05.29.12.36.31-.19.11-.4.13-.61.15-.47.05-.97.09-1.38.32-.78.44-1.4,1.05-1.67,1.94-.03.11-.07.22-.11.33-.17.48-.31.54-.78.32-.01.13.15.14.15.24Zm.16,10.19c-.17.1-.62-.06-.7-.24-.12-.25-.12-.53-.13-.8-.01-.5.15-.95.43-1.46.12.27.13.47.15.67.03.27.06.55.18.79.14.29.09.59.14.89,0,.06-.01.12-.06.15Zm.48,1.33c-.03.74-.45,1.33-.94,1.84-.28.29-1.05.34-1.39.13-.2-.13-.27-.34-.3-.55-.06-.42,0-.83.15-1.23.06-.16.11-.33.31-.39.1-.03.14-.14.2-.22.28-.37.72-.57,1.19-.54.82.03.83.11.79.96Zm-3.12-3c-.15-.31-.26-.53-.2-.85.24.23.26.48.2.85Zm-11.48-18.42c-.68-.38-1.45-.43-2.22-.62.22-.19.49-.16.72-.21,1.17-.27,2.34-.28,3.52-.12,1.4.2,2.74.58,3.98,1.24.45.24.82.6,1.2.92,1.06.89,1.99,1.92,2.8,3.05.23.32.41.66.54,1.03.25.7.59,1.34,1.28,1.77-.16.08-.28.12-.42.13-1.02.07-1.97-.13-2.87-.63-1.14-.63-2.32-1.15-3.51-1.67-.73-.32-1.41-.72-2.09-1.13-.63-.38-1.22-.82-1.75-1.33-.81-.76-1.69-1.44-2.57-2.11-.34-.26-.73-.47-1.13-.63-.08-.03-.17-.03-.21-.18.94.08,1.85.21,2.74.49Zm-12.17.34c.26.04.52.04.78.02,1.19-.06,2.39-.13,3.57-.31,1.29-.2,2.58-.43,3.89-.53.2-.02.4-.01.57.13.11.09.25.14.39.18.72.22,1.3.66,1.88,1.12.93.74,1.77,1.56,2.67,2.33.05.04.1.1.2.21-1.29,0-2.48,0-3.68,0-1.25,0-2.51,0-3.76-.03-1.19-.02-2.39.06-3.58-.11-.2-.03-.32-.1-.42-.25-.06-.08-.12-.16-.19-.24-.7-.92-1.65-1.5-2.67-2-.12-.06-.23-.11-.35-.17.23-.41.25-.42.69-.35Zm4.43-20.95c-.25-.24.02-.36.1-.6.13.26.17.47.21.68.3,1.63.92,3.15,1.57,4.66.33.77.63,1.55.84,2.36.07.25.11.51.1.77-.05,1.14-.07,2.28-.5,3.36-.28.7-.66,1.35-1.01,2-.14.27-.3.53-.43.8-.26.58-.59,1.12-1.04,1.58-.22.23-.41.48-.58.75-.4.66-1.01,1.14-1.5,1.73-.15.18-.35.29-.64.42.07-.28.2-.42.3-.58.39-.66.7-1.35.69-2.15,0-.16.06-.31.14-.45.41-.72.63-1.51.75-2.33.04-.29.17-.55.22-.83.3-1.67.6-3.34.56-5.06-.04-1.67-.04-3.35.08-5.02.04-.65.1-1.29.14-1.94,0-.06.02-.14,0-.17Zm-3.65,12.32c.26-1.14.44-2.29.47-3.46,0-.53.02-1.08.18-1.59.23-.74.48-1.48.71-2.22.05-.16.14-.32.23-.46.3-.43.49-.91.58-1.43.11-.65.37-1.24.66-1.82.17-.34.35-.68.53-1.01.02,0,.04.01.06.02,0,.22.02.45,0,.67-.25,2.08-.24,4.17-.23,6.26,0,1.23-.13,2.44-.34,3.65-.14.78-.31,1.55-.46,2.33-.12.59-.23,1.19-.55,1.71-.13,0-.16-.09-.18-.16-.28-.81-.84-1.41-1.46-1.95-.19-.17-.23-.29-.17-.54Zm-12.86-1.57c.26-.02.52-.04.76-.12.43-.15.88-.15,1.33-.15.26,0,.52.06.75.19.82.45,1.71.69,2.6.92.63.16,1.29.1,1.94.1.58,0,1.15-.01,1.73,0,.38,0,.75.06,1.11.17.76.22,1.51.5,2.19.9.88.52,1.5,1.29,1.9,2.24.03.08.09.18.07.25-.13.39.07.78-.05,1.18-.13.45-.27.89-.52,1.28-.59.91-1.26,1.75-1.96,2.58-.21.24-.42.47-.62.72-.12.15-.25.16-.42.09-1.3-.57-2.67-.49-4-.26-1.17.2-2.27.66-3.18,1.46-.21.18-.43.34-.65.5-.47.34-.87.75-1.23,1.25-.14-.09-.24-.18-.36-.21-.28-.07-.3-.25-.26-.49.11-.61.47-1.04.97-1.37.13-.08.27-.13.45-.07.43.14.82,0,1.19-.22.11-.07.23-.16.19-.31-.04-.16-.16-.28-.34-.3-.28-.04-.56.01-.77.21-.24.23-.5.42-.82.54-.3.12-.48.41-.73.6-.1-.16.05-.31-.02-.54-.14.47-.36.82-.35,1.26,0,.18,0,.43-.17.51-.23.1-.5.13-.76.1-.13-.02-.18-.17-.24-.29-.2-.4-.12-.83-.03-1.23.11-.54.3-1.05.72-1.45.13-.12.26-.27.31-.46.02-.07.04-.14-.02-.2-.07-.08-.16-.05-.24-.01-.3.15-.45.4-.46.73,0,.21-.07.39-.17.57-.28.48-.44,1-.45,1.56,0,.07.02.15-.05.19-.13,0-.16-.1-.22-.18-1.02-1.18-1.98-2.4-2.87-3.68-.43-.63-.79-1.31-1.08-2.02-.04-.11-.08-.22-.09-.33-.06-.69-.23-1.36-.3-2.05-.08-.75.1-1.43.29-2.12.13-.45.47-.68.89-.71.53-.04.99-.23,1.4-.52.8-.57,1.72-.71,2.66-.8Zm1.73,14.29c-.07.47-.71,1.46-1.49,1.58-.72.11-1.1-.21-1.07-.98-.03-.37.19-.71.31-1.06.07-.19.2-.42.5-.39.14.01.2-.18.37-.2.32-.02.65.01.95.1.38.12.51.46.44.95Zm1-3.46c.22-.22.5-.33.81-.31.07,0,.14.05.16.12.03.08-.03.13-.1.17-.2.12-.4.21-.68.22-.01,0-.07,0-.13-.02-.1-.03-.16-.1-.07-.18Zm-2.57-.82c.07-.28.18-.39.37-.5-.02.24-.15.35-.37.5Zm3.41-21.15c.09.86.31,1.7.26,2.57-.01.22-.09.42-.17.62-.21.55-.42,1.1-.64,1.65-.15.37-.29.75-.43,1.13-.41,1.08-1.06,2.01-1.93,2.77-.45.4-.95.75-1.45,1.09-.7.48-1.37,1-1.96,1.62-.19.2-.41.37-.64.51-.14.08-.29.13-.45.03-.17-.11-.12-.27-.08-.43.03-.13.1-.24.15-.36.41-.96.99-1.82,1.52-2.71.29-.48.59-.96.85-1.46.41-.78,1.03-1.42,1.45-2.19.05-.1.14-.19.14-.31.31-.25.58-.54.77-.88.46-.83,1.09-1.52,1.67-2.25.31-.4.61-.8.79-1.28.02-.05.04-.11.14-.13Zm-8.43,10.98c.07-.41.16-.81.14-1.24-.02-.49.14-.97.27-1.44.23-.8.48-1.6.78-2.38.34-.9.89-1.68,1.61-2.32.47-.42.96-.83,1.44-1.24.57-.49,1.2-.89,1.88-1.21.67-.32,1.33-.68,2.03-1.13-.08.39-.25.65-.43.89-.35.47-.75.92-1.09,1.39-.54.74-1.05,1.49-1.57,2.24-.12.03-.18.13-.23.23-.46.82-1.11,1.51-1.55,2.34-.73,1.39-1.69,2.64-2.37,4.06-.07.14-.13.29-.22.48-.2-.21-.42-.36-.68-.37-.11-.12-.02-.21,0-.3Zm-7.03,5.78c.05-.35.22-.65.32-.98.24-.76.55-1.48.98-2.16.22-.35.46-.69.86-.98,0,.27-.1.45-.2.63-.18.32-.27.66-.31,1.02-.05.5-.16.99-.18,1.49-.02.4-.19.81-.5,1.12-.4.41-.86.76-1.23,1.22.12-.46.2-.91.26-1.37Zm-1.45,7.65c-.02.1-.1.05-.16.06-.08-.36-.25-.68-.42-1-.05-.1-.1-.21-.24-.21.24.39.37.84.65,1.21,0,0,0,0,0,0,.08.22.15.44-.03.65-.09.02-.16-.03-.23-.07-1.66-.92-3.42-1.69-4.74-3.11-1.3-1.39-2.47-2.89-3.49-4.5-.79-1.24-1.43-2.56-2.16-3.84-.4-.7-.85-1.38-1.17-2.11-.37-.83-.65-1.7-.91-2.56-.04-.13-.07-.27-.02-.45.4.34.73.72.99,1.14.46.75.95,1.48,1.47,2.18.06.08.12.16.18.24.71.79,1.37,1.64,2,2.49.14.18.31.34.46.51-.29-.56-.7-1.05-1.09-1.54-.71-.89-1.46-1.75-2.11-2.68-.26-.37-.45-.79-.71-1.25.19.02.26.1.34.17.35.34.72.67,1.05,1.03.89.95,1.94,1.67,3.08,2.27.83.43,1.67.85,2.4,1.45.69.58,1.33,1.19,1.82,1.95.62.95,1.28,1.88,1.73,2.94.27.64.56,1.26.83,1.9.37.86.48,1.77.55,2.7.01.14-.02.29-.05.43Zm.92,3.04c-.51-.31-.82-.94-.77-1.53.06-.8.32-1.55.4-2.34.02-.2.09-.4.09-.6.02-.84.16-1.66.2-2.5.02-.48.11-.95.18-1.42.01-.09.03-.17.08-.24.38-.49.71-1.02,1.21-1.4.63-.48.87-1.15.91-1.92.03-.54.05-1.11.21-1.62.19-.62.44-1.26.93-1.73.29-.28.67-.43,1.08-.52,1.02-.23,2.03-.2,3.05-.04.32.05.44.29.57.57-.99.28-1.07,1.14-1.22,1.92-.16.78-.07,1.58.1,2.36.02.11.06.23.06.34.02.92.46,1.68.93,2.43,1.04,1.69,2.35,3.17,3.68,4.63.07.07.16.12.23.19.18.17.18.26,0,.45-.12.13-.23.26-.3.42-.07.17-.18.22-.33.1-.39-.31-.7-.68-.87-1.16-.06-.17-.02-.3.05-.45.1-.19.08-.39-.02-.58-.05-.1-.13-.16-.24-.15-.13.01-.2.1-.23.22-.03.12-.01.24.02.34.19.68.39,1.36.94,1.86.08.08.17.18.27.21.26.1.19.28.15.46-.04.19-.17.21-.32.2-.29-.01-.57-.02-.86-.09-.52-.13-.82-.51-1.09-.93-.14-.21-.29-.4-.49-.54-.12-.08-.27-.15-.4-.03-.14.13-.08.29.02.43.14.19.32.33.54.42.11.04.22.06.28.18.33.65.93.81,1.59.82.16,0,.32-.02.47-.03.14-.01.22.04.23.18,0,.16.12.3.1.5-.67-.04-1.28.23-1.9.46-.69.26-1.42.38-2.14.53-.86.17-1.73.29-2.61.37-1.09.09-2.15-.1-3.22-.29-.54-.09-1.07-.23-1.54-.52Zm10.28-4.25s-.05.05-.07.03c-.07-.07-.06-.15-.04-.24,0-.01.02-.02.02-.04.02.01.06.02.07.04.04.06.06.13.02.2Zm-1.5,1.79c-.19-.1-.41-.14-.46-.4.34.05.38.09.46.4Zm-7.73,10.52c-.13-.19-.25-.39-.41-.55-.53-.54-.71-1.2-.78-1.92-.07-.69-.06-1.38-.11-2.07-.01-.17.01-.34.07-.51.11-.31.21-.63.31-.95.11-.36.28-.67.66-.79.09-.03.2-.08.25-.16.18-.23.39-.22.64-.16,1.12.26,2.26.36,3.39.21,1-.13,2-.23,2.97-.53.8-.24,1.61-.44,2.37-.8.37-.17.77-.24,1.24-.21-.13.18-.29.21-.42.28-.62.3-1.16.7-1.58,1.25-.06.08-.12.16-.16.25-.1.25-.26.45-.52.54-.11.04-.2.12-.27.21-.09.1-.11.2-.04.32.07.11.18.13.31.1.13-.03.24-.11.31-.22.14-.21.29-.43.4-.66.28-.57.68-1.03,1.23-1.35.31-.18.6-.38.93-.53.02.02.04.04.07.07-.11.31-.24.61-.32.92-.35,1.28-.71,2.55-1.03,3.84-.28,1.1-.72,2.15-1.45,3.06-.51.63-.86,1.36-1.2,2.09-.26.57-.69.95-1.25,1.19-.45.19-.9.38-1.4.42-.81.07-1.45-.29-2.09-.74.12-.21.32-.34.41-.61-.19.07-.28.18-.38.26-.25.21-.26.21-.48-.04-.61-.7-1.15-1.44-1.67-2.2Zm8.08-5.92c-.01.1-.06.16-.15.17-.05,0-.09-.01-.08-.06,0-.09.08-.14.16-.17.06-.03.06.03.08.06Zm-1.02,11.85c-.31,1.02-.81,1.95-1.41,2.81-.77,1.1-1.58,2.17-2.38,3.24-.47.63-.98,1.25-1.46,1.88-.52.68-1.21,1.15-1.94,1.56-1.03.59-2.03,1.21-2.97,1.92-.06.05-.12.12-.26.1.29-.61.47-1.28.85-1.83.81-1.17,1.4-2.45,2.05-3.71.59-1.15,1.21-2.29,1.92-3.38.48-.72.85-1.51,1.36-2.21.21-.29.45-.55.6-.87-.48.44-.85.96-1.2,1.5-.39.61-.75,1.23-1.14,1.84-1.05,1.61-1.9,3.33-2.78,5.03-.14.27-.29.54-.46.78-.48.66-.82,1.39-1.14,2.13-.09.21-.17.43-.36.61-.1-.1-.07-.22-.07-.32.04-1.47.1-2.94.29-4.4.22-1.73.49-3.45,1.11-5.1.33-.87.8-1.66,1.3-2.44.53-.83,1.1-1.62,1.86-2.26.1-.08.19-.17.29-.25.16-.13.27-.11.44.04.91.86,1.98,1.32,3.24.98.43-.11.85-.34,1.24-.58.11-.07.2-.17.32-.19.06.01.07.06.06.1-.19.89.11,1.68.55,2.42.13.21.14.38.07.6Zm9.72-.04c-.64.7-1.43,1.15-2.38,1.28-.19.03-.38,0-.56-.04-1.45-.33-2.89-.74-4.4-.8-.11,0-.23-.03-.34-.05-.02,0-.03-.04-.08-.1,1.57-.12,3.07-.46,4.6-.82v.82s.04,0,.06.01c.03-.12.08-.24.09-.37.02-.14,0-.28,0-.49,1.15.6,2.27.33,3.42,0-.06.29-.27.41-.42.56Zm1.27-4.63c.44.85.6,1.74.35,2.68-.11.42-.4.73-.75.9-.83.4-1.72.57-2.64.52-.23-.01-.47-.04-.67-.16-.41-.24-.82-.23-1.25-.07-.37.14-.75.21-1.14.23-.11,0-.23.02-.34.06-.7.23-1.43.3-2.16.39-.57.06-1.09-.06-1.59-.29-.32-.15-.51-.46-.64-.74-.33-.7-.5-1.45-.23-2.22.13-.36.36-.69.5-1.05.34-.83.85-1.57,1.32-2.32.62-.99.99-2.08,1.25-3.2.14-.6.28-1.21.49-1.79.15-.42.17-.87.38-1.35.07.27.02.47,0,.67-.06.45-.04.89.17,1.31.05.11.04.22.06.34.03.22.12.42.3.56.16.13.36.05.39-.15.04-.25-.01-.5-.23-.67-.32-.25-.4-.58-.41-.95,0-.69.06-1.38.31-2.13.2.35.24.65.24.95.04,1.91.73,3.56,1.95,5.01.23.28.53.49.81.71.39.31.79.64,1.19.93.48.35.97.67,1.45,1.01.04.02.07.06.11.06.47.05.61.42.79.77Zm-6.78-6.27s.07-.05.11-.04c.16.05.32.38.26.54-.02.04-.05.07-.1.06-.16-.02-.36-.43-.28-.56Zm11.73,4.58c-.28.18-.54.38-.86.49-.31.11-.6.27-.92.37-.44.14-.9.18-1.36.17-.29,0-.6.04-.92-.15.25-.15.47-.26.73-.32.65-.16,1.3-.26,1.96-.26.53,0,.99-.16,1.34-.57.05-.05.11-.09.17-.13.03-.02.08-.03.16-.06-.04.22-.17.36-.31.45Zm1.98-3.59c-.1.39-.29.75-.36,1.15-.03.16-.13.34-.27.43-.36.21-.52.56-.68.91-.1.22-.21.4-.5.41-.13,0-.24.1-.33.2-.32.33-.72.45-1.17.49-.46.04-.92.07-1.38.13-.37.05-.75.11-1.08.29-.51.27-1.02.27-1.56.17-.16-.03-.32-.11-.51-.04-.14.05-.26-.1-.38-.18-.8-.57-1.54-1.21-2.31-1.82-.38-.29-.7-.65-.98-1.04-.93-1.29-1.42-2.72-1.4-4.32,0-.28-.07-.54-.13-.81-.05-.21.04-.29.21-.36.13-.05.23-.02.27.12.17.54.59.88.97,1.25.27.25.59.46.86.72.22.21.5.27.79.3.1.01.2-.01.29-.06.2-.12.22-.26.05-.41-.19-.17-.42-.26-.66-.29-.93-.11-1.51-.72-2.01-1.42-.06-.08-.09-.18-.12-.28-.03-.12.02-.24.13-.3.09-.05.16.04.22.09.42.36.9.62,1.4.84.31.14.56.4.91.47.1.02.19.05.29.06.14.02.27,0,.33-.14.08-.17-.04-.27-.15-.36-.16-.13-.35-.21-.56-.19-.83.09-1.45-.38-2.1-.77-.14-.08-.23-.18-.11-.35.07-.09.13-.14.25-.08.19.11.38.21.57.3.38.2.79.25,1.22.22.45-.03.89-.06,1.33.1.24.08.51.1.77.06.13-.02.28-.06.3-.21.01-.13-.12-.18-.23-.23-.13-.07-.28-.12-.42-.08-.34.1-.7.11-1.05.16-.82.1-1.61-.01-2.29-.55-.16-.12-.11-.23-.06-.38.05-.16.13-.19.29-.16,1.06.2,2.03-.09,2.95-.58.18-.09.33-.17.56-.12.31.07.62-.06.91-.21.15-.08.21-.21.15-.36-.06-.16-.21-.19-.36-.15-.27.06-.51.2-.74.34-1,.63-2.09.96-3.28.79-.12-.02-.31-.02-.32-.17-.01-.22-.1-.46.11-.65.29-.27.61-.49.97-.65.24-.1.48-.19.72-.29.1-.04.21-.07.26-.19-.38.06-.73.2-1.13.25.2-.17.41-.34.61-.5,1.34-1.13,2.89-1.66,4.64-1.73,1.73-.07,3.21.54,4.6,1.49.66.45,1.17,1.01,1.58,1.68.27.44.39.93.39,1.44,0,.28.02.55.07.82.15.78-.08,1.52-.28,2.25-.08.27-.28.5-.43.75-.05.09-.12.18-.13.27-.06.52-.36.96-.49,1.46Zm-10.77-2.63c.41-.04.71.04.97.22.06.04.13.08.11.17-.02.09-.1.09-.17.1-.36.02-.62-.16-.91-.49Zm.76-1.07c.35-.16.55-.1.75.21-.35.05-.44.03-.75-.21Zm1.47-1.04c.28-.17.29-.17.72.02-.29.13-.5.06-.72-.02Zm13.75,8.95c.35,1.26.58,2.52.59,3.83,0,1.18.08,2.36.07,3.55-.03,2.33-.48,4.58-.97,6.84-.15.71-.49,1.35-.69,2.05-.32,1.15-.82,2.21-1.33,3.28-.3.62-.68,1.21-.97,1.84-.39.83-.87,1.62-1.34,2.41-.76,1.26-1.4,2.59-1.37,4.13,0,.19.02.37.04.63-.28-.29-.42-.6-.56-.88-.39-.81-.67-1.65-.86-2.53-.17-.81-.06-1.61.04-2.41.21-1.56.42-3.11.56-4.68.07-.69.31-1.35.47-2.02.12-.52.3-1.03.51-1.51.34-.77.57-1.57.76-2.38.11-.46.24-.92.42-1.36.33-.79.55-1.61.75-2.43.09-.37.2-.73.38-1.05.55-.97.88-2.03,1.25-3.08.28-.79.55-1.58.84-2.36.11-.31.29-.6.39-.91.22-.71.28-1.44.23-2.18,0-.1-.02-.2-.03-.3,0-.02.02-.04.04-.07.18.08.22.26.3.4.2.38.34.79.45,1.21Zm3.77,1.24c-.22-.84-.84-1.28-1.55-1.64-.31-.16-.66-.23-.95-.41-.71-.42-1.37-.9-2-1.43-.39-.33-.82-.58-1.31-.75-.88-.31-1.78-.6-2.64-.98-.15-.07-.22-.13-.16-.29,0-.01,0-.03.01-.04.28-.5.29-1.13.62-1.59.5-.71.58-1.51.69-2.33.07-.51-.14-1-.12-1.5,0-.32-.04-.63-.12-.98.54.34,1.11.48,1.65.67.64.23,1.25.54,1.83.87,1.96,1.13,3.84,2.4,5.62,3.8.82.64,1.58,1.35,2.37,2.02.2.17.21.22,0,.36-.5.33-.9.76-1.29,1.2-.13.15-.26.31-.37.48-.19.31-.38.61-.64.87-.18.18-.33.4-.41.65-.2.59-.53,1.12-.85,1.71-.23-.22-.31-.47-.37-.71Zm.34,12.08c-.64-1.09-.97-2.22-1.11-3.43-.21-1.72.03-3.39.5-5.04.26-.93.49-1.87.98-2.72.34-.59.66-1.18.9-1.82.03-.08.07-.16.12-.23.6-.77,1.07-1.65,1.8-2.31.5-.44.99-.93,1.67-1.12.18-.05.35-.14.5-.25.43-.31.92-.38,1.49-.35-.16.16-.33.19-.49.22-.97.23-1.67.8-2.18,1.64-.31.5-.61,1.01-.92,1.51-.3.5-.47,1.05-.63,1.6-.19.68-.37,1.36-.57,2.03-.06.19-.16.37-.26.55-.48.87-.83,1.77-.93,2.76-.02.17-.06.34-.14.49-.56,1.1-.81,2.27-.81,3.5,0,.88,0,1.76.12,2.63.01.08.06.17-.04.31Zm2.45.15c.09.59.02,1.18.01,1.77,0,.09-.01.17-.03.26-.02.08-.08.12-.16.08-.12-.06-.24-.1-.34-.18-.86-.71-1.42-1.57-1.48-2.72-.05-1.02-.1-2.04-.02-3.07.07-.86.29-1.67.67-2.44.16-.33.22-.69.26-1.04.11-.79.41-1.5.78-2.19.18-.35.32-.7.42-1.08.2-.77.41-1.53.62-2.29.03-.12.08-.25.14-.36.4-.82.85-1.61,1.36-2.36.35-.51.79-.91,1.39-1.12.38-.13.76-.29,1.15-.38.42-.09.83.06,1.23.18.04.01.08.04.12.06.09.04.19.14.25,0,.05-.11-.08-.17-.16-.22-.21-.13-.45-.2-.69-.24-.51-.1-1-.26-1.53-.25-.35,0-.68.07-1,.24-.2.11-.42.2-.62.3-.25.12-.45.09-.66-.11-.49-.48-1.02-.93-1.51-1.41-1.2-1.18-2.51-2.21-3.9-3.15-.86-.58-1.71-1.18-2.66-1.62-.18-.09-.37-.17-.55-.25-.14-.06-.29-.1-.47-.26.96,0,1.84.03,2.72,0,1.83-.07,3.66-.09,5.48-.28.44-.22.76.04,1.09.26.58.39,1.2.69,1.83.97,1.18.53,2.36,1.06,3.51,1.68.7.37,1.41.57,2.18.66.04.13-.08.12-.14.16-.62.42-1.21.85-1.68,1.46-.64.84-.99,1.77-1.22,2.78-.1.45-.3.87-.36,1.34-.06.56-.21,1.11-.2,1.67.01,1.14.18,2.27.62,3.34.03.08.06.16.09.24-.13.11-.22.02-.31-.04-.57-.39-1.2-.62-1.86-.79-.11-.03-.22-.07-.39,0,.66.19,1.27.4,1.84.71-.04.15-.15.1-.22.11-.79.18-1.5.53-2.08,1.09-.45.43-.83.91-1.16,1.44-.43.68-.81,1.39-1.16,2.12-.04.09-.09.18-.12.28-.29,1.2-.88,2.32-1.04,3.57-.05.37-.1.75-.05,1.12Zm3.25,8.66c-.5-.08-.99-.22-1.43-.46-.52-.28-.78-.77-.94-1.29-.12-.39-.18-.81-.29-1.32.52.29,1,.41,1.43.66.32.18.55.43.56.82.01.41.25.66.55.89.27.21.54.42.9.57-.29.15-.52.19-.77.15Zm4.89-.54c-.26.12-.54.22-.79.35-.41.21-.83.22-1.26.14-.28-.06-.57-.11-.86-.12-.83-.02-1.49-.38-2.05-.97-.13-.14-.18-.29-.18-.47,0-.61-.33-.99-.86-1.22-.33-.15-.66-.29-.99-.43-.18-.07-.31-.19-.41-.36-.22-.39-.33-.81-.41-1.26-.15-.86.11-1.69.1-2.53,0-.06,0-.12,0-.17,0-.33,0-.66-.05-.99-.05-.3-.04-.6.02-.9.15-.79.25-1.59.61-2.33.12-.24.15-.52.23-.79.28-.9.71-1.73,1.19-2.54.36-.61.74-1.2,1.25-1.71.58-.58,1.29-.92,2.05-1.14.32-.09.65.06.98.11.11.01.16.15.23.25.2.32.36.65.54.98.48.88,1.21,1.49,2.1,1.92.21.1.42.07.63.02.11-.03.27-.15.33.03.06.16.08.39-.09.48-.27.15-.24.46-.41.65-.19.22-.35.46-.53.68-.17.21-.35.42-.53.63-.18.22-.35.46-.49.71-.48.87-.78,1.8-.81,2.79-.03.92-.03,1.84-.08,2.77-.03.53-.13,1.06-.09,1.59,0,.13.02.26.05.38.19.65.38,1.3.57,1.95.07.23.16.46.13.72-.01.09.03.2.07.29.12.33.12.35-.21.5Zm9.37,3.76c-.53,0-1.06.06-1.6.04-.78-.02-1.56-.12-2.3-.35-.95-.29-1.87-.69-2.73-1.17-.49-.28-.82-.76-1.2-1.17-.17-.18-.38-.35-.47-.59.02-.02.04-.04.07-.06.3.22.62.42.9.67.62.53,1.32.76,2.12.64.58-.09,1.11.13,1.66.23.7.12,1.31.43,1.84.89.39.33.86.47,1.33.59.18.05.36.09.53.18.01.13-.08.1-.14.1Zm2.56-6.09c-.04.27-.07.54-.1.81-.02.13-.02.26-.06.38-.25.69-.4,1.41-.57,2.12-.19.8-.56,1.55-.65,2.37-.03.3-.18.35-.45.21-.34-.17-.69-.28-1.05-.4-.57-.18-1.09-.46-1.55-.84-.31-.25-.65-.42-1.03-.53-.57-.16-1.14-.3-1.73-.37-.22-.03-.42-.02-.64.01-.57.08-1.14.04-1.61-.33-.52-.4-1.08-.77-1.56-1.23-.17-.17-.28-.35-.34-.58-.23-.88-.48-1.75-.74-2.62-.12-.41-.16-.82-.11-1.24.13-1.15.1-2.3.14-3.46.04-1.33.45-2.55,1.35-3.56.43-.49.83-.98,1.2-1.57.14.2.25.38.37.55-.17.14-.33.26-.49.39-.45.38-.69.88-.73,1.47-.02.36-.06.72.05,1.07.04.12-.03.22-.05.33-.04.21-.06.43.06.63.08.13.19.23.35.19.16-.04.27-.15.26-.3-.02-.28.08-.62-.31-.76-.1-.03-.1-.17-.13-.26-.23-.96.17-2,.99-2.54.15-.1.64-.11.78-.01.07.05.08.11.07.19-.11.98.18,1.88.54,2.77.05.12.06.23.01.37-.14.38,0,.73.21,1.06.08.12.2.16.33.16.14,0,.19-.12.23-.23.15-.41-.02-.99-.37-1.28-.04-.04-.1-.07-.12-.12-.38-.85-.69-1.71-.62-2.67.02-.24.15-.35.36-.33q.09,0,.24.28-.06-.38.34-.6c.12.15.13.34.18.52.25.93.73,1.75,1.19,2.58.1.18.14.34.12.56-.04.49.15.94.48,1.3.26.27.54.18.66-.17.14-.43-.12-1.29-.48-1.58-.03-.03-.07-.07-.11-.07-.36.02-.44-.27-.58-.5-.2-.33-.37-.67-.56-1.01.02-.02.05-.03.07-.05.23.28.44.57.68.84.49.56,1.01,1.1,1.54,1.64.93.93,1.74,1.95,2.51,3.03.53.75,1.02,1.5,1.33,2.36.12.34.14.67.08,1.02Zm-10.13-6.72c.03-.07,0-.17.1-.15.08.01.08.1.08.17,0,.05,0,.12-.08.12-.11,0-.07-.1-.1-.14Zm2.62.29q.38.15.24.58c-.17-.18-.21-.37-.24-.58Zm2.17-.17c-.03-.12.06-.18.15-.23.11-.05.16.03.21.09.19.27.29.56.22.89-.02.07-.04.14-.1.14-.09,0-.13-.05-.17-.1-.17-.24-.24-.52-.31-.8Zm9.32,6.99c.58-.02,1.07.15,1.49.56.76.74,1.43,1.54,1.81,2.55.19.51.52.97.61,1.52.28,1.56.59,3.11.74,4.69.09,1.03.36,2.01.73,2.97.35.91.54,1.85.49,2.83-.03.6.05,1.2.11,1.84-.42-.22-.75-.5-1.07-.78-.49-.42-1.08-.73-1.53-1.19-.79-.8-1.59-1.58-2.18-2.56-.23-.38-.53-.72-.78-1.09-.61-.88-1.12-1.82-1.51-2.81-.22-.54-.29-1.14-.44-1.71-.35-1.38-.69-2.76-1.05-4.14-.15-.59-.4-1.14-.65-1.69-.14-.31-.22-.62-.17-.96.53.05.99.3,1.29.69.21.27.4.57.67.8-.05-.29-.26-.49-.41-.71-.09-.14-.22-.26-.28-.49.77.12,1.43-.28,2.15-.31Zm3.17-4.71c-.17.35-.37.68-.47,1.06-.03.11-.08.22-.17.29-.52.38-.96.86-1.46,1.27-.05.04-.11.09-.22.06.09-.2.23-.32.38-.43.3-.21.51-.49.6-.86.1-.4.28-.78.47-1.15.22-.44.61-.6,1.08-.69,0,.22-.15.31-.21.45Zm-3.76-8.38c.65.05,1.26.3,1.89.43.74.16,1.42.47,2.14.68.11.03.22.08.31.15,1.63,1.25,1.86,3.15,1.02,4.75-.05.1-.13.2-.21.27-.36.29-.6.69-.89,1.04-.18.2-.37.31-.61.36-.35.08-.69.19-.88.5-.18.29-.4.57-.51.9-.08.25-.22.47-.25.73-.02.15-.12.26-.24.35-.56.4-.82,1-1.07,1.59-.15.34-.36.62-.56.91-.17.26-.53.29-.82.34-.73.12-1.44.05-2.07-.39-.11-.08-.21-.13-.22-.29-.06-.83-.43-1.56-.86-2.24-1.01-1.62-2.17-3.13-3.56-4.44-.9-.86-1.69-1.81-2.44-2.8-.23-.3-.42-.62-.37-1.02.18-.02.24.11.32.2.48.52.96,1.04,1.58,1.39.13.08.2.2.27.33.13.21.27.41.48.55.12.08.26.15.4.06.15-.1.17-.26.14-.43-.05-.31-.39-.64-.74-.63-.3,0-.53-.11-.75-.28-.48-.39-.95-.79-1.37-1.26-.24-.26-.18-.49.17-.55.49-.07.97-.05,1.43.2.42.23.78.54,1.12.87.26.25.48.51.46.93-.02.42.72,1.07,1.02,1.15.28.07.52-.15.42-.42-.15-.38-.34-.74-.8-.83-.11-.02-.15-.05-.2-.16-.43-.85-1.11-1.46-1.95-1.89-.44-.22-.92-.23-1.43-.21.04-.62.2-.78.77-.74,1.07.07,2.11.28,3.1.7.16.07.3.15.39.32.12.22.3.39.55.46.13.04.26.05.35-.08.09-.13.04-.26-.05-.36-.17-.2-.39-.37-.66-.35-.2.02-.36-.04-.53-.11-.32-.15-.65-.3-.97-.44.04-.15.15-.12.22-.12.94-.04,1.86-.21,2.79-.3.45-.04.89-.06,1.34-.03.78.06,1.55.11,2.33.17Zm-7.79,3.55c.25.07.38.2.49.37.02.04.03.08,0,.11-.03.04-.08.03-.11.01-.17-.11-.3-.24-.37-.49Zm1.51-.17c.44.04.63.22.74.69-.36-.12-.53-.38-.74-.69Zm10.91-13.03c.18.46.31.93.3,1.43,0,.17.02.34.07.51.18.54.03,1.02-.29,1.47-.28.39-.67.68-1.08.92-.46.28-.89.58-1.3.93-.46.38-1.02.6-1.5.95-.71.52-1.45.99-2.2,1.46-.27.17-.49.41-.67.67-.16.23-.38.39-.6.56-.14.1-.28.14-.44.16-1.4.13-2.81.27-4.21.41-.44.04-.86-.03-1.3-.05-.26-.01-.52-.03-.78-.05-.16-.01-.2-.1-.1-.23.11-.14.22-.26.39-.34.96-.43,1.96-.68,3.02-.6.18.01.37.07.55.11.32.07.6-.02.87-.16.07-.04.15-.1.13-.2-.02-.08-.09-.11-.16-.14-.32-.12-.64-.05-.92.09-.28.13-.55.15-.84.14-.94-.06-1.83.15-2.7.49-.12.05-.22.13-.33.21-.08.06-.15.16-.25.05-.08-.09-.21-.19-.12-.33.22-.34.36-.73.67-1,.23-.2.46-.39.68-.61.44-.44,1.02-.58,1.59-.74.16-.05.31.02.47.03.26.02.49-.06.66-.26.14-.16.1-.29-.1-.36-.21-.07-.44-.07-.63.03-.53.29-1.12.46-1.64.76-.72.41-1.29,1-1.69,1.75-.07.12-.1.27-.25.39-.03-.05-.05-.07-.05-.1-.04-.75-.29-1.46-.34-2.21-.01-.18.03-.3.2-.38.11-.06.22-.15.21-.3-.02-.18-.16-.23-.31-.24-.18,0-.22-.12-.23-.25-.01-.3-.03-.61-.02-.91.04-.71.12-1.41.25-2.1.08-.42.26-.79.43-1.18.44-1.01,1.13-1.87,1.81-2.73.07-.09.16-.17.26-.22.45-.28.8-.64,1.06-1.11.22-.39.46-.76.82-1.04.2-.16.3-.39.22-.66-.06-.18.02-.28.15-.36.73-.47,1.52-.77,2.4-.72.91.06,1.81.2,2.69.42,1.26.32,2.29,1.02,3.12,2.06.88,1.11,1.53,2.33,2.05,3.64Zm-10.1,8.05c.22-.15.42-.16.61-.08-.18.15-.37.13-.61.08Zm-1.26-2.19c.26-.23.5-.26.8-.19-.22.28-.46.3-.8.19Zm-4.41-15.72c.53.1,1.04.26,1.57.37-.23-.21-.53-.23-.81-.31-.46-.13-.92-.25-1.37-.38-.17-.05-.33-.1-.5-.23.28-.18.57-.27.86-.37.38-.13.76-.27,1.12-.45.79-.39,1.61-.51,2.48-.37,1.01.17,2,.43,2.96.79.33.13.61.32.88.54,1.13.92,2.34,1.73,3.67,2.34.96.44,1.81,1.07,2.7,1.63.87.55,1.76,1.05,2.66,1.54.81.44,1.61.9,2.44,1.31.14.07.28.16.39.26.56.54,1.2.94,1.89,1.29.11.06.24.1.29.23-.07.1-.16.05-.23.04-.51-.1-1,.05-1.48.17-.92.23-1.84.35-2.78.3-.28-.02-.54-.06-.81-.14-.28-.1-.48-.27-.63-.55-.44-.81-.96-1.57-1.57-2.27-.97-1.1-2.19-1.71-3.62-1.96-.6-.1-1.2-.19-1.8-.27-1.06-.15-2.03.13-2.92.7-.17.11-.29.17-.5.07-.33-.17-.7-.18-1.06-.18-.18,0-.34-.02-.49-.12-.21-.13-.46-.17-.7-.21-.79-.16-1.53-.41-2.12-.99-.18-.17-.38-.31-.58-.45-.56-.37-.86-.92-1.08-1.52-.14-.38-.29-.75-.46-1.18.58.08,1.08.29,1.61.39Zm28.12-10.22c.21-.02.42-.04.67.01-.25.3-.55.47-.77.73-.46.56-.81,1.19-1.27,1.75-.33.4-.74.72-1.16,1.02-.3.15-.6.3-.89.45-.05,0-.09,0-.14-.02-.91-.21-1.57-.71-1.85-1.66.53-.25,1.05-.54,1.56-.83.15-.09.29-.21.44-.28.39-.18.72-.46,1.11-.6.75-.26,1.51-.48,2.3-.58Zm-2.4-.06c.19-.89.43-1.7,1.1-2.3.2-.18.43-.29.69-.33.67-.1,1.24-.37,1.64-.94.01-.01.05-.01.15-.03-.89,1.53-2.17,2.6-3.58,3.61Zm-4.76-8.27c.07-.66.34-1.26.68-1.81.5-.78,1.13-1.46,1.94-1.93.29-.17.6-.17.92-.09.54.13,1.02.41,1.45.75.43.34.89.58,1.43.65.53.07,1.02.32,1.57.3.18,0,.33.1.42.26.14.25.36.4.61.53.76.42,1.12,1.24.89,2.1-.17.61-.39,1.21-.58,1.81-.1.33-.33.63-.58.9-.17.18-.3.38-.42.6-.26.46-.6.85-1.08,1.09-.17.08-.34.15-.53.17-.79.09-1.31.55-1.67,1.22-.18.33-.33.67-.4,1.05-.07.34-.29.63-.43.94-.24.52-.62.84-1.13,1.07-.38.17-.73.4-1.1.6-.37.19-.44.15-.53-.23-.01-.06-.01-.11-.01-.17,0-.2-.1-.28-.3-.27-.32.02-.63.03-.95.06-.11,0-.19-.02-.25-.12-.36-.58-.85-1.01-1.45-1.32-.03-.02-.05-.06-.1-.12.33-.12.65-.23.97-.36.5-.2.98-.42,1.39-.78.1-.09.19-.17.27-.28.09-.13.15-.27.03-.4-.13-.14-.29-.09-.43,0-.1.06-.18.14-.25.23-.12.15-.24.29-.35.44-.52.7-1.29.88-2.09.94-.26.02-.52-.1-.71-.28-.31-.3-.68-.48-1.07-.63-.09-.03-.23-.03-.22-.16,0-.15.15-.16.26-.17.29-.03.57-.09.83-.24.15-.09.27,0,.41.05.53.18.97.02,1.28-.44.17-.26.13-.36-.17-.38-.28-.02-.54.02-.79.17-.34.21-.7.4-1.09.51-.18.05-.35.13-.58.07.23-.48.5-.89.97-1.13.3-.15.58-.32.85-.51.15-.11.28-.16.48-.1.37.12.63-.13.88-.34.15-.12.07-.37-.13-.46-.2-.09-.4-.04-.58.06-.18.1-.34.22-.47.38-.21.26-.49.43-.8.56-.02-.02-.05-.04-.07-.07.27-.35.52-.72.82-1.04.45-.48.77-1.04,1.06-1.62.29-.56.54-1.15.82-1.72.05-.11.08-.22.09-.33Zm.48,6.7c.06-.2.17-.29.36-.35q-.09.24-.36.35Zm-5.56-.41c.37-.19.74-.38,1.14-.58q-.2.69-1.14.58Zm2.6-.14c.33-.27.64-.43,1.04-.39-.16.45-.48.58-1.04.39Zm.8-1.85s.01-.06.03-.08c.16-.15.35-.26.57-.28.06,0,.11.01.15.07.04.06,0,.11-.05.15-.16.13-.33.23-.54.25-.08,0-.14-.03-.16-.11Zm-6.27-6.62c-.08-1.34.1-2.64.48-3.92.06-.18.14-.35.26-.49.47-.55,1.02-1.01,1.58-1.46.15-.12.31-.15.48-.09.15.06.3.1.44.18.73.44,1.53.67,2.35.85.8.18,1.29.74,1.72,1.36.4.57.55,1.22.52,1.92-.04.88-.01,1.76-.07,2.64-.02.27-.02.55-.09.82-.02.08-.08.17-.02.25.15.23.01.43-.07.6-.43.88-.78,1.8-1.34,2.61-.21.31-.45.6-.67.9-.26.34-.58.64-.8,1.02-.07.13-.18.23-.3.3-.65.4-1.32.77-1.96,1.17-.29.18-.63.04-.96-.14.14-.15.32-.14.45-.21.29-.17.58-.32.81-.58.15-.16.32-.27.53-.37.42-.19.71-.53.96-.91.06-.09.15-.21.03-.31-.1-.09-.22-.04-.32.01-.38.21-.63.54-.84.91-.04.07-.06.16-.13.22-.55.45-1.1.9-1.81,1.05-.36.08-.7-.08-1.09-.09.09-.23.28-.29.44-.38.53-.29,1.02-.66,1.46-1.07.08-.08.16-.16.28-.2.54-.2.87-.64,1.23-1.05.12-.14.23-.31.09-.46-.12-.13-.29-.02-.43.06-.38.21-.64.54-.86.9-.3.49-.72.87-1.19,1.16-.28.18-.49.43-.78.59-.06.03-.1.11-.21.07.03-.4.21-.77.36-1.13.16-.39.36-.76.62-1.09.23-.3.48-.59.89-.7.34-.09.63-.29.77-.64.04-.11.1-.22,0-.32-.11-.11-.24-.07-.36,0-.24.14-.45.33-.61.54-.19.24-.4.45-.62.66-.73.72-1.19,1.58-1.41,2.58-.01.07,0,.14-.09.18-.05-.03-.09-.07-.1-.13-.05-.86-.06-1.73.15-2.58.09-.37.31-.68.57-.96.18-.21.32-.41.39-.72.1-.44.41-.82.99-.82-.08-.17-.19-.14-.27-.11-.38.14-.68.39-.85.75-.19.4-.41.78-.67,1.14-.23.32-.35.69-.37,1.1-.4-.21-.38-.21-.27-.57.52-1.65.84-3.32.73-5.06Zm3.48,7.09c.09-.34.27-.54.69-.76-.17.37-.44.53-.69.76Zm-.93-.87c.18-.44.46-.78.92-.94-.21.4-.5.73-.92.94Zm-.62-1.52c.2-.25.39-.41.7-.52-.13.36-.35.48-.7.52Zm-12.68,4.54c-.54-.32-1.01-.76-1.59-1.03-.18-.09-.31-.26-.43-.42-.56-.74-.99-1.56-1.34-2.41-.29-.71-.39-1.48-.34-2.24.06-1,.09-2.01.23-3.01.05-.36.17-.7.38-1,.25-.36.62-.48,1.02-.34.15.05.14.17.13.28-.03.35-.16.67-.34.97-.4.69-.6,1.42-.6,2.22,0,.32-.02.63-.05.95-.11.96.06,1.85.52,2.71.39.72.83,1.37,1.43,1.93.49.46.94.97,1.44,1.49-.25.09-.36-.02-.48-.09Zm-.64-1.47c-.82-.75-1.36-1.67-1.79-2.67-.14-.34-.2-.7-.19-1.06.03-.99,0-1.99.24-2.97.06-.27.15-.52.32-.75.22-.31.34-.66.46-1.02.05-.14.06-.28.03-.43-.04-.21-.13-.32-.36-.35-.61-.09-.54.07-.55-.65,0-.22,0-.43.05-.65.02-.07.02-.15.06-.21.42-.64.86-1.26,1.46-1.74.15-.12.3-.23.42-.37.4-.46.93-.62,1.5-.64.75-.03,1.45-.2,2.09-.6.37-.23.76-.4,1.14-.61.31-.17.64-.26.99-.28.91-.06,1.81,0,2.65.44.25.13.46.28.65.49.74.8,1.16,1.75,1.28,2.83.03.3.1.6.19.89.54,1.77.57,3.58.3,5.39-.11.74-.32,1.46-.58,2.17-.03.07-.04.19-.16.15-.08-.02-.1-.1-.11-.17-.08-.74-.24-1.48.13-2.2.14-.27.2-.6.16-.93-.02-.19-.14-.24-.29-.14-.14.1-.25.24-.3.41-.12.41-.16.82-.1,1.24.08.51.09,1.03.17,1.57-.55-.38-1.19-.45-1.8-.62-.29-.08-.54-.27-.79-.44-.53-.38-1.14-.49-1.76-.53-.32-.02-.45-.16-.54-.43-.08-.23-.07-.49-.33-.73.09.38.16.69.24,1.03-.32.03-.6-.07-.88-.12-.57-.1-1.14-.17-1.72-.16-.48,0-.82.22-1.06.63-.28.49-.39,1.03-.38,1.58.02.63.08,1.26.15,1.89.07.6.08,1.19.12,1.88-.42-.42-.77-.8-1.15-1.15Zm9.92-4.67c-.17-.22-.13-.41-.08-.59.06-.24.06-.51.41-.67-.01.48-.17.84-.33,1.26Zm-4.82,11.02s-.03-.04-.06-.09c.49-.18.94-.41,1.34-.76-.15-.09-.22.01-.29.06-.18.12-.35.26-.54.36-.43.22-.86.32-1.28-.04-.31-.26-.61-.51-.87-.78,0-.09.04-.11.07-.13.08-.05.21-.08.16-.21-.05-.13-.18-.08-.26-.04-.19.07-.29-.01-.39-.16-.33-.46-.6-.95-.79-1.48-.17-.46-.31-.93-.49-1.38-.11-.29-.2-.58-.21-.88-.02-1.08-.22-2.15-.28-3.23-.02-.47.01-.92.17-1.36.23-.62.52-.82,1.17-.79.61.02,1.21.1,1.8.24.45.11.91.18,1.37.2.43.02.82.15,1.18.38.57.38,1.17.66,1.84.84.6.16,1.11.54,1.61.91.14.11.16.26.17.42.01.53.04,1.06.11,1.59.05.37.26.62.63.72.17.05.34.06.51.06.3,0,.6.05.9.12.39.1.77.23,1.18.23.2,0,.39.1.57.2.41.21.82.43,1.23.64.06.03.14.06.19.11.41.44.95.62,1.5.82.92.34,1.55,1.02,2.01,1.87.19.35.17.4-.16.64-.66.47-1.4.73-2.17.94-1.53.43-3.09.7-4.69.73-1.12.02-2.25.12-3.37.04-.46-.03-.94.01-1.39-.22-.12-.06-.31.03-.47,0-.68-.11-1.35-.29-1.98-.58Zm3.57,2.78c.05.05.09.12.15.16.89.71,1.41,1.66,1.79,2.7.17.46.44.87.58,1.34-.13.09-.2-.02-.29-.05-.39-.16-.74-.39-1.09-.61-.55-.35-.95-.83-1.21-1.43-.25-.58-.51-1.16-.8-1.73-.24-.46-.47-.93-.77-1.35-.07-.1-.17-.19-.17-.4.71.37,1.29.83,1.83,1.36Zm10.9-.23c-.77.44-1.61.6-2.42.88-.69.24-1.43.19-2.14.16-.52-.03-1.03-.12-1.54-.19-.22-.03-.41-.13-.6-.22-.25-.11-.02-.17.06-.31-.62.03-1.19-.1-1.77-.05-.5.05-.97-.08-1.42-.3-.89-.44-1.79-.86-2.65-1.36-.06-.04-.13-.06-.13-.17.24.02.49.03.72.06,1.16.17,2.33.1,3.49.03.99-.06,1.99-.1,2.98-.19.56-.05,1.11-.18,1.65-.31.86-.2,1.75-.36,2.55-.78.33-.17.71-.24,1.01-.48.02-.02.05-.03.08-.04.37-.08.43-.16.36-.5-.05-.24-.14-.46-.22-.73.25-.08.49-.04.72-.03.13,0,.15.1.18.2.11.48.33.92.55,1.36.24.5.7.76,1.15,1.01.12.07.26.12.41.19-.35.2-.7.41-1.06.61-.14.08-.27.15-.32.28-.54.29-1.09.58-1.63.89Zm13.4-5.61c.48.13.97.09,1.46.09.7,0,1.36.15,2.02.34.76.22,1.41.64,2.03,1.11.73.56,1.44,1.14,2.12,1.77.22.2.42.43.63.64.04.04.1.09.06.15-.03.06-.1,0-.14,0-.48-.07-.96-.19-1.43-.32-.88-.26-1.72-.62-2.57-.95-.53-.21-1.02-.51-1.53-.79-.7-.39-1.33-.9-2-1.34-.15-.1-.3-.2-.46-.3.26,0,.47.2.73.22-.46-.24-.92-.47-1.39-.71,0-.01.01-.03.02-.04.15.04.3.08.44.12Zm-.12-1.06s-.04-.02-.05-.03c.51-1.3,1.03-2.59,1.54-3.89-.02,0-.04-.02-.06-.03-.57,1.37-1.13,2.75-1.7,4.12-.02,0-.04-.01-.06-.02-.04-.54-.13-1.08-.11-1.63.04-.87.27-1.68.65-2.46.26-.54.49-1.09.81-1.61.53-.86,1.06-1.72,1.59-2.58.27-.44.56-.86.92-1.23,0,0,0-.01.01-.02.11-.11.24-.26.36-.22.1.03,0,.23-.01.35-.12.95-.18,1.9-.4,2.83-.15.64-.36,1.27-.56,1.9-.12.39-.27.78-.42,1.16-.2.52-.5.98-.84,1.41-.52.67-1.13,1.27-1.67,1.93Zm19.22-1.31c.49,0,.98.06,1.46.17.53.13,1.01.4,1.44.73.67.51,1.25,1.1,1.75,1.78.21.29.4.6.57.91.27.47.52.95.74,1.44.41.89.76,1.8.87,2.79.12,1.07.06,2.14-.03,3.2-.1,1.18-.39,2.33-.78,3.45-.26.74-.57,1.46-.88,2.18-.29.67-.64,1.3-.97,1.95-.26.5-.59.97-.87,1.46-.35.63-.75,1.24-1.12,1.86-.41.69-.83,1.37-1.25,2.05-.21.33-.41.67-.64.98-.3.41-.63.8-1.04,1.11,0,0-.01,0-.02.01-.31.2-.44.16-.5-.2-.08-.43-.03-.86.02-1.29.1-.77.34-1.5.58-2.23.17-.53.32-1.06.45-1.6.14-.58.3-1.16.47-1.73.23-.75.36-1.52.53-2.29.1-.48.24-.95.37-1.42.17-.62.28-1.25.41-1.88.14-.72.36-1.43.5-2.16.19-1.05.33-2.1.42-3.16.12-1.39-.05-2.73-.37-4.07-.15-.6-.35-1.18-.64-1.74-.34-.63-.81-1.15-1.34-1.61-.28-.25-.58-.48-.87-.73.25-.07.5,0,.74,0Zm-.41.53c.44.35.85.73,1.2,1.16.47.56.76,1.21.97,1.91.24.83.41,1.67.51,2.53.08.69.06,1.39,0,2.09-.07.96-.21,1.9-.35,2.85-.06.44-.17.87-.29,1.3-.19.7-.32,1.42-.48,2.13-.11.49-.26.97-.38,1.46-.11.48-.21.96-.31,1.43-.11.55-.23,1.1-.39,1.64-.21.73-.4,1.48-.6,2.22-.07.27-.15.54-.23.81-.25.84-.53,1.66-.64,2.53-.07.52-.04,1.02.08,1.52,0,.04.05.07,0,.1-.04.03-.07,0-.11-.02-.52-.2-.88-.59-1.23-1-.32-.39-.48-.84-.52-1.33-.03-.37.05-.74.07-1.11.05-.91.16-1.81.26-2.71.09-.79.23-1.58.35-2.36.17-1.08.33-2.16.54-3.22.14-.67.35-1.32.53-1.98.27-.97.58-1.94.81-2.92.19-.81.45-1.59.62-2.4.14-.63.22-1.26.26-1.9.04-.64-.04-1.26-.14-1.88-.11-.74-.28-1.46-.56-2.15-.17-.43-.39-.83-.73-1.14-.02-.02-.06-.04-.04-.09.3.13.52.36.77.55Zm8.17-3.85c.28-.3.45-.65.58-1.04.15-.46.43-.85.71-1.23.4-.55.78-1.11,1.29-1.57.33-.29.63-.6.86-.98.14-.23.28-.46.44-.67.28-.38.66-.57,1.09-.71.52-.17,1.03-.38,1.54-.58.48-.18.96-.32,1.47-.37.17-.02.34-.09.54-.07-.07.2-.25.27-.38.38-.29.26-.55.54-.79.84-.2.25-.43.48-.69.67-.4.29-.73.65-1.06,1.01-.4.44-.82.85-1.27,1.24-.62.54-1.28,1.05-1.86,1.64-.23.23-.54.34-.78.55-.47.42-1.06.63-1.57.98-.06.04-.14.06-.21.09-.02-.09.04-.13.09-.17Zm-.65.68c.23-.18.44-.31.66-.42.65-.35,1.28-.72,1.89-1.14.52-.35.94-.8,1.43-1.17.65-.49,1.25-1.03,1.84-1.58.38-.35.73-.75,1.1-1.12.21-.21.44-.39.66-.58.4-.33.68-.75,1.05-1.11.22-.21.45-.39.7-.61-.04.62-.29,1.13-.57,1.63-.33.58-.73,1.11-1.12,1.65-.34.46-.73.87-1.19,1.23-.43.33-.89.6-1.34.9-.55.36-1.08.76-1.66,1.08-.78.43-1.57.82-2.42,1.1-.32.1-.65.14-1.04.14Zm15.76,5.24c-.56-.32-1.1-.65-1.68-.93-.55-.26-1.07-.57-1.62-.83-.58-.28-1.18-.52-1.8-.73-.73-.25-1.46-.49-2.18-.77-.44-.17-.88-.33-1.31-.52.3.03.6.04.89.08.38.04.75.05,1.13.05.48,0,.95.01,1.42.13.46.12.94.15,1.4.29.63.19,1.19.49,1.71.88.45.34.92.66,1.34,1.05.47.44.93.9,1.35,1.39.09.1.15.22.24.37-.35-.12-.62-.29-.9-.45Zm-9.75,37.46c-.16-.17-.2-.35-.27-.51-.22-.49-.47-.97-.66-1.48-.31-.8-.41-1.63-.5-2.47-.09-.84-.12-1.68-.1-2.52.01-.59.08-1.18.15-1.77.07-.63.17-1.25.27-1.88.06-.41.19-.81.27-1.22.08-.37.18-.74.29-1.09.25-.75.45-1.51.71-2.26.28-.78.59-1.54.92-2.29.6-1.37,1.34-2.65,2.33-3.79.42-.49.79-1.02,1.18-1.54.32-.43.69-.81,1.11-1.15.32-.26.67-.48.99-.73.33-.25.68-.49,1.03-.72.27-.18.57-.27.86-.38.48-.17.96-.33,1.48-.35.56-.02,1.09.1,1.59.35.06.03.1.08.15.12.06.05.11.13.17.13.29,0,.15.16.1.28-.21.45-.56.78-.88,1.14-.6.68-1.3,1.26-1.84,2-.26.36-.51.72-.75,1.09-.32.48-.68.94-1.04,1.39-.56.71-1.05,1.45-1.46,2.26-.35.69-.73,1.37-1.15,2.02-.33.51-.6,1.07-.86,1.62-.32.67-.64,1.34-.97,2-.49.97-.91,1.98-1.32,2.99-.43,1.06-.78,2.14-1.08,3.24-.21.75-.38,1.51-.49,2.29-.09.65-.19,1.3-.22,1.96-.02.41,0,.81,0,1.27Zm12.8-21.86c-.07.63-.19,1.25-.33,1.87-.1.46-.28.9-.42,1.35-.21.68-.47,1.34-.73,2-.32.8-.64,1.6-1.02,2.38-.3.63-.59,1.27-.95,1.87-.33.56-.69,1.11-1.07,1.63-.4.55-.82,1.08-1.21,1.64-.29.42-.61.81-.92,1.22-.36.48-.72.96-1.08,1.44-.47.63-.93,1.26-1.36,1.91-.38.56-.72,1.14-1.08,1.72-.37.59-.71,1.19-1.07,1.78-.33.53-.6,1.1-.9,1.64-.14.26-.2.24-.37,0-.18-.26-.12-.54-.14-.81-.06-.95.07-1.89.18-2.83.12-1.1.43-2.15.74-3.2.13-.43.26-.86.4-1.29.2-.65.48-1.27.74-1.89.31-.74.62-1.48.99-2.19.35-.67.66-1.36.98-2.05.38-.83.85-1.61,1.32-2.39.39-.64.73-1.31,1.1-1.96.28-.51.63-.97.98-1.43.54-.71,1.07-1.43,1.57-2.17.42-.61.91-1.17,1.44-1.7.53-.52,1.06-1.04,1.49-1.65.04-.06.09-.12.13,0,0,.03.05.07.06.07.22-.03.21.15.25.27.32.9.39,1.83.28,2.78Zm16.8,20.44c0-.48.04-.96.06-1.49.19.24.37.44.53.65.12.17.35.22.43.44.1.27.28.5.44.74.28.41.61.78.94,1.15.41.47.83.93,1.1,1.49.32.67.47,1.39.4,2.15-.05.66-.16,1.31-.21,1.97-.08.95-.16,1.91-.24,2.86-.05.62-.11,1.24-.23,1.84-.06.31-.18.61-.26.93-.19.78-.41,1.55-.68,2.31-.25.68-.5,1.36-.8,2.02-.17.37-.42.7-.65,1.04-.37.54-.85.98-1.29,1.46-.22.24-.39.5-.59.76-.49.64-.99,1.27-1.52,1.89-.47.56-.85,1.18-1.24,1.8-.02.04-.03.1-.09.08-.03-.01-.05-.07-.08-.11-.18-.33-.11-.68-.07-1.02.12-.87.25-1.75.41-2.61.12-.64.31-1.27.47-1.9.16-.65.27-1.31.41-1.97.15-.72.3-1.43.47-2.14.25-1.03.56-2.04.83-3.06.19-.72.41-1.43.52-2.17.07-.48.15-.97.24-1.45.11-.54.25-1.07.33-1.61.09-.6.12-1.2.16-1.79.05-.71.1-1.43.14-2.15.04-.7.06-1.41.07-2.11Zm-.17-.49c-.01.6,0,1.2-.03,1.8-.02.58-.08,1.17-.11,1.75-.05.7-.08,1.4-.14,2.11-.05.64-.17,1.27-.32,1.89-.15.61-.27,1.24-.35,1.87-.06.49-.17.97-.3,1.45-.17.6-.32,1.2-.49,1.79-.14.5-.3.99-.43,1.48-.17.6-.31,1.21-.44,1.83-.12.61-.26,1.22-.39,1.84-.18.86-.42,1.71-.62,2.57-.14.6-.21,1.22-.29,1.83-.06.48-.13.96-.2,1.47-.42-.84-.86-1.62-1.26-2.43-.34-.68-.65-1.38-.92-2.09-.26-.69-.28-1.38-.25-2.08.02-.71-.01-1.42-.03-2.13-.02-.94-.02-1.87.19-2.8.14-.59.22-1.19.34-1.79.13-.66.37-1.29.55-1.94.18-.67.34-1.34.57-2,.29-.81.58-1.61.95-2.39.31-.64.69-1.23,1.11-1.79.65-.86,1.32-1.7,1.99-2.54.24-.3.56-.52.89-.8.02.41,0,.76,0,1.12Zm1-10.3c.68.18,1.38.32,2.03.59.57.23,1.16.44,1.65.83.73.57,1.4,1.2,1.93,1.96.43.61.8,1.27,1.19,1.91.31.5.68.97,1.02,1.46.02.03.05.04.03.1-.32-.03-.52-.23-.72-.44-.61-.63-1.21-1.26-1.81-1.89-.19-.2-.38-.4-.54-.62-.29-.41-.7-.68-1.07-.99-.45-.38-.94-.72-1.4-1.09-.52-.43-1.09-.8-1.64-1.2-.25-.18-.51-.34-.77-.5-.03-.02-.07-.03-.08-.08.05-.05.11-.03.16-.02Zm.48.64c.37.27.75.51,1.11.79.49.38,1.02.73,1.5,1.13.55.46,1.17.86,1.61,1.44.57.75,1.3,1.35,1.91,2.06.17.19.37.36.57.54-.16.04-.24-.07-.34-.1-.89-.3-1.7-.77-2.53-1.18-.64-.31-1.23-.68-1.8-1.1-.45-.34-.84-.74-1.17-1.2-.45-.62-.91-1.23-1.33-1.86-.25-.38-.46-.78-.69-1.18-.01-.03-.02-.06-.02-.09.37.32.82.48,1.2.75Zm-6.32-7.72c.06.41.07.81-.03,1.21,0-.41.02-.81.03-1.21Zm-.13,3.8c-.01-.09-.04-.18.03-.27.12.15.11.34.16.5.25.85.46,1.7.58,2.58.05.35.06.72.06,1.07,0,.81-.08,1.62-.21,2.42-.18,1.09-.43,2.17-.74,3.23-.24.81-.5,1.61-.83,2.39-.2.48-.45.93-.7,1.38-.46.84-.97,1.65-1.52,2.44-.37.52-.77,1.02-1.22,1.47-.44.44-.88.89-1.32,1.33-.35.34-.71.67-1.05,1.02-.51.51-1.06.98-1.62,1.44-.67.55-1.29,1.14-1.9,1.74-.56.55-1.07,1.16-1.6,1.74-.1.1-.21.19-.31.3-.12.13-.22.09-.29-.04-.25-.43-.47-.88-.65-1.34-.17-.44-.36-.87-.48-1.32-.19-.66-.1-1.31.07-1.95.16-.58.34-1.15.5-1.73.11-.41.3-.79.45-1.19.28-.7.56-1.39.86-2.08.39-.87.85-1.71,1.36-2.51.43-.67.89-1.32,1.38-1.95.47-.59.97-1.16,1.39-1.79.39-.59.81-1.16,1.26-1.7.73-.85,1.4-1.76,2.21-2.54.69-.66,1.4-1.3,2.07-1.97.63-.63,1.22-1.29,1.69-2.05.02-.03.05-.04.09-.09.07.54.02,1.03-.1,1.52-.27,1.13-.67,2.22-1.07,3.31-.22.6-.45,1.19-.78,1.74-.61,1.03-1.16,2.1-1.94,3.03-.47.56-.88,1.18-1.33,1.76-.35.46-.74.9-1.07,1.37-.46.67-1.04,1.25-1.49,1.93-.28.43-.55.87-.87,1.27-.34.45-.66.92-.94,1.41-.4.73-.82,1.44-1.17,2.19-.43.93-.72,1.9-1.08,2.86-.18.47-.2.96-.31,1.43-.01.06-.02.14.07.16.08.02.09-.06.11-.11.04-.09.08-.18.07-.28-.02-.4.07-.78.22-1.14.2-.47.31-.97.49-1.44.23-.62.48-1.23.77-1.82.42-.85.88-1.69,1.39-2.49.28-.44.62-.84.91-1.27.37-.55.73-1.12,1.15-1.63.61-.75,1.18-1.54,1.8-2.29.46-.55.85-1.15,1.28-1.73.31-.42.65-.81.94-1.25.37-.56.66-1.15,1-1.72.68-1.14,1.1-2.4,1.54-3.64.22-.61.45-1.23.59-1.87.13-.61.19-1.22.09-1.85Zm17.54-19.4c-.36.5-.7,1.03-1.1,1.5-.29.34-.57.7-.86,1.03-.25.28-.52.53-.78.8-.54.54-1.01,1.13-1.44,1.77-.36.53-.76,1.01-1.23,1.44-.54.49-1.02,1.05-1.59,1.5-.47.37-.99.67-1.54.92-.45.2-.9.42-1.35.63-.29.13-.58.26-.89.35-.6.19-1.22.29-1.85.27-.22,0-.44-.06-.66-.1-.66-.13-1.29-.38-1.95-.51-.33-.06-.66-.09-.99-.12-.38-.04-.76-.11-1.14-.21-.03,0-.08,0-.09-.07.26-.06.51-.14.77-.19.38-.08.72-.24,1.07-.4.68-.31,1.29-.71,1.92-1.09.54-.33,1.03-.73,1.58-1.03.38-.21.67-.54,1.06-.73.76-.38,1.4-.92,2.11-1.38.22-.15.46-.27.7-.4.6-.35,1.14-.8,1.74-1.17.79-.48,1.59-.93,2.37-1.41.82-.5,1.69-.87,2.58-1.22.46-.18.96-.26,1.45-.33.04,0,.1,0,.13.02.04.04-.01.08-.04.12Zm.1-.29c-.83-.02-1.6.24-2.36.55-1.04.42-2.04.93-2.98,1.55-.44.29-.92.52-1.37.79-.52.3-.97.7-1.49,1.01-.3.18-.6.35-.9.52-.46.27-.86.6-1.29.92-.23.17-.49.3-.74.44-.5.28-.95.65-1.43.96-.51.34-1.01.71-1.54,1.03-.4.23-.76.53-1.18.72-.47.22-.94.45-1.44.61-.38.12-.76.19-1.15.21-.05,0-.1,0-.21,0,.56-.34.79-.87,1.08-1.36.12-.2.27-.39.42-.56.49-.57.93-1.17,1.36-1.78.5-.71,1.04-1.39,1.61-2.04.25-.28.55-.5.85-.71.18-.13.34-.28.51-.42.42-.35.81-.75,1.29-1.01.72-.39,1.35-.94,2.11-1.26.39-.16.81-.23,1.22-.33.45-.11.89-.2,1.35-.23.38-.03.77-.05,1.15-.02.43.02.86.05,1.29.05.23,0,.45.02.68.03.34,0,.69-.02,1.03,0,.3.02.61.04.91.04.17,0,.34.05.52.06.29.02.58.06.89.05-.03.14-.08.21-.23.21Z"/>
        <path d="m104.99,23.28c.25-.46.4-.96.59-1.44-.21.48-.44.94-.59,1.44Z"/>
        <path d="m79.29,72.35s0-.01-.02-.02c0,0,0,.02,0,.02h0Z"/>
        <path d="m65.22,45.22s0,0,0,0c0,0,0,0,0,.01l.02-.02Z"/>
        <path d="m65.22,45.22s-.02.02-.02.02c0,0,.01,0,.02,0,0,0,0,0,0-.01Z"/>
        <path d="m65.47,45.32c.33-.1.66-.12,1-.11-.42-.17-.83-.04-1.23.03.02.18.17.1.24.08Z"/>
        <path d="m73,52.69c.47-.43,1.07-.69,1.45-1.22-.5.39-1.06.7-1.45,1.22Z"/>
        <path d="m78.21,48.3s.02-.01.03-.02h-.01s-.02,0-.02.02Z"/>
        <path d="m77.57,48.99c.26-.19.48-.41.65-.69-.33.12-.42.47-.65.69Z"/>
        <path d="m71.18,56.35c.22-.14.36-.23.44-.39-.15.08-.32.15-.44.39Z"/>
        <path d="m78.24,48.29s0-.01.01-.02c0,0-.01,0-.02,0,0,0,.01.01.01.01Z"/>
        <path d="m78.26,48.27c.18-.05.31-.15.41-.29-.16.07-.35.1-.41.29Z"/>
        <path d="m35.49,38.79s0,0-.01,0h0s0,0,0,0c0,0,0,0,.01,0,0,0,0,0,0,0Z"/>
        <path
              d="m37.3,38.74c.06-.08.15-.16.09-.27-.06-.12-.18-.14-.3-.13-.29.03-.57.1-.83.23-.25.13-.5.2-.78.21.26.06.52.04.78.17.32.16.87,0,1.03-.22Zm-.14-.14c-.17.22-.38.15-.59.11.17-.11.36-.19.59-.11Z"/>
        <path d="m43.28,48.35c-.21-.19-.46-.29-.73-.36.21.19.46.29.73.36Z"/>
        <path d="m22.93,39.33c-.07-.04-.13-.07-.22-.12.04.13.12.15.22.12Z"/>
        <path d="m79.44,28.29c-.16.14-.36.24-.5.47q.3-.17.5-.47Z"/>
        <path d="m81.25,30.18c-.04.19-.17.16-.19.34.08-.11.21-.09.19-.34Z"/>
        <path d="m80.69,30.72c-.04.06-.17.04-.16.16.08-.02.14-.07.16-.16Z"/>
        <path d="m74.74,11.53c-.05.08-.05.16-.02.25.06-.08.04-.16.02-.25Z"/>
        <path
              d="m68.09,62.6c-.28-.11-.25-.29-.26-.5-.02-.5.06-.99.18-1.48-.19.35-.3.72-.33,1.12-.04.46,0,.91-.07,1.37-.04.27.03.54.15.79.09.18.22.22.34.12.26-.2.29-1.31,0-1.43Zm-.11.96c-.19-.26-.19-.4-.02-.65.06.22.06.43.02.65Z"/>
        <path
              d="m65.69,59.33c.48-.04.92-.18,1.27-.53-.42.24-.87.34-1.33.36-.49.02-1,.17-1.45-.15-.06-.04-.17-.06-.25-.05-.15.02-.27.09-.31.25-.04.16.06.24.17.32.19.13.41.18.61.07.41-.23.85-.23,1.29-.27Zm-1.59.04c-.07,0-.15-.02-.16-.1,0-.11.09-.08.15-.08.08,0,.14.03.13.12,0,.06-.07.07-.13.07Z"/>
        <path d="m60.62,67.26c-.36.61-.47,1.29-.68,1.95.33-.62.46-1.3.68-1.95Z"/>
        <path d="m65.43,60.06s0-.01.01-.02c0,0-.01,0-.02,0h0Z"/>
        <path d="m65.44,60.04c.22-.06.37-.21.5-.37-.18.1-.42.15-.5.37Z"/>
        <path d="m65.01,60.28s0,0,0,0c0,0,0,0,0,0,0,0,0,0,.01,0,0,0,0,0-.01,0,0,0,0,0,0,0Z"/>
        <path d="m64.66,60.7c.11-.15.39-.14.35-.42-.09.16-.31.22-.35.42Z"/>
        <path d="m65.41,60.07c-.16,0-.21.21-.38.21.17,0,.3-.05.38-.21Z"/>
        <path d="m65.43,60.06s0,0,0,0c0,0,0,0-.01.01,0,0,.01,0,.02,0Z"/>
        <path
              d="m66.31,59.46s.02.04.05.02c.03-.02.06-.05.09-.07-.02,0-.05-.03-.06-.02-.03.02-.07.04-.08.08Z"/>
        <path d="m90.28,27.6c-.36.18-.76.21-1.13.36.42.1.77-.01,1.13-.36Z"/>
        <path d="m25.62,45.81c.68-.56,1.26-1.23,1.97-1.78-.8.42-1.37,1.11-1.97,1.78Z"/>
        <path d="m86.91,13.29s0,.01,0,.02c0,0,0,0,.02-.01h0Z"/>
        <path d="m86.91,13.31c-.12.03-.14.15-.19.23-.09.14-.09.31-.2.44.28-.14.3-.42.39-.67Z"/>
        <path d="m86.52,13.99s0,0-.01.01h0s0,0,0-.01Z"/>
        <path d="m86.5,14s0,.01,0,.02c0,0,0,0,0-.01,0,0,0,0,0,0Z"/>
        <path d="m86.51,14.02c-.02.22-.22.4-.17.72.09-.28.25-.47.17-.72Z"/>
        <path d="m86.92,13.28c.1-.16.2-.32.19-.52-.07.17-.23.31-.19.52Z"/>
        <path d="m86.91,13.29s.01,0,.01,0c0,0,0-.02,0-.03,0,0,0,.01,0,.02Z"/>
        <path d="m83.23,20.58c-.08.13-.2.15-.2.28.05-.08.18-.1.2-.28Z"/>
        <path d="m23.56,56.16c.12-.06.21-.15.28-.32-.17.09-.22.2-.28.32Z"/>
        <path d="m23.99,55.66c.11-.1.22-.21.33-.31-.22-.01-.28.14-.33.31Z"/>
        <path d="m24.32,55.35s0,0,.01,0h0s0,0,0,0Z"/>
        <path d="m24.33,55.35s0-.01,0-.02c0,0,0,0,0,.01,0,0,0,0,0,0Z"/>
        <path d="m24.33,55.34c0-.11.12-.17.12-.31-.09.11-.2.17-.12.31Z"/>
        <path d="m31.51,50.54c.03-.99-.17-1.98-.17-2.98-.12,1,.02,1.99.17,2.98Z"/>
        <path d="m31.94,54.16s.01,0,.02,0v-.31s-.01,0-.02,0v.31Z"/>
        <path d="m31.96,53.45v-.22c-.02.06-.08.14,0,.22Z"/>
        <path d="m63.91,47.43c.19-.02.26-.11.32-.26-.17.02-.23.12-.32.26Z"/>
        <path d="m79.29,72.35s0,0,0,0c0,0,.01.01.02.01,0,0,0-.01,0-.02Z"/>
        <path d="m80.24,73.81s-.02-.02-.03-.03c0,.01.01.03.02.04h.01Z"/>
        <path d="m79.58,72.69c-.07-.12-.13-.26-.28-.32.2.54.54.99.92,1.41-.15-.4-.43-.72-.64-1.09Z"/>
        <path d="m83.97,81.5s0-.03,0-.05h-.01s.01.04.02.05Z"/>
        <path d="m84.57,82.91s-.02-.03-.03-.05c0,.02.01.04.02.06h.01Z"/>
        <path d="m83.97,81.5c.07.5.31.94.57,1.37-.11-.49-.28-.95-.57-1.37Z"/>
        <path
              d="m83.22,79.49c-.17-.39-.34-.78-.52-1.17-.05-.11-.06-.28-.24-.29.19.43.38.85.57,1.28.04.08.06.19.19.18Z"/>
        <path d="m82.44,78.03s0,0,.02,0c0,0,0,0,0-.01,0,0,0,0,0-.01,0,0,0,.01,0,.02h0Z"/>
        <path d="m83.23,79.49s0,0,0,0c0,0,0,0,0,0,0,0,0,0,0,0Z"/>
        <path d="m84.57,82.91s-.01,0-.01,0c0,.01.01.03.02.04,0-.02,0-.03-.01-.05Z"/>
        <path d="m84.58,82.96c.09.51.34.96.55,1.42-.17-.48-.24-1-.55-1.42Z"/>
        <path d="m81.74,76.45c.11.36.3.69.5,1-.13-.35-.27-.7-.5-1Z"/>
        <path d="m80.25,73.85c.07.33.29.57.49.81-.12-.3-.26-.58-.49-.81Z"/>
        <path d="m80.24,73.81s0,0,0,0c0,0,.01.02.02.03,0-.01,0-.02-.01-.04Z"/>
        <polygon points="83.22 79.49 83.22 79.5 83.22 79.51 83.22 79.49"/>
        <path d="m83.53,80.36c-.06-.3-.23-.56-.31-.85-.06.35.08.62.31.85Z"/>
        <path d="m81.51,75.75c-.25-.14-.19-.49-.53-.67.13.22.22.37.3.53.05.11.13.14.23.14Z"/>
        <polygon points="81.51 75.75 81.51 75.75 81.51 75.75 81.51 75.75"/>
        <path d="m85.46,85.3q.06.26.21.42c-.06-.13-.06-.28-.21-.42Z"/>
        <path d="m83.7,80.74c-.05-.11-.1-.22-.15-.33-.04.14,0,.25.15.33Z"/>
        <path d="m83.55,80.4s0-.02,0-.02h0s-.01-.02-.02-.02c0,.01,0,.02.01.03,0,0,0,.01,0,.02Z"/>
        <path d="m81.58,76.14c-.02-.15-.11-.25-.07-.38-.07.13-.07.25.07.38Z"/>
        <polygon points="81.51 75.75 81.51 75.75 81.51 75.76 81.51 75.75"/>
        <path d="m83.95,81.44c0-.12-.02-.23-.2-.36.09.18.07.31.2.36Z"/>
        <path d="m83.96,81.45s0,0-.01,0c0,0,0,.01,0,.02h.01Z"/>
        <path d="m82.32,77.68c.07.16.1.25.13.32.05-.1.03-.19-.13-.32Z"/>
        <path d="m70.62,38.6c.24.1.48.18.73.19-.24-.09-.47-.21-.73-.19Z"/>
        <path
              d="m70.62,38.6s-.02,0-.02,0c0,0,0,0,0,0,0,0-.02,0-.03,0,0,0,.01,0,.02.01.01,0,.02,0,.03,0Z"/>
        <path d="m74.92,40.17c-.06-.03-.09-.11-.17-.09.02.08.08.11.17.09Z"/>
        <path
              d="m58.69,38.29c.5.28.96.62,1.44.93.08.05.15.11.24.12-.03-.04-.05-.1-.08-.12-.6-.4-1.19-.84-1.83-1.17.02.13.13.19.24.25Z"/>
        <path d="m60.39,39.34s-.01,0-.02,0c0,0,0,.01.01.02,0,0,.01-.01.01-.01Z"/>
        <path
              d="m58.43,38.03s.01,0,.02.01c0,0-.01-.01-.01-.02-.01,0-.02,0-.04,0,0,0,.02.01.03.02,0,0,0,0,0,0Z"/>
        <path d="m57.54,37.48s-.03.05-.04.08c.3.16.53.45.9.46-.29-.18-.57-.36-.86-.53Z"/>
        <path d="m60.79,39.59s0-.01,0-.02h0s0,.02.01.02Z"/>
        <path d="m61.14,39.97c-.07-.17-.23-.25-.35-.37,0,.23.23.25.35.37Z"/>
        <path d="m63.93,41.99c-.04-.12-.12-.15-.23-.16.03.12.13.14.23.16Z"/>
        <path d="m62.18,40.77c-.09-.08-.15-.13-.21-.19.02.1.06.2.21.19Z"/>
        <path d="m60.79,39.57s-.01,0-.02,0c0,0,0,0,.01,0,0,0,.01-.01.01-.01Z"/>
        <path d="m60.39,39.34s-.01.01-.01.01c.01,0,.02.01.03.01,0,0-.01-.02-.02-.02Z"/>
        <path d="m60.76,39.57c-.11-.08-.22-.17-.35-.21.09.11.16.26.35.21Z"/>
        <path
              d="m56.67,36.93s-.07-.05-.1-.05c-.03,0-.04.02-.03.05.03.05.07.08.14.07.03-.01.03-.04,0-.06Z"/>
        <path
              d="m12.92,33.4c-.07-.08-.13-.18-.26-.2-.02-.16-.13-.27-.23-.39-.6-.64-1.19-1.28-1.8-1.9-.15-.16-.29-.36-.54-.4.23.25.47.5.7.75.62.65,1.23,1.29,1.85,1.93.28.47.66.87,1.03,1.27,1.02,1.11,2.04,2.23,2.88,3.49.08.12.13.27.3.28-.28-.52-.62-1-.99-1.46-.93-1.17-1.99-2.24-2.96-3.37Z"/>
        <path d="m15.44,53.43c-.09-.19-.28-.26-.44-.36.1.18.27.27.44.36Z"/>
        <path
              d="m40.85,92.74c-.08.02-.17.02-.24.06-.27.14-.48.02-.72-.09-.82-.41-1.66-.75-2.58-.86-.45-.05-.87-.23-1.27-.43-.21-.11-.43-.22-.61-.37-.03-.02-.07-.05-.1-.02-.04.05-.02.1.02.14.1.1.22.17.34.24.43.24.88.45,1.36.56.38.09.78.14,1.15.26.54.17,1.06.41,1.58.65.13.06.22.2.37.24.02,0,.03.04.04.06.09.39.36.68.55,1.02.02.03.04.06.06.09.15.22.41.23.57.02.22-.3.36-.63.43-.99.03-.15,0-.28-.15-.35-.25-.12-.52-.22-.81-.22Zm.38,1.41c-.07.09-.15.1-.22,0-.14-.2-.28-.39-.41-.59-.08-.11-.17-.22-.22-.35-.01-.04-.04-.08.03-.09.19-.01.37-.09.57-.12.19.02.39.07.58.15.07.03.11.08.08.16-.09.3-.21.59-.4.84Z"/>
    </g>
</svg>
